<svg width="42" height="42" viewBox="0 0 42 42" fill="none" xmlns="http://www.w3.org/2000/svg">
<g opacity="0.7">
<path d="M37.1736 20.8601C37.1736 11.8714 29.8488 4.54663 20.8601 4.54663C11.8713 4.54663 4.54657 11.8714 4.54657 20.8601C4.54657 29.8489 11.8713 37.1736 20.8601 37.1736C29.8488 37.1736 37.1736 29.8489 37.1736 20.8601ZM22.051 27.4834L16.2923 21.7248C16.0476 21.48 15.9334 21.1701 15.9334 20.8601C15.9334 20.5502 16.0476 20.2402 16.2923 19.9955L22.051 14.2369C22.5241 13.7638 23.3071 13.7638 23.7802 14.2369C24.2533 14.7099 24.2533 15.493 23.7802 15.9661L18.8861 20.8601L23.7802 25.7542C24.2533 26.2273 24.2533 27.0103 23.7802 27.4834C23.3071 27.9565 22.5404 27.9565 22.051 27.4834Z" fill="white"/>
</g>
<circle cx="20.8598" cy="20.8599" r="19.8599" transform="rotate(90 20.8598 20.8599)" stroke="white" stroke-width="2"/>
</svg>
