<svg width="113" height="152" viewBox="0 0 113 152" fill="none" xmlns="http://www.w3.org/2000/svg">
<g filter="url(#filter0_d_109_233)">
<path d="M46.317 34V19.3H52.911C54.605 19.3 55.907 19.643 56.817 20.329C57.727 21.001 58.182 21.925 58.182 23.101C58.182 23.899 58 24.571 57.636 25.117C57.286 25.663 56.81 26.083 56.208 26.377C55.606 26.671 54.955 26.818 54.255 26.818L54.633 26.188C55.473 26.188 56.215 26.335 56.859 26.629C57.503 26.923 58.014 27.357 58.392 27.931C58.77 28.491 58.959 29.191 58.959 30.031C58.959 31.291 58.483 32.271 57.531 32.971C56.593 33.657 55.193 34 53.331 34H46.317ZM48.417 32.299H53.247C54.409 32.299 55.298 32.103 55.914 31.711C56.53 31.319 56.838 30.703 56.838 29.863C56.838 29.009 56.53 28.386 55.914 27.994C55.298 27.602 54.409 27.406 53.247 27.406H48.228V25.705H52.722C53.786 25.705 54.612 25.509 55.2 25.117C55.788 24.725 56.082 24.137 56.082 23.353C56.082 22.569 55.788 21.981 55.2 21.589C54.612 21.197 53.786 21.001 52.722 21.001H48.417V32.299Z" fill="white"/>
</g>
<path d="M72.4264 6.94187C72.1449 6.65902 71.7623 6.5 71.3632 6.5H4.81225C3.47761 6.5 2.80758 8.11216 3.74907 9.05814L40.5736 46.0581C40.8551 46.341 41.2377 46.5 41.6368 46.5H108.188C109.522 46.5 110.192 44.8878 109.251 43.9419L72.4264 6.94187Z" stroke="white" stroke-opacity="0.3"/>
<defs>
<filter id="filter0_d_109_233" x="2.31689" y="19.3" width="100.642" height="132.7" filterUnits="userSpaceOnUse" color-interpolation-filters="sRGB">
<feFlood flood-opacity="0" result="BackgroundImageFix"/>
<feColorMatrix in="SourceAlpha" type="matrix" values="0 0 0 0 0 0 0 0 0 0 0 0 0 0 0 0 0 0 127 0" result="hardAlpha"/>
<feOffset dy="74"/>
<feGaussianBlur stdDeviation="22"/>
<feComposite in2="hardAlpha" operator="out"/>
<feColorMatrix type="matrix" values="0 0 0 0 0 0 0 0 0 0 0 0 0 0 0 0 0 0 0.4 0"/>
<feBlend mode="normal" in2="BackgroundImageFix" result="effect1_dropShadow_109_233"/>
<feBlend mode="normal" in="SourceGraphic" in2="effect1_dropShadow_109_233" result="shape"/>
</filter>
</defs>
</svg>
