<svg width="79" height="79" viewBox="0 0 79 79" fill="none" xmlns="http://www.w3.org/2000/svg">
<path d="M40.1714 58.8167C37.594 58.9454 35.0166 58.5651 32.5862 57.6977C30.1557 56.8303 27.92 55.4927 26.0065 53.7612C24.093 52.0297 22.5394 49.9383 21.4341 47.6064C20.3289 45.2745 19.6939 42.7477 19.5652 40.1704C19.4365 37.593 19.8167 35.0155 20.6841 32.5851C21.5515 30.1547 22.8892 27.9189 24.6206 26.0055C26.3521 24.092 28.4435 22.5383 30.7754 21.4331C33.1073 20.3279 35.6341 19.6928 38.2115 19.5641C40.7888 19.4354 43.3663 19.8157 45.7967 20.6831C48.2271 21.5505 50.4629 22.8881 52.3764 24.6196C54.2898 26.3511 55.8435 28.4425 56.9487 30.7744C58.0539 33.1063 58.689 35.6331 58.8177 38.2104C58.9464 40.7878 58.5662 43.3653 57.6988 45.7957C56.8313 48.2261 55.4937 50.4619 53.7622 52.3753C52.0308 54.2888 49.9394 55.8425 47.6075 56.9477C45.2755 58.0529 42.7488 58.688 40.1714 58.8167L40.1714 58.8167Z" stroke="white" stroke-width="2"/>
<path opacity="0.3" d="M44.9956 60.8517C45.1386 61.3851 45.6877 61.7038 46.2146 61.5382C50.8002 60.0972 54.8403 57.277 57.7762 53.4508C60.9155 49.3596 62.6171 44.347 62.6171 39.1902C62.6171 34.0334 60.9155 29.0207 57.7762 24.9296C54.8403 21.1033 50.8002 18.2831 46.2146 16.8421C45.6877 16.6766 45.1386 16.9952 44.9956 17.5287L44.7619 18.4009C44.619 18.9344 44.9366 19.4803 45.4624 19.6491C49.431 20.9226 52.9263 23.3776 55.4732 26.6968C58.2234 30.2809 59.7141 34.6724 59.7141 39.1902C59.7141 43.7079 58.2234 48.0994 55.4732 51.6836C52.9263 55.0027 49.431 57.4578 45.4624 58.7313C44.9366 58.9 44.619 59.446 44.7619 59.9795L44.9956 60.8517Z" fill="#D9D9D9"/>
<path opacity="0.3" d="M33.3877 17.5303C33.2447 16.9969 32.6956 16.6782 32.1687 16.8438C27.5831 18.2848 23.543 21.105 20.6071 24.9312C17.6711 28.7574 15.9926 33.3897 15.7876 38.1921C15.764 38.7439 16.214 39.1918 16.7663 39.1918L17.6692 39.1918C18.2215 39.1918 18.6667 38.7438 18.6936 38.1921C18.8965 34.0291 20.3633 30.0176 22.9102 26.6984C25.457 23.3792 28.9523 20.9242 32.9209 19.6507C33.4468 19.482 33.7643 18.936 33.6214 18.4025L33.3877 17.5303Z" fill="#D9D9D9"/>
<path opacity="0.3" d="M19.7708 50.4047C19.2925 50.6808 19.1269 51.2938 19.4232 51.7599C22.3855 56.4199 26.9007 59.8846 32.1687 61.5399C32.6956 61.7055 33.2448 61.3868 33.3878 60.8534L33.6215 59.9812C33.7644 59.4477 33.4469 58.9017 32.921 58.733C28.3958 57.281 24.5134 54.302 21.9397 50.3068C21.6406 49.8425 21.0311 49.6771 20.5528 49.9532L19.7708 50.4047Z" fill="#D9D9D9"/>
<path fill-rule="evenodd" clip-rule="evenodd" d="M47.4068 41.97C47.4097 42.5511 47.6652 43.1023 48.1068 43.48C49.6168 44.83 48.5468 47.14 46.4068 47.14H42.6068C42.1143 48.4844 40.8385 49.3814 39.4068 49.39C37.9704 49.3962 36.687 48.4938 36.2068 47.14H32.4068C30.2668 47.14 29.1968 44.83 30.7068 43.48C31.1484 43.1023 31.4039 42.5511 31.4068 41.97V37.14C31.4068 33.2 34.9868 30 39.4068 30C43.8268 30 47.4068 33.2 47.4068 37.14V41.97ZM37.8868 47.14C38.2507 47.611 38.8116 47.8878 39.4068 47.89C39.9879 47.8756 40.5316 47.6001 40.8868 47.14H37.8868Z" fill="#E52106"/>
</svg>
