<svg width="214" height="39" viewBox="0 0 214 39" fill="none" xmlns="http://www.w3.org/2000/svg">
<path d="M54.5999 16.0565H56.3455V18.3344C57.0567 16.368 58.2049 15.8775 62.0935 15.8775C65.3615 15.8775 66.6144 16.4679 67.2071 18.3344C67.9694 16.4191 69.3687 15.8775 73.5223 15.8775C77.8967 15.8775 79.1495 16.8607 79.1495 20.3496V27.6712H77.4039V20.4263C77.4039 17.9694 76.5439 17.3535 73.0551 17.3535C69.2711 17.3535 67.7486 18.3622 67.7486 20.84V27.6782H66.0007V20.4263C66.0007 17.9694 65.1407 17.3535 61.6519 17.3535C57.8423 17.3535 56.3455 18.3367 56.3455 20.84V27.6782H54.5999V16.0565Z" fill="white"/>
<path d="M96.4448 17.0397C97.4512 17.9485 97.8696 19.3501 97.8696 21.9533C97.8696 24.3869 97.4256 25.8117 96.4448 26.695C95.4639 27.5782 93.8648 27.8572 90.3016 27.8572C86.7384 27.8572 85.1648 27.562 84.1816 26.695C83.1984 25.828 82.7568 24.3869 82.7568 21.8557C82.7568 19.3245 83.1752 17.9229 84.1816 17.0397C85.1415 16.1797 86.7616 15.8775 90.3016 15.8775C93.8415 15.8775 95.4616 16.1797 96.4448 17.0397ZM85.3135 18.3901C84.8208 19.0061 84.6 20.1101 84.6 21.8557C84.6 23.8221 84.8696 24.9517 85.5088 25.5398C86.148 26.1278 87.4008 26.3766 90.3248 26.3766C93.4952 26.3766 94.6736 26.1302 95.3128 25.3445C95.7777 24.7309 96.0264 23.6245 96.0264 21.9301C96.0264 19.9149 95.7568 18.8085 95.1176 18.1949C94.4784 17.5813 93.2256 17.3581 90.3504 17.3581C87.1312 17.3581 85.9527 17.6045 85.3135 18.3901Z" fill="white"/>
<path d="M101.456 16.0565H103.199V18.3669C103.962 16.2541 105.191 15.7381 109.417 15.7381C111.923 15.7381 113.201 15.9821 114.135 16.6957C115.07 17.4093 115.437 18.4157 115.437 20.3565V27.6782H113.691V20.4541C113.691 17.9485 112.831 17.3837 108.924 17.3837C104.74 17.3837 103.199 18.3134 103.199 20.847V27.6782H101.456V16.0565Z" fill="white"/>
<path d="M119.367 11.1429H121.111V20.7261H122.12L129.441 16.0565H132.365L123.888 21.4629L133.186 27.6782H130.292L122.11 22.1997H121.111V27.6782H119.367V11.1429Z" fill="white"/>
<path d="M135.928 16.0565L141.897 26.4695L147.868 16.0519H149.835L143.152 27.6735H140.621L133.936 16.0519L135.928 16.0565Z" fill="white"/>
<path d="M152.168 11.1429H153.912V13.2789H152.168V11.1429ZM152.168 16.0565H153.912V27.6782H152.168V16.0565Z" fill="white"/>
<path d="M169.784 19.0782C169.784 17.6533 168.999 17.3582 164.968 17.3582C160.201 17.3582 159.367 17.6533 159.367 19.3245C159.367 20.0869 159.613 20.503 160.178 20.7191C160.643 20.9144 161.382 20.94 164.65 20.9516C169.024 20.9771 169.712 21.0515 170.67 21.542C171.579 22.0068 171.948 22.7715 171.948 24.294C171.948 25.9652 171.484 26.8507 170.349 27.3156C169.317 27.734 168.164 27.8316 164.601 27.8316C160.694 27.8316 159.464 27.6852 158.581 27.1204C157.651 26.5044 157.352 25.7932 157.352 24.0243V23.7292H159.146V24.0243C159.146 25.2028 159.244 25.5212 159.76 25.8164C160.399 26.2348 161.652 26.358 165.043 26.358C169.54 26.358 170.105 26.1255 170.105 24.3683C170.105 23.5083 169.933 23.09 169.489 22.8436C168.852 22.4996 168.778 22.4763 164.552 22.4508C159.588 22.402 159.464 22.402 158.604 21.8604C157.868 21.4188 157.524 20.5843 157.524 19.3036C157.524 17.9276 157.968 16.9793 158.851 16.5516C159.857 16.0356 161.233 15.8543 164.38 15.8543C168.408 15.8543 169.638 16.0263 170.596 16.7143C171.26 17.1792 171.525 17.9183 171.525 19.1223V19.3199H169.78L169.784 19.0782Z" fill="white"/>
<path d="M175.384 11.1429H177.13V13.2789H175.384V11.1429ZM175.384 16.0565H177.13V27.6782H175.384V16.0565Z" fill="white"/>
<path d="M194.429 17.0397C195.436 17.9485 195.854 19.3501 195.854 21.9533C195.854 24.3869 195.413 25.8117 194.429 26.695C193.446 27.5782 191.849 27.8572 188.286 27.8572C184.723 27.8572 183.152 27.562 182.169 26.695C181.185 25.828 180.744 24.3869 180.744 21.8557C180.744 19.3245 181.16 17.9229 182.169 17.0397C183.126 16.1797 184.749 15.8775 188.286 15.8775C191.824 15.8775 193.446 16.1797 194.429 17.0397ZM183.298 18.3901C182.808 19.0061 182.585 20.1101 182.585 21.8557C182.585 23.8221 182.857 24.9517 183.496 25.5398C184.135 26.1278 185.388 26.3766 188.31 26.3766C191.48 26.3766 192.661 26.1302 193.298 25.3445C193.762 24.7309 194.011 23.6245 194.011 21.9301C194.011 19.9149 193.741 18.8085 193.102 18.1949C192.463 17.5813 191.21 17.3581 188.335 17.3581C185.116 17.3581 183.937 17.6045 183.298 18.3901Z" fill="white"/>
<path d="M199.441 16.0565H201.184V18.3669C201.944 16.2541 203.174 15.7381 207.399 15.7381C209.905 15.7381 211.183 15.9821 212.118 16.6957C213.052 17.4093 213.419 18.4157 213.419 20.3565V27.6782H211.674V20.4541C211.674 17.9485 210.816 17.3837 206.909 17.3837C202.725 17.3837 201.184 18.3134 201.184 20.847V27.6782H199.441V16.0565Z" fill="white"/>
<path d="M42.1386 20.5712C42.1265 20.521 42.1143 20.4709 42.0976 20.4192L42.0748 20.3448C42.0672 20.3205 42.0581 20.2946 42.052 20.2779L41.9685 20.0576C41.7442 19.5047 41.4864 18.9658 41.1967 18.4442C40.9232 17.9382 40.6346 17.4521 40.3535 16.972C40.0724 16.4919 39.7929 16.0194 39.5437 15.556C39.4237 15.3251 39.3037 15.1002 39.2125 14.8799L39.1457 14.728L39.0955 14.5852C39.0788 14.5378 39.0646 14.4897 39.053 14.4409C39.0393 14.3922 39.0287 14.3375 39.015 14.2889C38.9266 13.7923 38.8713 13.2903 38.8494 12.7864C38.816 12.2455 38.7932 11.6818 38.7446 11.0969C38.7047 10.4706 38.6029 9.84968 38.4407 9.24339C38.3387 8.87958 38.1852 8.53221 37.9849 8.2118L37.9424 8.14647L37.9211 8.11304L37.9044 8.09025L37.8391 8.00062L37.7084 7.82134L37.4456 7.46431L37.3149 7.28504C37.2709 7.22578 37.2207 7.17109 37.1751 7.11336L36.891 6.77152L36.6069 6.4312L36.3031 6.10607C35.9065 5.66548 35.472 5.26287 35.0375 4.86178L34.3584 4.28901L34.2733 4.21761L34.1852 4.15076L34.0074 4.01858L33.6504 3.75271C31.7258 2.35238 29.5376 1.35599 27.2178 0.82353C26.0621 0.551314 24.8815 0.398584 23.6946 0.367745C20.113 0.246585 16.5796 1.22017 13.5655 3.15867C12.661 3.7405 11.8099 4.40144 11.0222 5.13373C11.0104 6.65063 10.4114 8.10398 9.35101 9.1887L9.66247 9.84503C9.80933 9.62321 9.96126 9.40595 10.1183 9.19325C11.987 6.65212 14.5538 4.70868 17.5065 3.59926C19.4614 2.8741 21.5394 2.53862 23.6232 2.61172C24.6615 2.63753 25.6945 2.76989 26.7058 3.00674C27.7177 3.24097 28.705 3.57061 29.6547 3.99123C30.5992 4.42593 31.5018 4.94618 32.3514 5.54546L32.6674 5.77639L32.8194 5.89034L32.8984 5.94807L32.9728 6.00884L33.5805 6.50564C33.9649 6.85508 34.3538 7.20299 34.7048 7.58737L34.9767 7.86844L35.2305 8.1723L35.4842 8.47615C35.5252 8.52629 35.5708 8.57339 35.6088 8.62808L35.7258 8.78001L35.9643 9.08387L36.0828 9.23579L36.142 9.31328L36.1572 9.33303V9.34366L36.1709 9.36493C36.2154 9.43189 36.254 9.50254 36.2864 9.57611C36.3263 9.66683 36.3613 9.75964 36.3912 9.85414C36.5238 10.3207 36.6108 10.7989 36.651 11.2823C36.7057 11.8049 36.7391 12.3534 36.7862 12.9216C36.8236 13.5291 36.9069 14.133 37.0354 14.728C37.0566 14.81 37.0779 14.8921 37.1022 14.9756C37.1265 15.0592 37.1524 15.1458 37.1858 15.2294L37.2815 15.4785L37.3818 15.7003C37.5185 15.9951 37.6628 16.2549 37.8087 16.5132C38.1004 17.0221 38.3997 17.4976 38.6944 17.9701C38.9892 18.4426 39.2794 18.9075 39.5528 19.3679C39.8195 19.8091 40.06 20.2657 40.273 20.7352L40.3429 20.9024C40.3476 20.9122 40.3516 20.9224 40.355 20.9327L40.3641 20.9586C40.3713 20.9752 40.3769 20.9925 40.3808 21.0102C40.4012 21.079 40.4139 21.1498 40.4188 21.2214C40.4266 21.3648 40.4022 21.508 40.3474 21.6407C40.3188 21.7059 40.2836 21.768 40.2426 21.8261L40.2092 21.8717L40.1529 21.9355C40.115 21.978 40.0785 22.0206 40.036 22.0631C39.8638 22.2437 39.6822 22.4151 39.492 22.5766C39.0986 22.9184 38.6565 23.2557 38.2083 23.6401C37.9849 23.8315 37.7601 24.0336 37.5398 24.263C37.4851 24.3177 37.4304 24.3785 37.3772 24.4377L37.2967 24.5289C37.2633 24.5684 37.2283 24.6094 37.1979 24.652C37.0716 24.8203 36.9694 25.0054 36.8941 25.2019C36.8162 25.3967 36.7651 25.6011 36.7422 25.8096C36.7422 25.8613 36.733 25.913 36.7315 25.9616C36.7315 25.9874 36.7315 26.0132 36.7315 26.0391V26.1089V26.3171L36.7528 27.1527L36.8409 30.4951V30.7488C36.8409 30.7762 36.8409 30.802 36.8333 30.8294C36.8333 30.8825 36.8242 30.9372 36.8136 30.9904L36.7817 31.1423C36.7274 31.3553 36.6441 31.5598 36.534 31.75C36.4202 31.9396 36.2795 32.1115 36.1162 32.2605C36.0737 32.2955 36.0357 32.3365 35.9901 32.3684L35.8564 32.4671C35.7632 32.5291 35.6657 32.5844 35.5647 32.6327C35.362 32.7338 35.1446 32.802 34.9205 32.8348L34.8355 32.85L34.7367 32.8591L34.5392 32.8804C34.407 32.8895 34.2733 32.9001 34.1396 32.9077C33.6048 32.9366 33.0625 32.9305 32.5201 32.9077C30.3235 32.7883 28.1531 32.3728 26.0677 31.6726C25.0254 31.314 23.9999 30.8749 23.0944 30.2232C23.51 30.599 23.9637 30.9305 24.4481 31.2122C24.9317 31.4981 25.4308 31.7567 25.9431 31.987C26.9742 32.4432 28.0388 32.8195 29.1275 33.1128C30.2181 33.4162 31.3297 33.6382 32.4532 33.7768C33.0219 33.8477 33.594 33.8872 34.167 33.8953C34.3113 33.8953 34.4556 33.8953 34.6015 33.8953H34.8203H34.9297C34.9676 33.8953 35.0102 33.8877 35.0512 33.8846C35.3811 33.857 35.7049 33.7791 36.0114 33.6537C36.1682 33.592 36.3205 33.5194 36.4672 33.4364L36.6768 33.2997C36.7467 33.2556 36.8105 33.1994 36.8774 33.1478C37.1385 32.9362 37.3677 32.688 37.558 32.4109C37.7459 32.1289 37.8937 31.8221 37.9971 31.4994L38.0639 31.2517C38.0852 31.1697 38.0958 31.0846 38.111 31.001C38.111 30.96 38.1247 30.9175 38.1308 30.8749L38.1399 30.7473L38.149 30.6197V30.5559V30.5027L38.2356 27.1603L38.2569 26.3247V26.1165V26.0831C38.2561 26.074 38.2561 26.0649 38.2569 26.0558C38.2569 26.0375 38.2569 26.0193 38.2569 26.0011C38.2689 25.9308 38.2898 25.8624 38.3192 25.7975C38.3469 25.7352 38.3838 25.6773 38.4286 25.6258C38.4388 25.6124 38.45 25.5997 38.462 25.5878L38.5228 25.5255C38.5638 25.483 38.6033 25.442 38.6488 25.401C38.822 25.2354 39.018 25.0728 39.2247 24.9117C39.6379 24.5881 40.0952 24.2691 40.5586 23.9029C40.8009 23.7126 41.0332 23.5098 41.2544 23.2952C41.3106 23.2405 41.3684 23.1813 41.4246 23.1205L41.5081 23.0309C41.54 22.9959 41.575 22.9534 41.6069 22.9139C41.8639 22.5882 42.0434 22.2083 42.1318 21.8029C42.2203 21.3975 42.2153 20.9774 42.1174 20.5742L42.1386 20.5712Z" fill="white"/>
<path d="M13.4469 32.2483C13.287 31.9875 13.0934 31.749 12.8711 31.5388L12.2528 30.9767L12.1008 30.8385L11.958 30.6941L11.6709 30.4039L11.5281 30.252L11.4567 30.1806L11.3898 30.1031L11.1194 29.7993C10.4067 28.989 9.77234 28.113 9.22483 27.1831L9.02732 26.8306L8.92705 26.6559C8.89666 26.6012 8.86628 26.5465 8.83893 26.4903C9.05273 27.0511 9.16189 27.6464 9.16102 28.2466C9.16021 28.4635 9.1455 28.6802 9.11696 28.8953C9.54225 29.4283 9.99884 29.9357 10.4843 30.4146L10.7882 30.7184L10.8641 30.7929L10.9447 30.8643L11.1057 31.0056L11.4263 31.2866L11.5873 31.4264L11.756 31.5586L12.4138 32.0721C12.6097 32.227 12.7839 32.4073 12.9319 32.6084C13.083 32.8118 13.2071 33.034 13.3011 33.2693C13.3953 33.5076 13.4596 33.7566 13.4925 34.0107C13.5107 34.1383 13.5153 34.266 13.5229 34.4088L13.5411 34.825L13.5776 35.6607L13.6611 37.3319L13.7022 38.1659L13.7477 39L13.7948 38.1659L13.8358 37.3319L13.9194 35.6607L13.9559 34.825L13.9741 34.4088C13.9741 34.3374 13.9741 34.272 13.9741 34.1961C13.9741 34.1201 13.9741 34.0441 13.9741 33.9712C13.9512 33.3608 13.7695 32.767 13.4469 32.2483Z" fill="white"/>
<path d="M25.4707 19.1111C24.6025 19.1116 23.7487 19.3325 22.9892 19.7532C22.2298 20.1738 21.5895 20.7804 21.1286 21.5161L16.2213 19.6626C16.2738 19.0257 16.1806 18.3852 15.9488 17.7897C15.7171 17.1941 15.3527 16.6592 14.8835 16.2254C14.4142 15.7915 13.8524 15.4702 13.2405 15.2858C12.6286 15.1014 11.9828 15.0587 11.352 15.161L8.43346 9.00786C9.3939 8.19958 10.0227 7.06567 10.1998 5.82292C10.3768 4.58016 10.0895 3.31577 9.39298 2.27146C8.69642 1.22716 7.63939 0.47623 6.424 0.162236C5.20861 -0.151757 3.92012 -0.00678379 2.80489 0.569445C1.68967 1.14567 0.825949 2.11273 0.378865 3.28571C-0.0682185 4.45869 -0.0672945 5.7553 0.381461 6.92764C0.830217 8.09998 1.69532 9.0658 2.81137 9.64044C3.92741 10.2151 5.2161 10.3582 6.43104 10.0425L9.30552 16.0984C8.52788 16.7604 8.01665 17.6819 7.86663 18.6921C7.7166 19.7023 7.93797 20.7326 8.48967 21.5921L5.92056 24.4195C4.9934 24.0041 3.94714 23.9386 2.97543 24.2352C2.00373 24.5319 1.17239 25.1705 0.635281 26.0328C0.0981726 26.8952 -0.108331 27.923 0.053996 28.9259C0.216323 29.9288 0.736485 30.839 1.51821 31.4879C2.29993 32.1368 3.29027 32.4806 4.30593 32.4555C5.32159 32.4305 6.29379 32.0383 7.04258 31.3517C7.79137 30.665 8.26604 29.7303 8.37874 28.7206C8.49144 27.7109 8.23454 26.6946 7.65559 25.8597L10.1715 23.0901C10.7423 23.3731 11.3712 23.5193 12.0083 23.517C12.3826 23.5151 12.755 23.464 13.1159 23.3651C14.0527 23.119 14.8746 22.5544 15.4404 21.7683L20.3781 23.6355C20.2554 24.6685 20.4498 25.7145 20.9354 26.6345C21.421 27.5544 22.1749 28.305 23.097 28.7866C24.0191 29.2682 25.0659 29.458 26.0984 29.3308C27.1309 29.2036 28.1003 28.7655 28.878 28.0746C29.6557 27.3837 30.2049 26.4726 30.4528 25.4623C30.7006 24.4519 30.6354 23.3901 30.2658 22.4177C29.8961 21.4453 29.2396 20.6083 28.3831 20.0177C27.5267 19.4271 26.511 19.1109 25.4707 19.1111ZM2.26669 5.07748C2.26639 4.50829 2.4349 3.9518 2.7509 3.4784C3.06691 3.00499 3.51621 2.63594 4.04198 2.41791C4.56775 2.19989 5.14637 2.14268 5.70466 2.25354C6.26294 2.3644 6.77581 2.63834 7.17839 3.0407C7.58097 3.44307 7.85518 3.95579 7.96633 4.51402C8.07748 5.07224 8.02058 5.6509 7.80284 6.17679C7.58509 6.70267 7.21627 7.15217 6.74303 7.46842C6.2698 7.78468 5.7134 7.95348 5.14421 7.95348C4.38205 7.95107 3.65176 7.64734 3.11269 7.10855C2.57361 6.56976 2.2695 5.83964 2.26669 5.07748ZM4.21137 30.1851C3.82752 30.1854 3.45221 30.0719 3.13293 29.8588C2.81364 29.6457 2.56473 29.3427 2.4177 28.9882C2.27067 28.6336 2.23212 28.2434 2.30693 27.8669C2.38174 27.4904 2.56655 27.1446 2.83798 26.8731C3.1094 26.6017 3.45524 26.4169 3.83173 26.3421C4.20822 26.2673 4.59844 26.3058 4.95301 26.4529C5.30758 26.5999 5.61057 26.8488 5.82364 27.1681C6.03671 27.4874 6.15028 27.8627 6.14998 28.2465C6.14917 28.7604 5.94467 29.2531 5.58128 29.6164C5.2179 29.9798 4.72527 30.1843 4.21137 30.1851ZM13.9135 19.8176C13.8245 20.1487 13.6499 20.4505 13.4073 20.6928C13.1646 20.9351 12.8625 21.1092 12.5313 21.1978C12.2001 21.2863 11.8513 21.2862 11.5202 21.1973C11.189 21.1084 10.8871 20.9339 10.6447 20.6914C10.4024 20.4489 10.2281 20.1468 10.1394 19.8156C10.0507 19.4844 10.0508 19.1357 10.1395 18.8045C10.2283 18.4733 10.4026 18.1713 10.6451 17.9288C10.8875 17.6864 11.1895 17.512 11.5206 17.4232C11.8521 17.3343 12.2011 17.3343 12.5325 17.4231C12.8639 17.5119 13.1661 17.6865 13.4087 17.9292C13.6513 18.1719 13.8256 18.4742 13.9142 18.8057C14.0028 19.1372 14.0026 19.4862 13.9135 19.8176ZM25.4692 27.1192C24.9 27.1192 24.3436 26.9504 23.8703 26.6342C23.3971 26.3179 23.0283 25.8684 22.8105 25.3425C22.5928 24.8166 22.5359 24.238 22.6471 23.6798C22.7582 23.1215 23.0324 22.6088 23.435 22.2065C23.8376 21.8041 24.3504 21.5301 24.9087 21.4193C25.467 21.3084 26.0456 21.3656 26.5714 21.5837C27.0972 21.8017 27.5465 22.1707 27.8625 22.6441C28.1785 23.1176 28.347 23.674 28.3467 24.2432C28.3459 25.0057 28.0426 25.7368 27.5034 26.276C26.9643 26.8152 26.2332 27.1184 25.4707 27.1192H25.4692Z" fill="white"/>
</svg>
