<svg width="702" height="648" viewBox="0 0 702 648" fill="none" xmlns="http://www.w3.org/2000/svg">
<g opacity="0.03" filter="url(#filter0_d_7_233)">
<path d="M633.248 334.059C633.085 333.401 632.922 332.743 632.698 332.065L632.392 331.088C632.29 330.768 632.168 330.429 632.087 330.21L630.966 327.318C627.957 320.058 624.5 312.985 620.613 306.136C616.945 299.494 613.072 293.112 609.302 286.809C605.532 280.507 601.782 274.304 598.44 268.22C596.83 265.189 595.22 262.237 593.997 259.345L593.1 257.35L592.428 255.475C592.204 254.854 592.014 254.221 591.857 253.58C591.674 252.942 591.531 252.224 591.348 251.586C590.163 245.066 589.42 238.476 589.126 231.86C588.678 224.76 588.372 217.36 587.72 209.681C587.186 201.458 585.82 193.307 583.644 185.348C582.275 180.572 580.217 176.011 577.53 171.805L576.96 170.947L576.674 170.509L576.45 170.209L575.574 169.033L573.821 166.679L570.296 161.992L568.543 159.638C567.952 158.861 567.279 158.142 566.668 157.385L562.857 152.897L559.046 148.429L554.97 144.161C549.651 138.377 543.822 133.091 537.994 127.826L528.884 120.306L527.743 119.369L526.561 118.491L524.176 116.756L519.387 113.266C493.57 94.8821 464.218 81.8015 433.1 74.8113C417.597 71.2377 401.761 69.2326 385.839 68.8278C337.796 67.2372 290.399 80.0184 249.968 105.467C237.835 113.105 226.418 121.782 215.853 131.396C215.694 151.31 207.66 170.389 193.435 184.63L197.613 193.246C199.583 190.334 201.621 187.482 203.727 184.69C228.794 151.329 263.225 125.816 302.833 111.251C329.056 101.731 356.93 97.3271 384.881 98.2868C398.81 98.6256 412.666 100.363 426.232 103.473C439.805 106.548 453.05 110.875 465.789 116.397C478.458 122.104 490.566 128.934 501.963 136.801L506.201 139.833L508.239 141.329L509.299 142.087L510.298 142.884L518.45 149.406C523.606 153.994 528.823 158.561 533.531 163.607L537.179 167.297L540.582 171.286L543.985 175.275C544.536 175.934 545.147 176.552 545.656 177.27L547.226 179.264L550.425 183.254L552.015 185.248L552.81 186.265L553.014 186.525V186.664L553.197 186.943C553.793 187.822 554.312 188.75 554.746 189.716C555.281 190.907 555.751 192.125 556.152 193.366C557.93 199.49 559.098 205.769 559.637 212.114C560.371 218.975 560.819 226.176 561.451 233.635C561.953 241.611 563.07 249.539 564.793 257.35C565.078 258.427 565.364 259.504 565.69 260.601C566.016 261.698 566.362 262.835 566.811 263.932L568.094 267.203L569.44 270.115C571.274 273.984 573.21 277.395 575.166 280.786C579.079 287.467 583.094 293.71 587.048 299.913C591.001 306.116 594.894 312.219 598.562 318.263C602.139 324.056 605.365 330.05 608.222 336.214L609.159 338.408C609.223 338.537 609.277 338.67 609.323 338.806L609.445 339.146C609.541 339.364 609.616 339.591 609.669 339.824C609.942 340.727 610.113 341.656 610.178 342.596C610.283 344.478 609.956 346.359 609.221 348.101C608.836 348.956 608.365 349.771 607.814 350.534L607.366 351.133L606.612 351.97C606.103 352.529 605.613 353.087 605.043 353.646C602.733 356.016 600.297 358.266 597.747 360.387C592.468 364.875 586.538 369.303 580.526 374.349C577.53 376.862 574.514 379.515 571.559 382.526C570.825 383.244 570.092 384.042 569.378 384.82L568.298 386.017C567.85 386.535 567.381 387.074 566.974 387.632C565.279 389.842 563.908 392.272 562.898 394.853C561.853 397.409 561.167 400.093 560.86 402.831C560.86 403.509 560.737 404.187 560.717 404.825C560.717 405.164 560.717 405.503 560.717 405.842V406.76V409.492L561.002 420.462L562.184 464.342V467.673C562.184 468.032 562.184 468.371 562.082 468.73C562.082 469.428 561.96 470.146 561.818 470.844L561.39 472.838C560.662 475.634 559.544 478.319 558.068 480.816C556.542 483.305 554.654 485.562 552.463 487.518C551.893 487.977 551.383 488.515 550.772 488.934L548.978 490.231C547.727 491.044 546.42 491.77 545.065 492.405C542.347 493.731 539.43 494.627 536.425 495.057L535.283 495.257L533.959 495.376L531.309 495.656C529.536 495.775 527.743 495.915 525.949 496.015C518.776 496.394 511.5 496.314 504.225 496.015C474.76 494.447 445.646 488.992 417.672 479.799C403.692 475.092 389.936 469.328 377.789 460.772C383.364 465.706 389.45 470.058 395.948 473.756C402.434 477.508 409.129 480.904 416.001 483.928C429.833 489.916 444.113 494.857 458.717 498.707C473.346 502.69 488.258 505.604 503.328 507.423C510.956 508.354 518.63 508.873 526.316 508.979C528.252 508.979 530.188 508.979 532.145 508.979H535.079H536.547C537.056 508.979 537.627 508.879 538.177 508.84C542.603 508.477 546.947 507.455 551.057 505.808C553.161 504.998 555.204 504.045 557.171 502.956L559.983 501.161C560.921 500.582 561.777 499.844 562.674 499.166C566.176 496.388 569.251 493.13 571.804 489.493C574.324 485.79 576.306 481.762 577.693 477.526L578.59 474.274C578.875 473.197 579.018 472.08 579.222 470.983C579.222 470.445 579.405 469.886 579.487 469.328L579.609 467.653L579.731 465.977V465.14V464.441L580.893 420.562L581.178 409.592V406.86V406.421C581.168 406.301 581.168 406.181 581.178 406.062C581.178 405.822 581.178 405.583 581.178 405.344C581.339 404.422 581.62 403.523 582.014 402.671C582.386 401.853 582.881 401.093 583.481 400.417C583.619 400.241 583.769 400.075 583.929 399.919L584.745 399.101C585.295 398.542 585.825 398.004 586.436 397.465C588.759 395.291 591.388 393.157 594.16 391.043C599.703 386.795 605.838 382.606 612.053 377.799C615.304 375.301 618.42 372.638 621.387 369.821C622.141 369.103 622.916 368.325 623.67 367.528L624.791 366.351C625.219 365.892 625.687 365.334 626.115 364.815C629.563 360.539 631.971 355.551 633.157 350.23C634.343 344.908 634.277 339.392 632.963 334.099L633.248 334.059Z" fill="white"/>
<path d="M248.377 487.359C246.232 483.935 243.635 480.803 240.653 478.044L232.358 470.665L230.321 468.849L228.405 466.955L224.553 463.145L222.637 461.151L221.68 460.213L220.783 459.196L217.155 455.207C207.595 444.569 199.086 433.069 191.742 420.861L189.093 416.234L187.747 413.94C187.34 413.222 186.932 412.504 186.565 411.766C189.433 419.129 190.898 426.944 190.886 434.823C190.875 437.671 190.678 440.516 190.295 443.34C196 450.338 202.124 456.998 208.637 463.285L212.713 467.274L213.732 468.251L214.812 469.189L216.972 471.043L221.272 474.733L223.432 476.568L225.694 478.303L234.519 485.045C237.146 487.078 239.483 489.446 241.468 492.086C243.495 494.756 245.159 497.673 246.42 500.762C247.685 503.89 248.547 507.159 248.988 510.495C249.233 512.171 249.294 513.846 249.396 515.721L249.64 521.186L250.13 532.156L251.25 554.095L251.801 565.045L252.412 575.995L253.044 565.045L253.594 554.095L254.715 532.156L255.204 521.186L255.449 515.721C255.449 514.783 255.449 513.926 255.449 512.928C255.449 511.931 255.449 510.934 255.449 509.977C255.142 501.964 252.704 494.168 248.377 487.359Z" fill="white"/>
<path d="M409.664 314.892C398.018 314.898 386.565 317.799 376.377 323.321C366.19 328.843 357.602 336.807 351.419 346.465L285.592 322.132C286.297 313.77 285.047 305.362 281.938 297.544C278.829 289.726 273.941 282.703 267.647 277.007C261.352 271.312 253.816 267.094 245.608 264.673C237.401 262.252 228.738 261.692 220.276 263.034L181.126 182.256C194.01 171.645 202.445 156.759 204.82 140.444C207.194 124.129 203.341 107.53 193.997 93.8199C184.654 80.1103 170.475 70.252 154.171 66.1298C137.868 62.0077 120.584 63.9109 105.625 71.4757C90.6652 79.0405 79.0793 91.736 73.0821 107.135C67.0849 122.534 67.0973 139.556 73.1169 154.947C79.1365 170.337 90.741 183.016 105.712 190.56C120.682 198.104 137.969 199.983 154.266 195.838L192.824 275.34C182.393 284.031 175.535 296.129 173.523 309.391C171.51 322.653 174.48 336.179 181.88 347.462L147.418 384.58C134.981 379.127 120.947 378.268 107.912 382.162C94.878 386.056 83.7264 394.439 76.5217 405.761C69.3169 417.082 66.5469 430.575 68.7243 443.741C70.9018 456.907 77.8792 468.856 88.3652 477.375C98.8512 485.894 112.136 490.407 125.76 490.078C139.384 489.75 152.425 484.601 162.469 475.587C172.513 466.572 178.881 454.302 180.392 441.046C181.904 427.791 178.458 414.448 170.692 403.488L204.441 367.128C212.098 370.844 220.533 372.763 229.08 372.733C234.1 372.708 239.095 372.037 243.936 370.738C256.503 367.508 267.527 360.096 275.117 349.776L341.351 374.288C339.706 387.85 342.313 401.581 348.827 413.659C355.341 425.737 365.454 435.59 377.823 441.912C390.192 448.235 404.234 450.726 418.083 449.057C431.933 447.387 444.937 441.636 455.369 432.565C465.801 423.495 473.168 411.534 476.493 398.27C479.818 385.006 478.943 371.067 473.985 358.301C469.027 345.535 460.219 334.547 448.731 326.794C437.243 319.041 423.618 314.89 409.664 314.892ZM98.4054 130.657C98.4014 123.185 100.662 115.88 104.901 109.665C109.139 103.45 115.166 98.6048 122.219 95.7425C129.272 92.8803 137.033 92.1293 144.522 93.5846C152.011 95.04 158.891 98.6362 164.291 103.919C169.691 109.201 173.369 115.932 174.86 123.26C176.351 130.589 175.588 138.185 172.667 145.089C169.746 151.993 164.799 157.894 158.451 162.046C152.103 166.198 144.639 168.414 137.004 168.414C126.781 168.382 116.985 164.395 109.754 157.322C102.522 150.248 98.443 140.663 98.4054 130.657ZM124.491 460.272C119.342 460.276 114.308 458.785 110.025 455.988C105.742 453.191 102.403 449.213 100.431 444.558C98.4588 439.904 97.9417 434.781 98.9452 429.838C99.9487 424.896 102.428 420.355 106.069 416.792C109.709 413.229 114.349 410.803 119.399 409.821C124.449 408.839 129.683 409.345 134.44 411.275C139.196 413.205 143.26 416.473 146.118 420.664C148.976 424.856 150.5 429.783 150.496 434.822C150.485 441.569 147.742 448.036 142.867 452.807C137.993 457.577 131.385 460.262 124.491 460.272ZM254.636 324.166C253.442 328.513 251.1 332.476 247.845 335.657C244.591 338.837 240.538 341.124 236.095 342.286C231.651 343.448 226.974 343.446 222.532 342.279C218.09 341.112 214.04 338.822 210.788 335.638C207.537 332.454 205.199 328.489 204.01 324.141C202.82 319.792 202.821 315.214 204.011 310.867C205.202 306.519 207.541 302.554 210.793 299.371C214.045 296.188 218.095 293.898 222.538 292.732C226.984 291.566 231.665 291.565 236.111 292.731C240.557 293.898 244.611 296.189 247.864 299.375C251.118 302.562 253.457 306.53 254.645 310.882C255.834 315.234 255.831 319.816 254.636 324.166ZM409.643 420.023C402.008 420.023 394.545 417.807 388.197 413.655C381.849 409.503 376.901 403.602 373.981 396.698C371.06 389.794 370.296 382.198 371.787 374.87C373.278 367.541 376.957 360.81 382.357 355.528C387.757 350.245 394.637 346.649 402.126 345.194C409.614 343.738 417.376 344.489 424.429 347.352C431.481 350.214 437.508 355.059 441.747 361.274C445.986 367.489 448.246 374.794 448.242 382.267C448.232 392.277 444.164 401.874 436.931 408.953C429.698 416.031 419.892 420.012 409.664 420.023H409.643Z" fill="white"/>
</g>
<defs>
<filter id="filter0_d_7_233" x="0" y="0" width="702" height="647.995" filterUnits="userSpaceOnUse" color-interpolation-filters="sRGB">
<feFlood flood-opacity="0" result="BackgroundImageFix"/>
<feColorMatrix in="SourceAlpha" type="matrix" values="0 0 0 0 0 0 0 0 0 0 0 0 0 0 0 0 0 0 127 0" result="hardAlpha"/>
<feOffset dy="4"/>
<feGaussianBlur stdDeviation="34"/>
<feComposite in2="hardAlpha" operator="out"/>
<feColorMatrix type="matrix" values="0 0 0 0 0 0 0 0 0 0 0 0 0 0 0 0 0 0 0.3 0"/>
<feBlend mode="normal" in2="BackgroundImageFix" result="effect1_dropShadow_7_233"/>
<feBlend mode="normal" in="SourceGraphic" in2="effect1_dropShadow_7_233" result="shape"/>
</filter>
</defs>
</svg>
