<svg width="229" height="78" viewBox="0 0 229 78" fill="none" xmlns="http://www.w3.org/2000/svg">
<g opacity="0.3">
<mask id="path-1-inside-1_57_234" fill="white">
<path fill-rule="evenodd" clip-rule="evenodd" d="M207.832 66.2548C217.598 60.4015 224.134 49.7141 224.134 37.5C224.134 18.9985 209.136 4 190.634 4C172.63 4 157.944 18.2024 157.167 36.0148C156.634 36.1111 156.089 36.1598 155.538 36.1582L8.61423 35.7065C3.76758 35.6916 -0.131195 39.6879 0.00338221 44.5327V59.2883L0.00610708 59.3971C0.0418199 60.8219 0.415409 62.2178 1.09612 63.47L5.98911 72.4708C7.5643 75.3684 10.5982 77.1723 13.8963 77.1723H126.056H127.008H190.921C192.95 77.1723 194.92 76.4865 196.511 75.2261L207.832 66.2548Z"/>
</mask>
<path d="M207.832 66.2548L207.318 65.3971L207.262 65.4306L207.211 65.4711L207.832 66.2548ZM157.167 36.0148L157.344 36.9988L158.131 36.8567L158.166 36.0584L157.167 36.0148ZM155.538 36.1582L155.535 37.1581L155.535 37.1581L155.538 36.1582ZM8.61423 35.7065L8.6173 34.7065L8.6173 34.7065L8.61423 35.7065ZM0.00338221 44.5327H1.00338V44.5188L1.003 44.5049L0.00338221 44.5327ZM0.00338221 59.2883H-0.996618V59.3009L-0.996304 59.3134L0.00338221 59.2883ZM0.00610708 59.3971L1.00579 59.372L1.00579 59.372L0.00610708 59.3971ZM1.09612 63.47L0.217551 63.9476L0.217551 63.9476L1.09612 63.47ZM5.98911 72.4708L5.11054 72.9484L5.11054 72.9484L5.98911 72.4708ZM196.511 75.2261L197.132 76.0098L197.132 76.0098L196.511 75.2261ZM223.134 37.5C223.134 49.3483 216.795 59.717 207.318 65.3971L208.346 67.1126C218.401 61.0861 225.134 50.0799 225.134 37.5H223.134ZM190.634 5C208.584 5 223.134 19.5507 223.134 37.5H225.134C225.134 18.4462 209.688 3 190.634 3V5ZM158.166 36.0584C158.92 18.7785 173.168 5 190.634 5V3C172.093 3 156.968 17.6264 156.168 35.9712L158.166 36.0584ZM155.535 37.1581C156.147 37.16 156.752 37.1059 157.344 36.9988L156.989 35.0307C156.515 35.1164 156.031 35.1597 155.541 35.1582L155.535 37.1581ZM8.61115 36.7065L155.535 37.1581L155.541 35.1582L8.6173 34.7065L8.61115 36.7065ZM1.003 44.5049C0.88409 40.2243 4.32888 36.6933 8.61115 36.7065L8.6173 34.7065C3.20629 34.6899 -1.14648 39.1515 -0.996232 44.5604L1.003 44.5049ZM1.00338 59.2883V44.5327H-0.996618V59.2883H1.00338ZM1.00579 59.372L1.00307 59.2633L-0.996304 59.3134L-0.993579 59.4221L1.00579 59.372ZM1.9747 62.9924C1.36962 61.8793 1.03754 60.6385 1.00579 59.372L-0.993579 59.4221C-0.953898 61.0052 -0.538799 62.5563 0.217551 63.9476L1.9747 62.9924ZM6.86769 71.9932L1.9747 62.9924L0.217551 63.9476L5.11054 72.9484L6.86769 71.9932ZM13.8963 76.1723C10.9647 76.1723 8.26785 74.5688 6.86769 71.9932L5.11054 72.9484C6.86074 76.1679 10.2318 78.1723 13.8963 78.1723V76.1723ZM126.056 76.1723H13.8963V78.1723H126.056V76.1723ZM127.008 76.1723H126.056V78.1723H127.008V76.1723ZM190.921 76.1723H127.008V78.1723H190.921V76.1723ZM195.89 74.4423C194.476 75.5627 192.725 76.1723 190.921 76.1723V78.1723C193.176 78.1723 195.364 77.4103 197.132 76.0098L195.89 74.4423ZM207.211 65.4711L195.89 74.4423L197.132 76.0098L208.453 67.0386L207.211 65.4711Z" fill="white" mask="url(#path-1-inside-1_57_234)"/>
</g>
<path d="M169.097 41.349C169.734 44.3089 170.947 47.1143 172.668 49.6052C174.389 52.0961 176.584 54.2236 179.127 55.8663C181.67 57.5089 184.512 58.6346 187.491 59.179C190.469 59.7233 193.525 59.6758 196.485 59.039C199.445 58.4022 202.25 57.1887 204.741 55.4677C207.232 53.7467 209.36 51.5519 211.002 49.0087C212.645 46.4655 213.771 43.6236 214.315 40.6454C214.859 37.6671 214.812 34.6108 214.175 31.651C213.538 28.6911 212.325 25.8856 210.604 23.3948C208.883 20.9039 206.688 18.7764 204.145 17.1337C201.601 15.491 198.76 14.3654 195.781 13.821C192.803 13.2766 189.747 13.3242 186.787 13.961C183.827 14.5978 181.022 15.8113 178.531 17.5323C176.04 19.2533 173.912 21.4481 172.27 23.9913C170.627 26.5345 169.501 29.3764 168.957 32.3546C168.413 35.3328 168.46 38.3892 169.097 41.349L169.097 41.349Z" stroke="white"/>
<path opacity="0.8" d="M165.916 36.5C165.364 36.5 164.914 36.0521 164.935 35.5002C165.142 29.9724 167.06 24.6356 170.438 20.234C174.019 15.5676 179.039 12.213 184.721 10.6906C190.402 9.16828 196.427 9.56319 201.861 11.8141C206.987 13.9373 211.317 17.5998 214.26 22.2836C214.554 22.7512 214.388 23.364 213.91 23.6401L212.775 24.2957C212.296 24.5718 211.687 24.4066 211.39 23.9406C208.813 19.8874 205.047 16.7175 200.594 14.8733C195.833 12.9013 190.555 12.5553 185.578 13.889C180.6 15.2227 176.202 18.1616 173.065 22.2497C170.131 26.073 168.454 30.7017 168.249 35.5003C168.225 36.0521 167.78 36.5 167.227 36.5H165.916Z" fill="#D9D9D9"/>
<path opacity="0.8" d="M217.354 36.5C217.906 36.5 218.356 36.948 218.335 37.4999C218.128 43.0277 216.21 48.3645 212.832 52.766C209.455 57.1676 204.797 60.402 199.511 62.0326C198.983 62.1954 198.434 61.877 198.291 61.3435L197.952 60.077C197.809 59.5435 198.126 58.9973 198.653 58.8317C203.235 57.3916 207.272 54.5736 210.205 50.7503C213.139 46.927 214.816 42.2984 215.021 37.4998C215.045 36.948 215.491 36.5 216.043 36.5L217.354 36.5Z" fill="#D9D9D9"/>
<path opacity="0.8" d="M184.977 61.3434C184.835 61.8769 184.285 62.1953 183.758 62.0325C177.647 60.1475 172.413 56.1315 169.01 50.7165C168.717 50.2489 168.882 49.636 169.36 49.3599L170.496 48.7043C170.974 48.4281 171.584 48.5934 171.88 49.0595C174.84 53.7156 179.352 57.1774 184.615 58.8316C185.142 58.9972 185.46 59.5434 185.317 60.0769L184.977 61.3434Z" fill="#D9D9D9"/>
<path d="M184.594 28.17L190.094 26.11C190.664 25.9 191.594 25.9 192.164 26.11L197.664 28.17C198.724 28.57 199.584 29.81 199.584 30.94V39.04C199.584 39.85 199.054 40.92 198.404 41.4L192.904 45.51C191.934 46.24 190.344 46.24 189.374 45.51L183.874 41.4C183.224 40.91 182.694 39.85 182.694 39.04V30.94C182.684 29.81 183.544 28.57 184.594 28.17ZM190.384 36.87V39.5C190.384 39.91 190.724 40.25 191.134 40.25C191.544 40.25 191.884 39.91 191.884 39.5V36.87C192.894 36.55 193.634 35.61 193.634 34.5C193.634 33.12 192.514 32 191.134 32C189.754 32 188.634 33.12 188.634 34.5C188.634 35.62 189.374 36.55 190.384 36.87Z" fill="white"/>
<path d="M22.3809 48.5H152.003C155.558 48.5 157.709 52.4287 155.794 55.4241L150.679 63.4241C149.852 64.7174 148.423 65.5 146.888 65.5H17.2658C13.7106 65.5 11.5594 61.5713 13.4745 58.5759L18.5896 50.5759C19.4165 49.2826 20.8458 48.5 22.3809 48.5Z" fill="#D9D9D9" fill-opacity="0.45" stroke="white"/>
<path d="M59.3467 60.084C58.6707 60.084 58.1547 59.896 57.7987 59.52C57.4467 59.144 57.2707 58.61 57.2707 57.918C57.2707 57.574 57.3247 57.268 57.4327 57C57.5407 56.728 57.6887 56.5 57.8767 56.316C58.0647 56.128 58.2887 55.986 58.5487 55.89C58.8087 55.794 59.0907 55.746 59.3947 55.746C59.5707 55.746 59.7307 55.76 59.8747 55.788C60.0187 55.812 60.1447 55.842 60.2527 55.878C60.3607 55.91 60.4507 55.944 60.5227 55.98C60.5947 56.016 60.6467 56.044 60.6787 56.064L60.4087 56.82C60.2807 56.752 60.1307 56.694 59.9587 56.646C59.7907 56.598 59.5987 56.574 59.3827 56.574C59.2387 56.574 59.0967 56.598 58.9567 56.646C58.8207 56.694 58.6987 56.772 58.5907 56.88C58.4867 56.984 58.4027 57.12 58.3387 57.288C58.2747 57.456 58.2427 57.66 58.2427 57.9C58.2427 58.092 58.2627 58.272 58.3027 58.44C58.3467 58.604 58.4147 58.746 58.5067 58.866C58.6027 58.986 58.7267 59.082 58.8787 59.154C59.0307 59.222 59.2147 59.256 59.4307 59.256C59.5667 59.256 59.6887 59.248 59.7967 59.232C59.9047 59.216 60.0007 59.198 60.0847 59.178C60.1687 59.154 60.2427 59.128 60.3067 59.1C60.3707 59.072 60.4287 59.046 60.4807 59.022L60.7387 59.772C60.6067 59.852 60.4207 59.924 60.1807 59.988C59.9407 60.052 59.6627 60.084 59.3467 60.084ZM63.8493 55.842H64.7853V60H63.8493V58.236H62.2773V60H61.3413V55.842H62.2773V57.432H63.8493V55.842ZM68.5316 60C68.4876 59.856 68.4376 59.708 68.3816 59.556C68.3296 59.404 68.2776 59.252 68.2256 59.1H66.6056C66.5536 59.252 66.4996 59.404 66.4436 59.556C66.3916 59.708 66.3436 59.856 66.2996 60H65.3276C65.4836 59.552 65.6316 59.138 65.7716 58.758C65.9116 58.378 66.0476 58.02 66.1796 57.684C66.3156 57.348 66.4476 57.03 66.5756 56.73C66.7076 56.426 66.8436 56.13 66.9836 55.842H67.8776C68.0136 56.13 68.1476 56.426 68.2796 56.73C68.4116 57.03 68.5436 57.348 68.6756 57.684C68.8116 58.02 68.9496 58.378 69.0896 58.758C69.2296 59.138 69.3776 59.552 69.5336 60H68.5316ZM67.4096 56.784C67.3896 56.844 67.3596 56.926 67.3196 57.03C67.2796 57.134 67.2336 57.254 67.1816 57.39C67.1296 57.526 67.0716 57.676 67.0076 57.84C66.9476 58.004 66.8856 58.176 66.8216 58.356H68.0036C67.9396 58.176 67.8776 58.004 67.8176 57.84C67.7576 57.676 67.6996 57.526 67.6436 57.39C67.5916 57.254 67.5456 57.134 67.5056 57.03C67.4656 56.926 67.4336 56.844 67.4096 56.784ZM72.8618 60C72.5938 59.524 72.3038 59.054 71.9918 58.59C71.6798 58.126 71.3478 57.688 70.9958 57.276V60H70.0718V55.842H70.8338C70.9658 55.974 71.1118 56.136 71.2718 56.328C71.4318 56.52 71.5938 56.726 71.7578 56.946C71.9258 57.162 72.0918 57.388 72.2558 57.624C72.4198 57.856 72.5738 58.08 72.7178 58.296V55.842H73.6478V60H72.8618ZM76.635 56.562C76.199 56.562 75.883 56.684 75.687 56.928C75.495 57.168 75.399 57.498 75.399 57.918C75.399 58.122 75.423 58.308 75.471 58.476C75.519 58.64 75.591 58.782 75.687 58.902C75.783 59.022 75.903 59.116 76.047 59.184C76.191 59.248 76.359 59.28 76.551 59.28C76.655 59.28 76.743 59.278 76.815 59.274C76.891 59.27 76.957 59.262 77.013 59.25V57.804H77.949V59.862C77.837 59.906 77.657 59.952 77.409 60C77.161 60.052 76.855 60.078 76.491 60.078C76.179 60.078 75.895 60.03 75.639 59.934C75.387 59.838 75.171 59.698 74.991 59.514C74.811 59.33 74.671 59.104 74.571 58.836C74.475 58.568 74.427 58.262 74.427 57.918C74.427 57.57 74.481 57.262 74.589 56.994C74.697 56.726 74.845 56.5 75.033 56.316C75.221 56.128 75.441 55.986 75.693 55.89C75.949 55.794 76.221 55.746 76.509 55.746C76.705 55.746 76.881 55.76 77.037 55.788C77.197 55.812 77.333 55.842 77.445 55.878C77.561 55.91 77.655 55.944 77.727 55.98C77.803 56.016 77.857 56.044 77.889 56.064L77.619 56.814C77.491 56.746 77.343 56.688 77.175 56.64C77.011 56.588 76.831 56.562 76.635 56.562ZM78.8198 60V55.842H81.6278V56.628H79.7558V57.444H81.4178V58.212H79.7558V59.214H81.7658V60H78.8198ZM85.1479 55.794C85.7679 55.794 86.2439 55.904 86.5759 56.124C86.9079 56.34 87.0739 56.696 87.0739 57.192C87.0739 57.692 86.9059 58.054 86.5699 58.278C86.2339 58.498 85.7539 58.608 85.1299 58.608H84.8359V60H83.8999V55.902C84.1039 55.862 84.3199 55.834 84.5479 55.818C84.7759 55.802 84.9759 55.794 85.1479 55.794ZM85.2079 56.592C85.1399 56.592 85.0719 56.594 85.0039 56.598C84.9399 56.602 84.8839 56.606 84.8359 56.61V57.81H85.1299C85.4539 57.81 85.6979 57.766 85.8619 57.678C86.0259 57.59 86.1079 57.426 86.1079 57.186C86.1079 57.07 86.0859 56.974 86.0419 56.898C86.0019 56.822 85.9419 56.762 85.8619 56.718C85.7859 56.67 85.6919 56.638 85.5799 56.622C85.4679 56.602 85.3439 56.592 85.2079 56.592ZM90.1351 60C90.0911 59.856 90.0411 59.708 89.9851 59.556C89.9331 59.404 89.8811 59.252 89.8291 59.1H88.2091C88.1571 59.252 88.1031 59.404 88.0471 59.556C87.9951 59.708 87.9471 59.856 87.9031 60H86.9311C87.0871 59.552 87.2351 59.138 87.3751 58.758C87.5151 58.378 87.6511 58.02 87.7831 57.684C87.9191 57.348 88.0511 57.03 88.1791 56.73C88.3111 56.426 88.4471 56.13 88.5871 55.842H89.4811C89.6171 56.13 89.7511 56.426 89.8831 56.73C90.0151 57.03 90.1471 57.348 90.2791 57.684C90.4151 58.02 90.5531 58.378 90.6931 58.758C90.8331 59.138 90.9811 59.552 91.1371 60H90.1351ZM89.0131 56.784C88.9931 56.844 88.9631 56.926 88.9231 57.03C88.8831 57.134 88.8371 57.254 88.7851 57.39C88.7331 57.526 88.6751 57.676 88.6111 57.84C88.5511 58.004 88.4891 58.176 88.4251 58.356H89.6071C89.5431 58.176 89.4811 58.004 89.4211 57.84C89.3611 57.676 89.3031 57.526 89.2471 57.39C89.1951 57.254 89.1491 57.134 89.1091 57.03C89.0691 56.926 89.0371 56.844 89.0131 56.784ZM92.9206 59.286C93.0526 59.286 93.1606 59.276 93.2446 59.256C93.3326 59.232 93.4026 59.202 93.4546 59.166C93.5066 59.126 93.5426 59.08 93.5626 59.028C93.5826 58.976 93.5926 58.918 93.5926 58.854C93.5926 58.718 93.5286 58.606 93.4006 58.518C93.2726 58.426 93.0526 58.328 92.7406 58.224C92.6046 58.176 92.4686 58.122 92.3326 58.062C92.1966 57.998 92.0746 57.92 91.9666 57.828C91.8586 57.732 91.7706 57.618 91.7026 57.486C91.6346 57.35 91.6006 57.186 91.6006 56.994C91.6006 56.802 91.6366 56.63 91.7086 56.478C91.7806 56.322 91.8826 56.19 92.0146 56.082C92.1466 55.974 92.3066 55.892 92.4946 55.836C92.6826 55.776 92.8946 55.746 93.1306 55.746C93.4106 55.746 93.6526 55.776 93.8566 55.836C94.0606 55.896 94.2286 55.962 94.3606 56.034L94.0906 56.772C93.9746 56.712 93.8446 56.66 93.7006 56.616C93.5606 56.568 93.3906 56.544 93.1906 56.544C92.9666 56.544 92.8046 56.576 92.7046 56.64C92.6086 56.7 92.5606 56.794 92.5606 56.922C92.5606 56.998 92.5786 57.062 92.6146 57.114C92.6506 57.166 92.7006 57.214 92.7646 57.258C92.8326 57.298 92.9086 57.336 92.9926 57.372C93.0806 57.404 93.1766 57.438 93.2806 57.474C93.4966 57.554 93.6846 57.634 93.8446 57.714C94.0046 57.79 94.1366 57.88 94.2406 57.984C94.3486 58.088 94.4286 58.21 94.4806 58.35C94.5326 58.49 94.5586 58.66 94.5586 58.86C94.5586 59.248 94.4226 59.55 94.1506 59.766C93.8786 59.978 93.4686 60.084 92.9206 60.084C92.7366 60.084 92.5706 60.072 92.4226 60.048C92.2746 60.028 92.1426 60.002 92.0266 59.97C91.9146 59.938 91.8166 59.904 91.7326 59.868C91.6526 59.832 91.5846 59.798 91.5286 59.766L91.7926 59.022C91.9166 59.09 92.0686 59.152 92.2486 59.208C92.4326 59.26 92.6566 59.286 92.9206 59.286ZM96.4128 59.286C96.5448 59.286 96.6528 59.276 96.7368 59.256C96.8248 59.232 96.8948 59.202 96.9468 59.166C96.9988 59.126 97.0348 59.08 97.0548 59.028C97.0748 58.976 97.0848 58.918 97.0848 58.854C97.0848 58.718 97.0208 58.606 96.8928 58.518C96.7648 58.426 96.5448 58.328 96.2328 58.224C96.0968 58.176 95.9608 58.122 95.8248 58.062C95.6888 57.998 95.5668 57.92 95.4588 57.828C95.3508 57.732 95.2628 57.618 95.1948 57.486C95.1268 57.35 95.0928 57.186 95.0928 56.994C95.0928 56.802 95.1288 56.63 95.2008 56.478C95.2728 56.322 95.3748 56.19 95.5068 56.082C95.6388 55.974 95.7988 55.892 95.9868 55.836C96.1748 55.776 96.3868 55.746 96.6228 55.746C96.9028 55.746 97.1448 55.776 97.3488 55.836C97.5528 55.896 97.7208 55.962 97.8528 56.034L97.5828 56.772C97.4668 56.712 97.3368 56.66 97.1928 56.616C97.0528 56.568 96.8828 56.544 96.6828 56.544C96.4588 56.544 96.2968 56.576 96.1968 56.64C96.1008 56.7 96.0528 56.794 96.0528 56.922C96.0528 56.998 96.0708 57.062 96.1068 57.114C96.1428 57.166 96.1928 57.214 96.2568 57.258C96.3248 57.298 96.4008 57.336 96.4848 57.372C96.5728 57.404 96.6688 57.438 96.7728 57.474C96.9888 57.554 97.1768 57.634 97.3368 57.714C97.4968 57.79 97.6288 57.88 97.7328 57.984C97.8408 58.088 97.9208 58.21 97.9728 58.35C98.0248 58.49 98.0508 58.66 98.0508 58.86C98.0508 59.248 97.9148 59.55 97.6428 59.766C97.3708 59.978 96.9608 60.084 96.4128 60.084C96.2288 60.084 96.0628 60.072 95.9148 60.048C95.7668 60.028 95.6348 60.002 95.5188 59.97C95.4068 59.938 95.3088 59.904 95.2248 59.868C95.1448 59.832 95.0768 59.798 95.0208 59.766L95.2848 59.022C95.4088 59.09 95.5608 59.152 95.7408 59.208C95.9248 59.26 96.1488 59.286 96.4128 59.286ZM101.502 56.286C101.55 56.45 101.602 56.636 101.658 56.844C101.718 57.048 101.78 57.26 101.844 57.48C101.912 57.7 101.98 57.92 102.048 58.14C102.116 58.36 102.182 58.564 102.246 58.752C102.298 58.548 102.35 58.326 102.402 58.086C102.458 57.846 102.51 57.598 102.558 57.342C102.606 57.086 102.652 56.832 102.696 56.58C102.744 56.324 102.788 56.078 102.828 55.842H103.8C103.66 56.538 103.498 57.244 103.314 57.96C103.134 58.676 102.938 59.356 102.726 60H101.868C101.728 59.616 101.592 59.214 101.46 58.794C101.328 58.37 101.198 57.946 101.07 57.522C100.942 57.946 100.814 58.37 100.686 58.794C100.558 59.214 100.424 59.616 100.284 60H99.4264C99.2144 59.356 99.0164 58.676 98.8324 57.96C98.6524 57.244 98.4924 56.538 98.3524 55.842H99.3664C99.4064 56.078 99.4504 56.324 99.4984 56.58C99.5464 56.832 99.5964 57.086 99.6484 57.342C99.7004 57.598 99.7524 57.846 99.8044 58.086C99.8604 58.326 99.9164 58.548 99.9724 58.752C100.044 58.556 100.114 58.348 100.182 58.128C100.25 57.908 100.316 57.688 100.38 57.468C100.444 57.248 100.502 57.036 100.554 56.832C100.61 56.628 100.66 56.446 100.704 56.286H101.502ZM105.129 57.918C105.129 58.122 105.153 58.306 105.201 58.47C105.253 58.634 105.325 58.776 105.417 58.896C105.513 59.012 105.629 59.102 105.765 59.166C105.901 59.23 106.057 59.262 106.233 59.262C106.405 59.262 106.559 59.23 106.695 59.166C106.835 59.102 106.951 59.012 107.043 58.896C107.139 58.776 107.211 58.634 107.259 58.47C107.311 58.306 107.337 58.122 107.337 57.918C107.337 57.714 107.311 57.53 107.259 57.366C107.211 57.198 107.139 57.056 107.043 56.94C106.951 56.82 106.835 56.728 106.695 56.664C106.559 56.6 106.405 56.568 106.233 56.568C106.057 56.568 105.901 56.602 105.765 56.67C105.629 56.734 105.513 56.826 105.417 56.946C105.325 57.062 105.253 57.204 105.201 57.372C105.153 57.536 105.129 57.718 105.129 57.918ZM108.303 57.918C108.303 58.274 108.249 58.588 108.141 58.86C108.037 59.128 107.893 59.354 107.709 59.538C107.525 59.718 107.305 59.854 107.049 59.946C106.797 60.038 106.525 60.084 106.233 60.084C105.949 60.084 105.681 60.038 105.429 59.946C105.177 59.854 104.957 59.718 104.769 59.538C104.581 59.354 104.433 59.128 104.325 58.86C104.217 58.588 104.163 58.274 104.163 57.918C104.163 57.562 104.219 57.25 104.331 56.982C104.443 56.71 104.593 56.482 104.781 56.298C104.973 56.114 105.193 55.976 105.441 55.884C105.693 55.792 105.957 55.746 106.233 55.746C106.517 55.746 106.785 55.792 107.037 55.884C107.289 55.976 107.509 56.114 107.697 56.298C107.885 56.482 108.033 56.71 108.141 56.982C108.249 57.25 108.303 57.562 108.303 57.918ZM110.302 55.794C110.926 55.794 111.404 55.906 111.736 56.13C112.068 56.35 112.234 56.694 112.234 57.162C112.234 57.454 112.166 57.692 112.03 57.876C111.898 58.056 111.706 58.198 111.454 58.302C111.538 58.406 111.626 58.526 111.718 58.662C111.81 58.794 111.9 58.934 111.988 59.082C112.08 59.226 112.168 59.378 112.252 59.538C112.336 59.694 112.414 59.848 112.486 60H111.436C111.36 59.864 111.282 59.726 111.202 59.586C111.126 59.446 111.046 59.31 110.962 59.178C110.882 59.046 110.802 58.922 110.722 58.806C110.642 58.686 110.562 58.578 110.482 58.482H110.02V60H109.084V55.902C109.288 55.862 109.498 55.834 109.714 55.818C109.934 55.802 110.13 55.794 110.302 55.794ZM110.356 56.592C110.288 56.592 110.226 56.594 110.17 56.598C110.118 56.602 110.068 56.606 110.02 56.61V57.738H110.284C110.636 57.738 110.888 57.694 111.04 57.606C111.192 57.518 111.268 57.368 111.268 57.156C111.268 56.952 111.19 56.808 111.034 56.724C110.882 56.636 110.656 56.592 110.356 56.592ZM114.021 59.238C114.065 59.242 114.115 59.246 114.171 59.25C114.231 59.25 114.301 59.25 114.381 59.25C114.849 59.25 115.195 59.132 115.419 58.896C115.647 58.66 115.761 58.334 115.761 57.918C115.761 57.482 115.653 57.152 115.437 56.928C115.221 56.704 114.879 56.592 114.411 56.592C114.347 56.592 114.281 56.594 114.213 56.598C114.145 56.598 114.081 56.602 114.021 56.61V59.238ZM116.727 57.918C116.727 58.278 116.671 58.592 116.559 58.86C116.447 59.128 116.287 59.35 116.079 59.526C115.875 59.702 115.625 59.834 115.329 59.922C115.033 60.01 114.701 60.054 114.333 60.054C114.165 60.054 113.969 60.046 113.745 60.03C113.521 60.018 113.301 59.99 113.085 59.946V55.896C113.301 55.856 113.525 55.83 113.757 55.818C113.993 55.802 114.195 55.794 114.363 55.794C114.719 55.794 115.041 55.834 115.329 55.914C115.621 55.994 115.871 56.12 116.079 56.292C116.287 56.464 116.447 56.684 116.559 56.952C116.671 57.22 116.727 57.542 116.727 57.918Z" fill="white"/>
</svg>
