<svg width="602" height="156" viewBox="0 0 602 156" fill="none" xmlns="http://www.w3.org/2000/svg">
<path d="M27.9089 0.692855V0.69287H27.9127H115.787H203.661H348.608H391.471C393.792 0.69287 396.032 1.54232 397.769 3.0809L419.27 22.1221C421.19 23.8226 423.667 24.7615 426.232 24.7615H575.087H590C595.247 24.7615 599.5 29.0148 599.5 34.2615V40.2278C599.5 43.2611 598.052 46.1119 595.602 47.9005L588.861 52.822C586.153 54.7989 584.552 57.9498 584.552 61.3023V107.182C584.552 110.353 585.986 113.354 588.452 115.348L596.257 121.657C598.308 123.315 599.5 125.811 599.5 128.449C599.5 133.272 595.59 137.181 590.767 137.181H200.063C197.303 137.181 194.654 138.268 192.689 140.206L179.959 152.763C178.181 154.517 175.784 155.5 173.287 155.5H13C7.7533 155.5 3.5 151.247 3.5 146V128.53C3.5 125.816 4.65998 123.233 6.68749 121.43L13.5658 115.314C15.8067 113.322 17.0888 110.466 17.0888 107.467V61.0163C17.0888 57.8336 15.6451 54.8226 13.1636 52.8296L7.05137 47.9209C4.80616 46.1177 3.5 43.3935 3.5 40.5139V10.0777C3.5 4.80227 7.79825 0.537162 13.0735 0.578003L27.9089 0.692855Z" stroke="#FF2002"/>
<path d="M0.906494 43.168C0.906494 41.4697 2.88955 40.5443 4.19117 41.6352L13.7954 49.6845C14.2489 50.0645 14.5108 50.6257 14.5108 51.2173V105.586C14.5108 106.154 14.2695 106.695 13.847 107.074L4.24275 115.698C2.95519 116.854 0.906494 115.941 0.906494 114.21V43.168Z" fill="#FF2002"/>
<path d="M601.309 43.168C601.309 41.4697 599.326 40.5443 598.024 41.6352L588.42 49.6845C587.966 50.0645 587.704 50.6257 587.704 51.2173V105.586C587.704 106.154 587.946 106.695 588.368 107.074L597.972 115.698C599.26 116.854 601.309 115.941 601.309 114.21V43.168Z" fill="#FF2002"/>
<path d="M592.755 82.8242L596.451 79.1283C596.887 78.6919 596.887 77.9776 596.451 77.5412L592.755 73.8453" stroke="#292D32" stroke-width="1.5" stroke-miterlimit="10" stroke-linecap="round" stroke-linejoin="round"/>
<path d="M257.241 141.404C257.523 141.12 257.906 140.961 258.305 140.961H278.164C279.497 140.961 280.168 142.571 279.228 143.518L268.79 154.029C268.508 154.313 268.125 154.472 267.725 154.472H247.867C246.533 154.472 245.863 152.862 246.803 151.915L257.241 141.404Z" stroke="#FF2002"/>
<path d="M228.219 141.404C228.5 141.12 228.883 140.961 229.283 140.961H249.141C250.475 140.961 251.145 142.571 250.206 143.518L239.767 154.029C239.486 154.313 239.103 154.472 238.703 154.472H218.845C217.511 154.472 216.841 152.862 217.78 151.915L228.219 141.404Z" stroke="#FF2002"/>
<path d="M199.196 141.404C199.478 141.12 199.861 140.961 200.261 140.961H220.119C221.453 140.961 222.123 142.571 221.183 143.518L210.745 154.029C210.463 154.313 210.08 154.472 209.68 154.472H189.822C188.488 154.472 187.818 152.862 188.758 151.915L199.196 141.404Z" fill="#FF2002" stroke="#FF2002"/>
</svg>
