<svg width="452" height="42" viewBox="0 0 452 42" fill="none" xmlns="http://www.w3.org/2000/svg">
<path d="M32.8878 2.16861C33.7422 1.11318 35.0275 0.5 36.3854 0.5H441.519C445.305 0.5 447.399 4.88922 445.017 7.83139L419.112 39.8314C418.258 40.8868 416.973 41.5 415.615 41.5H10.4806C6.6952 41.5 4.60124 37.1108 6.983 34.1686L32.8878 2.16861Z" fill="#D9D9D9" fill-opacity="0.45" stroke="white"/>
<path d="M145.642 24.222C145.745 24.2313 145.862 24.2407 145.992 24.25C146.132 24.25 146.296 24.25 146.482 24.25C147.574 24.25 148.382 23.9747 148.904 23.424C149.436 22.8733 149.702 22.1127 149.702 21.142C149.702 20.1247 149.45 19.3547 148.946 18.832C148.442 18.3093 147.644 18.048 146.552 18.048C146.403 18.048 146.249 18.0527 146.09 18.062C145.932 18.062 145.782 18.0713 145.642 18.09V24.222ZM151.956 21.142C151.956 21.982 151.826 22.7147 151.564 23.34C151.303 23.9653 150.93 24.4833 150.444 24.894C149.968 25.3047 149.385 25.6127 148.694 25.818C148.004 26.0233 147.229 26.126 146.37 26.126C145.978 26.126 145.521 26.1073 144.998 26.07C144.476 26.042 143.962 25.9767 143.458 25.874V16.424C143.962 16.3307 144.485 16.27 145.026 16.242C145.577 16.2047 146.048 16.186 146.44 16.186C147.271 16.186 148.022 16.2793 148.694 16.466C149.376 16.6527 149.959 16.9467 150.444 17.348C150.93 17.7493 151.303 18.2627 151.564 18.888C151.826 19.5133 151.956 20.2647 151.956 21.142ZM155.614 21.142C155.614 21.618 155.67 22.0473 155.782 22.43C155.904 22.8127 156.072 23.144 156.286 23.424C156.51 23.6947 156.781 23.9047 157.098 24.054C157.416 24.2033 157.78 24.278 158.19 24.278C158.592 24.278 158.951 24.2033 159.268 24.054C159.595 23.9047 159.866 23.6947 160.08 23.424C160.304 23.144 160.472 22.8127 160.584 22.43C160.706 22.0473 160.766 21.618 160.766 21.142C160.766 20.666 160.706 20.2367 160.584 19.854C160.472 19.462 160.304 19.1307 160.08 18.86C159.866 18.58 159.595 18.3653 159.268 18.216C158.951 18.0667 158.592 17.992 158.19 17.992C157.78 17.992 157.416 18.0713 157.098 18.23C156.781 18.3793 156.51 18.594 156.286 18.874C156.072 19.1447 155.904 19.476 155.782 19.868C155.67 20.2507 155.614 20.6753 155.614 21.142ZM163.02 21.142C163.02 21.9727 162.894 22.7053 162.642 23.34C162.4 23.9653 162.064 24.4927 161.634 24.922C161.205 25.342 160.692 25.6593 160.094 25.874C159.506 26.0887 158.872 26.196 158.19 26.196C157.528 26.196 156.902 26.0887 156.314 25.874C155.726 25.6593 155.213 25.342 154.774 24.922C154.336 24.4927 153.99 23.9653 153.738 23.34C153.486 22.7053 153.36 21.9727 153.36 21.142C153.36 20.3113 153.491 19.5833 153.752 18.958C154.014 18.3233 154.364 17.7913 154.802 17.362C155.25 16.9327 155.764 16.6107 156.342 16.396C156.93 16.1813 157.546 16.074 158.19 16.074C158.853 16.074 159.478 16.1813 160.066 16.396C160.654 16.6107 161.168 16.9327 161.606 17.362C162.045 17.7913 162.39 18.3233 162.642 18.958C162.894 19.5833 163.02 20.3113 163.02 21.142ZM171.214 17.334C171.326 17.7167 171.448 18.1507 171.578 18.636C171.718 19.112 171.863 19.6067 172.012 20.12C172.171 20.6333 172.33 21.1467 172.488 21.66C172.647 22.1733 172.801 22.6493 172.95 23.088C173.072 22.612 173.193 22.094 173.314 21.534C173.445 20.974 173.566 20.3953 173.678 19.798C173.79 19.2007 173.898 18.608 174 18.02C174.112 17.4227 174.215 16.8487 174.308 16.298H176.576C176.25 17.922 175.872 19.5693 175.442 21.24C175.022 22.9107 174.565 24.4973 174.07 26H172.068C171.742 25.104 171.424 24.166 171.116 23.186C170.808 22.1967 170.505 21.2073 170.206 20.218C169.908 21.2073 169.609 22.1967 169.31 23.186C169.012 24.166 168.699 25.104 168.372 26H166.37C165.876 24.4973 165.414 22.9107 164.984 21.24C164.564 19.5693 164.191 17.922 163.864 16.298H166.23C166.324 16.8487 166.426 17.4227 166.538 18.02C166.65 18.608 166.767 19.2007 166.888 19.798C167.01 20.3953 167.131 20.974 167.252 21.534C167.383 22.094 167.514 22.612 167.644 23.088C167.812 22.6307 167.976 22.1453 168.134 21.632C168.293 21.1187 168.447 20.6053 168.596 20.092C168.746 19.5787 168.881 19.084 169.002 18.608C169.133 18.132 169.25 17.7073 169.352 17.334H171.214ZM184.49 26C183.864 24.8893 183.188 23.7927 182.46 22.71C181.732 21.6273 180.957 20.6053 180.136 19.644V26H177.98V16.298H179.758C180.066 16.606 180.406 16.984 180.78 17.432C181.153 17.88 181.531 18.3607 181.914 18.874C182.306 19.378 182.693 19.9053 183.076 20.456C183.458 20.9973 183.818 21.52 184.154 22.024V16.298H186.324V26H184.49ZM195.044 24.124V26H188.562V16.298H190.746V24.124H195.044ZM198.011 21.142C198.011 21.618 198.067 22.0473 198.179 22.43C198.3 22.8127 198.468 23.144 198.683 23.424C198.907 23.6947 199.178 23.9047 199.495 24.054C199.812 24.2033 200.176 24.278 200.587 24.278C200.988 24.278 201.348 24.2033 201.665 24.054C201.992 23.9047 202.262 23.6947 202.477 23.424C202.701 23.144 202.869 22.8127 202.981 22.43C203.102 22.0473 203.163 21.618 203.163 21.142C203.163 20.666 203.102 20.2367 202.981 19.854C202.869 19.462 202.701 19.1307 202.477 18.86C202.262 18.58 201.992 18.3653 201.665 18.216C201.348 18.0667 200.988 17.992 200.587 17.992C200.176 17.992 199.812 18.0713 199.495 18.23C199.178 18.3793 198.907 18.594 198.683 18.874C198.468 19.1447 198.3 19.476 198.179 19.868C198.067 20.2507 198.011 20.6753 198.011 21.142ZM205.417 21.142C205.417 21.9727 205.291 22.7053 205.039 23.34C204.796 23.9653 204.46 24.4927 204.031 24.922C203.602 25.342 203.088 25.6593 202.491 25.874C201.903 26.0887 201.268 26.196 200.587 26.196C199.924 26.196 199.299 26.0887 198.711 25.874C198.123 25.6593 197.61 25.342 197.171 24.922C196.732 24.4927 196.387 23.9653 196.135 23.34C195.883 22.7053 195.757 21.9727 195.757 21.142C195.757 20.3113 195.888 19.5833 196.149 18.958C196.41 18.3233 196.76 17.7913 197.199 17.362C197.647 16.9327 198.16 16.6107 198.739 16.396C199.327 16.1813 199.943 16.074 200.587 16.074C201.25 16.074 201.875 16.1813 202.463 16.396C203.051 16.6107 203.564 16.9327 204.003 17.362C204.442 17.7913 204.787 18.3233 205.039 18.958C205.291 19.5833 205.417 20.3113 205.417 21.142ZM213.378 26C213.275 25.664 213.159 25.3187 213.028 24.964C212.907 24.6093 212.785 24.2547 212.664 23.9H208.884C208.763 24.2547 208.637 24.6093 208.506 24.964C208.385 25.3187 208.273 25.664 208.17 26H205.902C206.266 24.9547 206.611 23.9887 206.938 23.102C207.265 22.2153 207.582 21.38 207.89 20.596C208.207 19.812 208.515 19.07 208.814 18.37C209.122 17.6607 209.439 16.97 209.766 16.298H211.852C212.169 16.97 212.482 17.6607 212.79 18.37C213.098 19.07 213.406 19.812 213.714 20.596C214.031 21.38 214.353 22.2153 214.68 23.102C215.007 23.9887 215.352 24.9547 215.716 26H213.378ZM210.76 18.496C210.713 18.636 210.643 18.8273 210.55 19.07C210.457 19.3127 210.349 19.5927 210.228 19.91C210.107 20.2273 209.971 20.5773 209.822 20.96C209.682 21.3427 209.537 21.744 209.388 22.164H212.146C211.997 21.744 211.852 21.3427 211.712 20.96C211.572 20.5773 211.437 20.2273 211.306 19.91C211.185 19.5927 211.077 19.3127 210.984 19.07C210.891 18.8273 210.816 18.636 210.76 18.496ZM219.156 24.222C219.259 24.2313 219.375 24.2407 219.506 24.25C219.646 24.25 219.809 24.25 219.996 24.25C221.088 24.25 221.895 23.9747 222.418 23.424C222.95 22.8733 223.216 22.1127 223.216 21.142C223.216 20.1247 222.964 19.3547 222.46 18.832C221.956 18.3093 221.158 18.048 220.066 18.048C219.917 18.048 219.763 18.0527 219.604 18.062C219.445 18.062 219.296 18.0713 219.156 18.09V24.222ZM225.47 21.142C225.47 21.982 225.339 22.7147 225.078 23.34C224.817 23.9653 224.443 24.4833 223.958 24.894C223.482 25.3047 222.899 25.6127 222.208 25.818C221.517 26.0233 220.743 26.126 219.884 26.126C219.492 26.126 219.035 26.1073 218.512 26.07C217.989 26.042 217.476 25.9767 216.972 25.874V16.424C217.476 16.3307 217.999 16.27 218.54 16.242C219.091 16.2047 219.562 16.186 219.954 16.186C220.785 16.186 221.536 16.2793 222.208 16.466C222.889 16.6527 223.473 16.9467 223.958 17.348C224.443 17.7493 224.817 18.2627 225.078 18.888C225.339 19.5133 225.47 20.2647 225.47 21.142ZM236.863 16.186C238.319 16.186 239.434 16.4473 240.209 16.97C240.983 17.4833 241.371 18.286 241.371 19.378C241.371 20.0593 241.212 20.6147 240.895 21.044C240.587 21.464 240.139 21.7953 239.551 22.038C239.747 22.2807 239.952 22.5607 240.167 22.878C240.381 23.186 240.591 23.5127 240.797 23.858C241.011 24.194 241.217 24.5487 241.413 24.922C241.609 25.286 241.791 25.6453 241.959 26H239.509C239.331 25.6827 239.149 25.3607 238.963 25.034C238.785 24.7073 238.599 24.39 238.403 24.082C238.216 23.774 238.029 23.4847 237.843 23.214C237.656 22.934 237.469 22.682 237.283 22.458H236.205V26H234.021V16.438C234.497 16.3447 234.987 16.2793 235.491 16.242C236.004 16.2047 236.461 16.186 236.863 16.186ZM236.989 18.048C236.83 18.048 236.685 18.0527 236.555 18.062C236.433 18.0713 236.317 18.0807 236.205 18.09V20.722H236.821C237.642 20.722 238.23 20.6193 238.585 20.414C238.939 20.2087 239.117 19.8587 239.117 19.364C239.117 18.888 238.935 18.552 238.571 18.356C238.216 18.1507 237.689 18.048 236.989 18.048ZM243.359 26V16.298H249.911V18.132H245.543V20.036H249.421V21.828H245.543V24.166H250.233V26H243.359ZM254.761 16.186C256.208 16.186 257.318 16.4427 258.093 16.956C258.868 17.46 259.255 18.2907 259.255 19.448C259.255 20.6147 258.863 21.4593 258.079 21.982C257.295 22.4953 256.175 22.752 254.719 22.752H254.033V26H251.849V16.438C252.325 16.3447 252.829 16.2793 253.361 16.242C253.893 16.2047 254.36 16.186 254.761 16.186ZM254.901 18.048C254.742 18.048 254.584 18.0527 254.425 18.062C254.276 18.0713 254.145 18.0807 254.033 18.09V20.89H254.719C255.475 20.89 256.044 20.7873 256.427 20.582C256.81 20.3767 257.001 19.994 257.001 19.434C257.001 19.1633 256.95 18.9393 256.847 18.762C256.754 18.5847 256.614 18.4447 256.427 18.342C256.25 18.23 256.03 18.1553 255.769 18.118C255.508 18.0713 255.218 18.048 254.901 18.048ZM262.693 21.142C262.693 21.618 262.749 22.0473 262.861 22.43C262.982 22.8127 263.15 23.144 263.365 23.424C263.589 23.6947 263.859 23.9047 264.177 24.054C264.494 24.2033 264.858 24.278 265.269 24.278C265.67 24.278 266.029 24.2033 266.347 24.054C266.673 23.9047 266.944 23.6947 267.159 23.424C267.383 23.144 267.551 22.8127 267.663 22.43C267.784 22.0473 267.845 21.618 267.845 21.142C267.845 20.666 267.784 20.2367 267.663 19.854C267.551 19.462 267.383 19.1307 267.159 18.86C266.944 18.58 266.673 18.3653 266.347 18.216C266.029 18.0667 265.67 17.992 265.269 17.992C264.858 17.992 264.494 18.0713 264.177 18.23C263.859 18.3793 263.589 18.594 263.365 18.874C263.15 19.1447 262.982 19.476 262.861 19.868C262.749 20.2507 262.693 20.6753 262.693 21.142ZM270.099 21.142C270.099 21.9727 269.973 22.7053 269.721 23.34C269.478 23.9653 269.142 24.4927 268.713 24.922C268.283 25.342 267.77 25.6593 267.173 25.874C266.585 26.0887 265.95 26.196 265.269 26.196C264.606 26.196 263.981 26.0887 263.393 25.874C262.805 25.6593 262.291 25.342 261.853 24.922C261.414 24.4927 261.069 23.9653 260.817 23.34C260.565 22.7053 260.439 21.9727 260.439 21.142C260.439 20.3113 260.569 19.5833 260.831 18.958C261.092 18.3233 261.442 17.7913 261.881 17.362C262.329 16.9327 262.842 16.6107 263.421 16.396C264.009 16.1813 264.625 16.074 265.269 16.074C265.931 16.074 266.557 16.1813 267.145 16.396C267.733 16.6107 268.246 16.9327 268.685 17.362C269.123 17.7913 269.469 18.3233 269.721 18.958C269.973 19.5833 270.099 20.3113 270.099 21.142ZM274.761 16.186C276.217 16.186 277.332 16.4473 278.107 16.97C278.882 17.4833 279.269 18.286 279.269 19.378C279.269 20.0593 279.11 20.6147 278.793 21.044C278.485 21.464 278.037 21.7953 277.449 22.038C277.645 22.2807 277.85 22.5607 278.065 22.878C278.28 23.186 278.49 23.5127 278.695 23.858C278.91 24.194 279.115 24.5487 279.311 24.922C279.507 25.286 279.689 25.6453 279.857 26H277.407C277.23 25.6827 277.048 25.3607 276.861 25.034C276.684 24.7073 276.497 24.39 276.301 24.082C276.114 23.774 275.928 23.4847 275.741 23.214C275.554 22.934 275.368 22.682 275.181 22.458H274.103V26H271.919V16.438C272.395 16.3447 272.885 16.2793 273.389 16.242C273.902 16.2047 274.36 16.186 274.761 16.186ZM274.887 18.048C274.728 18.048 274.584 18.0527 274.453 18.062C274.332 18.0713 274.215 18.0807 274.103 18.09V20.722H274.719C275.54 20.722 276.128 20.6193 276.483 20.414C276.838 20.2087 277.015 19.8587 277.015 19.364C277.015 18.888 276.833 18.552 276.469 18.356C276.114 18.1507 275.587 18.048 274.887 18.048ZM288.316 16.298V18.16H285.39V26H283.206V18.16H280.28V16.298H288.316Z" fill="white"/>
</svg>
