<svg width="25" height="24" viewBox="0 0 25 24" fill="none" xmlns="http://www.w3.org/2000/svg">
<path d="M12.1343 2C9.37428 2 7.13428 4.24 7.13428 7C7.13428 9.76 9.37428 12 12.1343 12C14.8943 12 17.1343 9.76 17.1343 7C17.1343 4.24 14.8943 2 12.1343 2ZM14.3043 6.51L11.6043 9.21C11.5043 9.31 11.2943 9.41 11.1543 9.44L10.1243 9.58C9.74428 9.63 9.48428 9.37 9.54428 9L9.69428 7.97C9.71428 7.83 9.81428 7.62 9.92428 7.52L12.6243 4.82C13.0843 4.36 13.6343 4.14 14.3143 4.82C14.9843 5.51 14.7643 6.05 14.3043 6.51Z" fill="white"/>
<path d="M12.1343 14C7.12428 14 3.04428 17.36 3.04428 21.5C3.04428 21.78 3.26428 22 3.54428 22H20.7243C21.0043 22 21.2243 21.78 21.2243 21.5C21.2243 17.36 17.1443 14 12.1343 14Z" fill="white"/>
</svg>
