<svg width="229" height="78" viewBox="0 0 229 78" fill="none" xmlns="http://www.w3.org/2000/svg">
<g opacity="0.3">
<mask id="path-1-inside-1_57_146" fill="white">
<path fill-rule="evenodd" clip-rule="evenodd" d="M207.832 66.2548C217.598 60.4015 224.134 49.7141 224.134 37.5C224.134 18.9985 209.136 4 190.634 4C172.63 4 157.944 18.2024 157.167 36.0148C156.634 36.1111 156.089 36.1598 155.538 36.1582L8.61423 35.7065C3.76758 35.6916 -0.131195 39.6879 0.00338221 44.5327V59.2883L0.00610708 59.3971C0.0418199 60.8219 0.415409 62.2178 1.09612 63.47L5.98911 72.4708C7.5643 75.3684 10.5982 77.1723 13.8963 77.1723H126.056H127.008H190.921C192.95 77.1723 194.92 76.4865 196.511 75.2261L207.832 66.2548Z"/>
</mask>
<path d="M207.832 66.2548L207.318 65.3971L207.262 65.4306L207.211 65.4711L207.832 66.2548ZM157.167 36.0148L157.344 36.9988L158.131 36.8567L158.166 36.0584L157.167 36.0148ZM155.538 36.1582L155.535 37.1581L155.535 37.1581L155.538 36.1582ZM8.61423 35.7065L8.6173 34.7065L8.6173 34.7065L8.61423 35.7065ZM0.00338221 44.5327H1.00338V44.5188L1.003 44.5049L0.00338221 44.5327ZM0.00338221 59.2883H-0.996618V59.3009L-0.996304 59.3134L0.00338221 59.2883ZM0.00610708 59.3971L1.00579 59.372L1.00579 59.372L0.00610708 59.3971ZM1.09612 63.47L0.217551 63.9476L0.217551 63.9476L1.09612 63.47ZM5.98911 72.4708L5.11054 72.9484L5.11054 72.9484L5.98911 72.4708ZM196.511 75.2261L197.132 76.0098L197.132 76.0098L196.511 75.2261ZM223.134 37.5C223.134 49.3483 216.795 59.717 207.318 65.3971L208.346 67.1126C218.401 61.0861 225.134 50.0799 225.134 37.5H223.134ZM190.634 5C208.584 5 223.134 19.5507 223.134 37.5H225.134C225.134 18.4462 209.688 3 190.634 3V5ZM158.166 36.0584C158.92 18.7785 173.168 5 190.634 5V3C172.093 3 156.968 17.6264 156.168 35.9712L158.166 36.0584ZM155.535 37.1581C156.147 37.16 156.752 37.1059 157.344 36.9988L156.989 35.0307C156.515 35.1164 156.031 35.1597 155.541 35.1582L155.535 37.1581ZM8.61115 36.7065L155.535 37.1581L155.541 35.1582L8.6173 34.7065L8.61115 36.7065ZM1.003 44.5049C0.88409 40.2243 4.32888 36.6933 8.61115 36.7065L8.6173 34.7065C3.20629 34.6899 -1.14648 39.1515 -0.996232 44.5604L1.003 44.5049ZM1.00338 59.2883V44.5327H-0.996618V59.2883H1.00338ZM1.00579 59.372L1.00307 59.2633L-0.996304 59.3134L-0.993579 59.4221L1.00579 59.372ZM1.9747 62.9924C1.36962 61.8793 1.03754 60.6385 1.00579 59.372L-0.993579 59.4221C-0.953898 61.0052 -0.538799 62.5563 0.217551 63.9476L1.9747 62.9924ZM6.86769 71.9932L1.9747 62.9924L0.217551 63.9476L5.11054 72.9484L6.86769 71.9932ZM13.8963 76.1723C10.9647 76.1723 8.26785 74.5688 6.86769 71.9932L5.11054 72.9484C6.86074 76.1679 10.2318 78.1723 13.8963 78.1723V76.1723ZM126.056 76.1723H13.8963V78.1723H126.056V76.1723ZM127.008 76.1723H126.056V78.1723H127.008V76.1723ZM190.921 76.1723H127.008V78.1723H190.921V76.1723ZM195.89 74.4423C194.476 75.5627 192.725 76.1723 190.921 76.1723V78.1723C193.176 78.1723 195.364 77.4103 197.132 76.0098L195.89 74.4423ZM207.211 65.4711L195.89 74.4423L197.132 76.0098L208.453 67.0386L207.211 65.4711Z" fill="white" mask="url(#path-1-inside-1_57_146)"/>
</g>
<path d="M169.097 41.349C169.734 44.3089 170.947 47.1143 172.668 49.6052C174.389 52.0961 176.584 54.2236 179.127 55.8663C181.67 57.5089 184.512 58.6346 187.491 59.179C190.469 59.7233 193.525 59.6758 196.485 59.039C199.445 58.4022 202.25 57.1887 204.741 55.4677C207.232 53.7467 209.36 51.5519 211.002 49.0087C212.645 46.4655 213.771 43.6236 214.315 40.6454C214.859 37.6671 214.812 34.6108 214.175 31.651C213.538 28.6911 212.325 25.8856 210.604 23.3948C208.883 20.9039 206.688 18.7764 204.145 17.1337C201.601 15.491 198.76 14.3654 195.781 13.821C192.803 13.2766 189.747 13.3242 186.787 13.961C183.827 14.5978 181.022 15.8113 178.531 17.5323C176.04 19.2533 173.912 21.4481 172.27 23.9913C170.627 26.5345 169.501 29.3764 168.957 32.3546C168.413 35.3328 168.46 38.3892 169.097 41.349L169.097 41.349Z" stroke="white"/>
<path opacity="0.8" d="M165.916 36.5C165.364 36.5 164.914 36.0521 164.935 35.5002C165.142 29.9724 167.06 24.6356 170.438 20.234C174.019 15.5676 179.039 12.213 184.721 10.6906C190.402 9.16828 196.427 9.56319 201.861 11.8141C206.987 13.9373 211.317 17.5998 214.26 22.2836C214.554 22.7512 214.388 23.364 213.91 23.6401L212.775 24.2957C212.296 24.5718 211.687 24.4067 211.39 23.9406C208.813 19.8874 205.047 16.7175 200.594 14.8733C195.833 12.9013 190.555 12.5553 185.578 13.889C180.6 15.2227 176.202 18.1616 173.065 22.2497C170.131 26.073 168.454 30.7017 168.249 35.5003C168.225 36.0521 167.78 36.5 167.227 36.5H165.916Z" fill="#D9D9D9"/>
<path opacity="0.8" d="M217.354 36.5C217.906 36.5 218.356 36.948 218.335 37.4999C218.128 43.0277 216.21 48.3645 212.832 52.766C209.455 57.1676 204.797 60.402 199.511 62.0326C198.983 62.1954 198.434 61.877 198.291 61.3435L197.952 60.077C197.809 59.5435 198.126 58.9973 198.653 58.8317C203.235 57.3916 207.272 54.5736 210.205 50.7503C213.139 46.927 214.816 42.2984 215.021 37.4998C215.045 36.948 215.491 36.5 216.043 36.5L217.354 36.5Z" fill="#D9D9D9"/>
<path opacity="0.8" d="M184.977 61.3434C184.835 61.8769 184.285 62.1953 183.758 62.0325C177.647 60.1475 172.413 56.1315 169.01 50.7165C168.717 50.2489 168.882 49.636 169.36 49.3599L170.496 48.7043C170.974 48.4281 171.584 48.5934 171.88 49.0595C174.84 53.7156 179.352 57.1774 184.615 58.8316C185.142 58.9972 185.46 59.5434 185.317 60.0769L184.977 61.3434Z" fill="#D9D9D9"/>
<path d="M191.134 26C188.374 26 186.134 28.24 186.134 31C186.134 33.76 188.374 36 191.134 36C193.894 36 196.134 33.76 196.134 31C196.134 28.24 193.894 26 191.134 26ZM193.304 30.51L190.604 33.21C190.504 33.31 190.294 33.41 190.154 33.44L189.124 33.58C188.744 33.63 188.484 33.37 188.544 33L188.694 31.97C188.714 31.83 188.814 31.62 188.924 31.52L191.624 28.82C192.084 28.36 192.634 28.14 193.314 28.82C193.984 29.51 193.764 30.05 193.304 30.51Z" fill="white"/>
<path d="M191.134 38C186.124 38 182.044 41.36 182.044 45.5C182.044 45.78 182.264 46 182.544 46H199.724C200.004 46 200.224 45.78 200.224 45.5C200.224 41.36 196.144 38 191.134 38Z" fill="white"/>
<path d="M22.3809 48.5H152.003C155.558 48.5 157.709 52.4287 155.794 55.4241L150.679 63.4241C149.852 64.7174 148.423 65.5 146.888 65.5H17.2658C13.7106 65.5 11.5594 61.5713 13.4745 58.5759L18.5896 50.5759C19.4165 49.2826 20.8458 48.5 22.3809 48.5Z" fill="#D9D9D9" fill-opacity="0.45" stroke="white"/>
<path d="M61.5747 59.5713V55.4133H64.3827V56.1993H62.5107V57.0153H64.1727V57.7833H62.5107V58.7853H64.5207V59.5713H61.5747ZM66.1494 58.8093C66.1934 58.8133 66.2434 58.8173 66.2994 58.8213C66.3594 58.8213 66.4294 58.8213 66.5094 58.8213C66.9774 58.8213 67.3234 58.7033 67.5474 58.4673C67.7754 58.2313 67.8894 57.9053 67.8894 57.4893C67.8894 57.0533 67.7814 56.7233 67.5654 56.4993C67.3494 56.2753 67.0074 56.1633 66.5394 56.1633C66.4754 56.1633 66.4094 56.1653 66.3414 56.1693C66.2734 56.1693 66.2094 56.1733 66.1494 56.1813V58.8093ZM68.8554 57.4893C68.8554 57.8493 68.7994 58.1633 68.6874 58.4313C68.5754 58.6993 68.4154 58.9213 68.2074 59.0973C68.0034 59.2733 67.7534 59.4053 67.4574 59.4933C67.1614 59.5813 66.8294 59.6253 66.4614 59.6253C66.2934 59.6253 66.0974 59.6173 65.8734 59.6013C65.6494 59.5893 65.4294 59.5613 65.2134 59.5173V55.4673C65.4294 55.4273 65.6534 55.4013 65.8854 55.3893C66.1214 55.3733 66.3234 55.3653 66.4914 55.3653C66.8474 55.3653 67.1694 55.4053 67.4574 55.4853C67.7494 55.5653 67.9994 55.6913 68.2074 55.8633C68.4154 56.0353 68.5754 56.2553 68.6874 56.5233C68.7994 56.7913 68.8554 57.1133 68.8554 57.4893ZM69.6372 55.4133H70.5732V59.5713H69.6372V55.4133ZM74.6197 55.4133V56.2113H73.3657V59.5713H72.4297V56.2113H71.1757V55.4133H74.6197ZM77.9106 55.3653C78.5306 55.3653 79.0066 55.4753 79.3386 55.6953C79.6706 55.9113 79.8366 56.2673 79.8366 56.7633C79.8366 57.2633 79.6686 57.6253 79.3326 57.8493C78.9966 58.0693 78.5166 58.1793 77.8926 58.1793H77.5986V59.5713H76.6626V55.4733C76.8666 55.4333 77.0826 55.4053 77.3106 55.3893C77.5386 55.3733 77.7386 55.3653 77.9106 55.3653ZM77.9706 56.1633C77.9026 56.1633 77.8346 56.1653 77.7666 56.1693C77.7026 56.1733 77.6466 56.1773 77.5986 56.1813V57.3813H77.8926C78.2166 57.3813 78.4606 57.3373 78.6246 57.2493C78.7886 57.1613 78.8706 56.9973 78.8706 56.7573C78.8706 56.6413 78.8486 56.5453 78.8046 56.4693C78.7646 56.3933 78.7046 56.3333 78.6246 56.2893C78.5486 56.2413 78.4546 56.2093 78.3426 56.1933C78.2306 56.1733 78.1066 56.1633 77.9706 56.1633ZM81.742 55.3653C82.366 55.3653 82.844 55.4773 83.176 55.7013C83.508 55.9213 83.674 56.2653 83.674 56.7333C83.674 57.0253 83.606 57.2633 83.47 57.4473C83.338 57.6273 83.146 57.7693 82.894 57.8733C82.978 57.9773 83.066 58.0973 83.158 58.2333C83.25 58.3653 83.34 58.5053 83.428 58.6533C83.52 58.7973 83.608 58.9493 83.692 59.1093C83.776 59.2653 83.854 59.4193 83.926 59.5713H82.876C82.8 59.4353 82.722 59.2973 82.642 59.1573C82.566 59.0173 82.486 58.8813 82.402 58.7493C82.322 58.6173 82.242 58.4933 82.162 58.3773C82.082 58.2573 82.002 58.1493 81.922 58.0533H81.46V59.5713H80.524V55.4733C80.728 55.4333 80.938 55.4053 81.154 55.3893C81.374 55.3733 81.57 55.3653 81.742 55.3653ZM81.796 56.1633C81.728 56.1633 81.666 56.1653 81.61 56.1693C81.558 56.1733 81.508 56.1773 81.46 56.1813V57.3093H81.724C82.076 57.3093 82.328 57.2653 82.48 57.1773C82.632 57.0893 82.708 56.9393 82.708 56.7273C82.708 56.5233 82.63 56.3793 82.474 56.2953C82.322 56.2073 82.096 56.1633 81.796 56.1633ZM85.2064 57.4893C85.2064 57.6933 85.2304 57.8773 85.2784 58.0413C85.3304 58.2053 85.4024 58.3473 85.4944 58.4673C85.5904 58.5833 85.7064 58.6733 85.8424 58.7373C85.9784 58.8013 86.1344 58.8333 86.3104 58.8333C86.4824 58.8333 86.6364 58.8013 86.7724 58.7373C86.9124 58.6733 87.0284 58.5833 87.1204 58.4673C87.2164 58.3473 87.2884 58.2053 87.3364 58.0413C87.3884 57.8773 87.4144 57.6933 87.4144 57.4893C87.4144 57.2853 87.3884 57.1013 87.3364 56.9373C87.2884 56.7693 87.2164 56.6273 87.1204 56.5113C87.0284 56.3913 86.9124 56.2993 86.7724 56.2353C86.6364 56.1713 86.4824 56.1393 86.3104 56.1393C86.1344 56.1393 85.9784 56.1733 85.8424 56.2413C85.7064 56.3053 85.5904 56.3973 85.4944 56.5173C85.4024 56.6333 85.3304 56.7753 85.2784 56.9433C85.2304 57.1073 85.2064 57.2893 85.2064 57.4893ZM88.3804 57.4893C88.3804 57.8453 88.3264 58.1593 88.2184 58.4313C88.1144 58.6993 87.9704 58.9253 87.7864 59.1093C87.6024 59.2893 87.3824 59.4253 87.1264 59.5173C86.8744 59.6093 86.6024 59.6553 86.3104 59.6553C86.0264 59.6553 85.7584 59.6093 85.5064 59.5173C85.2544 59.4253 85.0344 59.2893 84.8464 59.1093C84.6584 58.9253 84.5104 58.6993 84.4024 58.4313C84.2944 58.1593 84.2404 57.8453 84.2404 57.4893C84.2404 57.1333 84.2964 56.8213 84.4084 56.5533C84.5204 56.2813 84.6704 56.0533 84.8584 55.8693C85.0504 55.6853 85.2704 55.5473 85.5184 55.4553C85.7704 55.3633 86.0344 55.3173 86.3104 55.3173C86.5944 55.3173 86.8624 55.3633 87.1144 55.4553C87.3664 55.5473 87.5864 55.6853 87.7744 55.8693C87.9624 56.0533 88.1104 56.2813 88.2184 56.5533C88.3264 56.8213 88.3804 57.1333 88.3804 57.4893ZM89.1607 59.5713V55.4133H91.9447V56.1993H90.0967V57.0693H91.7407V57.8553H90.0967V59.5713H89.1607ZM92.606 55.4133H93.542V59.5713H92.606V55.4133ZM97.2824 58.7673V59.5713H94.5044V55.4133H95.4404V58.7673H97.2824ZM97.8853 59.5713V55.4133H100.693V56.1993H98.8213V57.0153H100.483V57.7833H98.8213V58.7853H100.831V59.5713H97.8853Z" fill="white"/>
</svg>
