<svg width="443" height="453" viewBox="0 0 443 453" fill="none" xmlns="http://www.w3.org/2000/svg">
<path d="M442.245 272.917C442.082 272.242 441.918 271.567 441.693 270.871L441.386 269.869C441.284 269.542 441.161 269.194 441.08 268.969L439.955 266.004C436.935 258.56 433.466 251.307 429.565 244.284C425.884 237.474 421.998 230.929 418.215 224.467C414.431 218.004 410.668 211.643 407.314 205.406C405.698 202.297 404.083 199.27 402.855 196.305L401.956 194.259L401.281 192.337C401.056 191.7 400.865 191.051 400.708 190.394C400.524 189.74 400.381 189.003 400.197 188.349C399.007 181.663 398.263 174.906 397.968 168.122C397.518 160.841 397.211 153.254 396.556 145.38C396.02 136.948 394.65 128.59 392.466 120.429C391.092 115.532 389.026 110.855 386.331 106.542L385.758 105.663L385.472 105.213L385.247 104.906L384.367 103.699L382.608 101.286L379.07 96.4801L377.311 94.0668C376.718 93.2692 376.043 92.5329 375.43 91.7557L371.605 87.1541L367.781 82.573L363.691 78.1963C358.353 72.2653 352.504 66.8456 346.654 61.4464L337.512 53.7361L336.367 52.7749L335.181 51.875L332.788 50.0957L327.982 46.5167C302.073 27.6663 272.618 14.2535 241.39 7.08587C225.832 3.42147 209.94 1.3655 193.962 0.950375C145.749 -0.680603 98.1846 12.4252 57.6111 38.5201C45.4351 46.3523 33.9781 55.2496 23.3749 65.1072C23.216 85.5268 15.1529 105.091 0.878113 119.693L5.07074 128.528C7.04773 125.542 9.0929 122.617 11.2062 119.754C36.362 85.5469 70.9146 59.3855 110.663 44.451C136.978 34.6895 164.95 30.1734 193.001 31.1575C206.979 31.5048 220.884 33.2866 234.497 36.4749C248.119 39.628 261.41 44.0654 274.194 49.7276C286.908 55.5793 299.059 62.5825 310.496 70.6496L314.75 73.7583L316.795 75.2922L317.858 76.0693L318.861 76.8874L327.041 83.5751C332.215 88.2789 337.451 92.9624 342.175 98.1366L345.836 101.92L349.252 106.011L352.667 110.101C353.219 110.776 353.833 111.41 354.344 112.146L355.919 114.191L359.13 118.282L360.725 120.327L361.523 121.37L361.727 121.636V121.779L361.911 122.065C362.51 122.966 363.03 123.918 363.466 124.908C364.003 126.129 364.474 127.378 364.877 128.651C366.661 134.931 367.833 141.369 368.374 147.875C369.11 154.91 369.56 162.294 370.194 169.942C370.698 178.121 371.819 186.25 373.548 194.259C373.835 195.364 374.121 196.468 374.448 197.593C374.775 198.718 375.123 199.884 375.573 201.009L376.861 204.363L378.211 207.348C380.052 211.316 381.995 214.813 383.958 218.29C387.885 225.141 391.914 231.543 395.881 237.903C399.849 244.264 403.755 250.522 407.437 256.719C411.026 262.659 414.263 268.805 417.131 275.125L418.072 277.375C418.135 277.508 418.19 277.644 418.235 277.784L418.358 278.132C418.454 278.356 418.53 278.589 418.583 278.827C418.857 279.753 419.029 280.706 419.094 281.67C419.199 283.6 418.871 285.528 418.133 287.315C417.747 288.191 417.274 289.027 416.722 289.81L416.272 290.423L415.515 291.282C415.004 291.855 414.513 292.427 413.94 293C411.622 295.431 409.178 297.738 406.619 299.913C401.322 304.514 395.37 309.055 389.337 314.229C386.331 316.806 383.304 319.526 380.338 322.614C379.602 323.35 378.866 324.168 378.15 324.966L377.066 326.193C376.616 326.725 376.146 327.277 375.737 327.85C374.036 330.116 372.66 332.608 371.646 335.253C370.598 337.875 369.91 340.627 369.601 343.434C369.601 344.129 369.478 344.825 369.458 345.479C369.458 345.827 369.458 346.174 369.458 346.522V347.463V350.265L369.744 361.513L370.931 406.507V409.922C370.931 410.29 370.93 410.638 370.828 411.006C370.828 411.722 370.706 412.458 370.562 413.174L370.133 415.219C369.403 418.086 368.281 420.839 366.799 423.4C365.268 425.951 363.373 428.266 361.175 430.272C360.602 430.742 360.091 431.294 359.478 431.724L357.678 433.053C356.422 433.887 355.11 434.632 353.751 435.282C351.023 436.643 348.096 437.561 345.08 438.002L343.934 438.207L342.605 438.33L339.946 438.616C338.167 438.739 336.367 438.882 334.567 438.984C327.368 439.373 320.067 439.291 312.766 438.984C283.197 437.376 253.98 431.783 225.908 422.357C211.878 417.53 198.073 411.62 185.884 402.846C191.478 407.906 197.585 412.368 204.106 416.16C210.616 420.008 217.334 423.49 224.231 426.59C238.111 432.73 252.442 437.797 267.097 441.745C281.778 445.829 296.742 448.817 311.866 450.682C319.521 451.637 327.222 452.169 334.936 452.278C336.878 452.278 338.821 452.278 340.785 452.278H343.73H345.202C345.714 452.278 346.286 452.175 346.838 452.134C351.28 451.763 355.639 450.714 359.764 449.026C361.875 448.196 363.925 447.218 365.899 446.101L368.722 444.261C369.662 443.667 370.521 442.911 371.421 442.215C374.937 439.367 378.022 436.026 380.584 432.296C383.113 428.5 385.102 424.37 386.494 420.025L387.394 416.692C387.68 415.587 387.824 414.442 388.028 413.317C388.028 412.765 388.212 412.192 388.294 411.62L388.417 409.902L388.539 408.184V407.325V406.609L389.705 361.615L389.991 350.367V347.565V347.115C389.981 346.993 389.981 346.87 389.991 346.747C389.991 346.502 389.991 346.256 389.991 346.011C390.153 345.065 390.435 344.144 390.83 343.27C391.203 342.431 391.7 341.652 392.302 340.959C392.441 340.779 392.591 340.608 392.752 340.448L393.57 339.609C394.123 339.037 394.654 338.485 395.268 337.932C397.599 335.703 400.238 333.515 403.019 331.347C408.582 326.991 414.738 322.696 420.976 317.767C424.238 315.205 427.365 312.474 430.343 309.586C431.099 308.85 431.876 308.053 432.633 307.234L433.758 306.028C434.187 305.557 434.658 304.985 435.087 304.453C438.547 300.068 440.963 294.954 442.154 289.497C443.344 284.041 443.278 278.385 441.959 272.957L442.245 272.917Z" fill="white"/>
</svg>
