<svg width="1642" height="891" viewBox="0 0 1642 891" fill="none" xmlns="http://www.w3.org/2000/svg">
<path d="M314.375 0.5H489.75H661.055C663.534 0.5 665.915 1.46905 667.689 3.2003L705.799 40.3829C707.76 42.2964 710.391 43.3675 713.131 43.3675H1583.06C1585.66 43.3675 1588.16 44.4394 1589.95 46.3321L1638.89 97.9676C1640.57 99.7324 1641.5 102.071 1641.5 104.503V214.756C1641.5 217.406 1640.39 219.936 1638.45 221.734L1615.34 243.078C1613.19 245.066 1611.96 247.862 1611.96 250.791V447.635C1611.96 450.311 1612.98 452.886 1614.82 454.834L1638.92 480.424C1640.58 482.187 1641.5 484.516 1641.5 486.937V826.552C1641.5 828.902 1640.63 831.168 1639.06 832.913L1589.96 887.361C1588.16 889.359 1585.6 890.5 1582.91 890.5H906.493C904.009 890.5 901.623 889.527 899.848 887.789L843.765 832.891C841.803 830.97 839.166 829.894 836.42 829.894H10.563C5.32884 829.894 1.08076 825.661 1.06299 820.427L0.559997 672.308L0.559995 672.307L0.5 641.267V563.712C0.5 561.15 1.53478 558.697 3.36955 556.908L25.3884 535.449C27.4163 533.473 28.56 530.762 28.56 527.93V235.022C28.56 232.063 27.3114 229.241 25.1215 227.251L3.61103 207.704C1.62966 205.904 0.5 203.351 0.5 200.674V102.549V44.2097C0.5 41.6026 1.57146 39.11 3.46329 37.3161L39.5407 3.10642C41.3056 1.43287 43.6451 0.5 46.0774 0.5H314.375Z" stroke="white" stroke-opacity="0.3"/>
<path opacity="0.6" d="M0 224.267C0 219.931 5.13995 217.65 8.35457 220.559L19.3546 230.511C20.4023 231.459 21 232.806 21 234.219V527.929C21 529.255 20.4732 530.527 19.5355 531.464L8.53553 542.464C5.38571 545.614 0 543.383 0 538.929V224.267Z" fill="#D9D9D9"/>
<path opacity="0.6" d="M1640 238.925C1640 234.644 1634.97 232.343 1631.73 235.141L1619.73 245.504C1618.63 246.454 1618 247.835 1618 249.288V448.861C1618 450.227 1618.56 451.534 1619.55 452.477L1631.55 463.932C1634.73 466.969 1640 464.714 1640 460.315V238.925Z" fill="#D9D9D9"/>
<path d="M1626.57 356.45L1630.64 352.375C1631.13 351.894 1631.13 351.106 1630.64 350.625L1626.57 346.55" stroke="#292D32" stroke-width="1.5" stroke-miterlimit="10" stroke-linecap="round" stroke-linejoin="round"/>
<path d="M12.4312 385.45L8.35615 381.375C7.8749 380.894 7.8749 380.106 8.35615 379.625L12.4312 375.55" stroke="#292D32" stroke-width="1.5" stroke-miterlimit="10" stroke-linecap="round" stroke-linejoin="round"/>
</svg>
