<svg width="193" height="193" viewBox="0 0 193 193" fill="none" xmlns="http://www.w3.org/2000/svg">
<path d="M156.889 109.493C155.183 117.424 151.931 124.941 147.319 131.615C142.708 138.29 136.827 143.99 130.013 148.392C123.198 152.793 115.583 155.809 107.603 157.268C99.6231 158.727 91.4338 158.599 83.5029 156.893C75.5719 155.187 68.0547 151.935 61.3805 147.324C54.7062 142.712 49.0056 136.831 44.6041 130.017C40.2026 123.202 37.1864 115.588 35.7278 107.608C34.2691 99.6274 34.3965 91.438 36.1028 83.5071C37.809 75.5762 41.0607 68.059 45.6721 61.3848C50.2835 54.7105 56.1643 49.0099 62.9789 44.6084C69.7934 40.2069 77.4081 37.1907 85.3883 35.732C93.3684 34.2734 101.558 34.4008 109.489 36.1071C117.42 37.8133 124.937 41.065 131.611 45.6764C138.285 50.2878 143.986 56.1686 148.387 62.9831C152.789 69.7976 155.805 77.4124 157.264 85.3925C158.722 93.3727 158.595 101.562 156.889 109.493L156.889 109.493Z" stroke="white"/>
<path opacity="0.8" d="M166.138 96.4999C166.69 96.4999 167.138 96.0518 167.13 95.4996C166.915 80.3016 161.803 65.5679 152.539 53.4952C143.073 41.1578 129.799 32.289 114.778 28.2641C99.7574 24.2392 83.828 25.2833 69.4608 31.2344C55.4019 37.0578 43.6077 47.2614 35.8224 60.3157C35.5395 60.7901 35.7039 61.4023 36.1822 61.6784L42.0315 65.0556C42.5098 65.3317 43.1208 65.1672 43.4046 64.6934C50.2257 53.3078 60.5324 44.4082 72.8109 39.3222C85.3977 34.1086 99.353 33.1939 112.513 36.72C125.672 40.2461 137.301 48.016 145.594 58.8245C153.685 69.3683 158.161 82.2289 158.375 95.4997C158.384 96.0519 158.831 96.4999 159.383 96.4999H166.138Z" fill="#D9D9D9"/>
<path opacity="0.8" d="M26.857 96.5C26.3047 96.5 25.8562 96.948 25.8641 97.5002C26.0792 112.698 31.1914 127.432 40.4551 139.505C49.7188 151.577 62.6274 160.329 77.2518 164.47C77.7832 164.621 78.332 164.303 78.475 163.77L80.2231 157.246C80.366 156.712 80.049 156.165 79.5179 156.013C66.7548 152.371 55.4909 144.719 47.4003 134.175C39.3098 123.632 34.8337 110.771 34.6193 97.5001C34.6104 96.9479 34.1635 96.5 33.6112 96.5L26.857 96.5Z" fill="#D9D9D9"/>
<path opacity="0.8" d="M114.525 163.77C114.668 164.303 115.217 164.621 115.748 164.47C133.108 159.554 147.931 148.18 157.172 132.684C157.455 132.21 157.291 131.598 156.813 131.322L150.963 127.944C150.485 127.668 149.874 127.833 149.59 128.307C141.511 141.793 128.6 151.7 113.482 156.013C112.951 156.165 112.634 156.712 112.777 157.246L114.525 163.77Z" fill="#D9D9D9"/>
</svg>
