<svg viewBox="22 24 662 336" fill="none" xmlns="http://www.w3.org/2000/svg">
<g filter="url(#filter0_d_9_38)">
<path d="M657.018 24.7069C657.079 24.6428 657.125 24.5729 657.157 24.5H674C679.247 24.5 683.5 28.7533 683.5 34V40.9907V41L683 54.9822L683 54.9929L683 55.0036L683.5 125V125.004V142V309.827C683.5 312.641 682.253 315.309 680.095 317.114L658.964 334.787C657.255 336.217 655.098 337 652.869 337H241.142C238.357 337 235.687 338.106 233.718 340.075L220.075 353.717C218.294 355.499 215.877 356.5 213.358 356.5H35C29.7533 356.5 25.5 352.247 25.5 347V171.399C25.5 168.736 26.6176 166.195 28.5806 164.396L40.0951 153.841C42.2647 151.852 43.5 149.044 43.5 146.101V81.8908C43.5 78.6506 42.004 75.5919 39.4464 73.6026L29.1676 65.608C26.8535 63.8082 25.5 61.0408 25.5 58.1092V34C25.5 28.7533 29.7533 24.5 35 24.5H213.207C215.811 24.5 218.301 25.5689 220.094 27.4569L233.181 41.2319C235.163 43.3185 237.915 44.5 240.793 44.5H633.707C636.585 44.5 639.337 43.3185 641.319 41.2319L657.018 24.7069Z" stroke="white" stroke-opacity="0.3" shape-rendering="crispEdges"/>
</g>
<path d="M623.721 24.5H646.195C647.529 24.5 648.199 26.1105 647.26 27.057L635.343 39.057C635.061 39.3405 634.678 39.5 634.279 39.5H611.805C610.471 39.5 609.801 37.8895 610.74 36.943L622.657 24.943C622.939 24.6595 623.322 24.5 623.721 24.5Z" fill="#D9D9D9" stroke="white"/>
<path d="M250.279 356.5L227.805 356.5C226.471 356.5 225.801 354.889 226.74 353.943L238.657 341.943C238.939 341.659 239.322 341.5 239.721 341.5L262.195 341.5C263.529 341.5 264.199 343.111 263.26 344.057L251.343 356.057C251.061 356.341 250.678 356.5 250.279 356.5Z" fill="#D9D9D9" stroke="white"/>
<path d="M591.721 24.5H614.195C615.529 24.5 616.199 26.1105 615.26 27.057L603.343 39.057C603.061 39.3405 602.678 39.5 602.279 39.5H579.805C578.471 39.5 577.801 37.8895 578.74 36.943L590.657 24.943C590.939 24.6595 591.322 24.5 591.721 24.5Z" stroke="white"/>
<path d="M282.279 356.5L259.805 356.5C258.471 356.5 257.801 354.889 258.74 353.943L270.657 341.943C270.939 341.659 271.322 341.5 271.721 341.5L294.195 341.5C295.529 341.5 296.199 343.111 295.26 344.057L283.343 356.057C283.061 356.341 282.678 356.5 282.279 356.5Z" stroke="white"/>
<path d="M559.721 24.5H582.195C583.529 24.5 584.199 26.1105 583.26 27.057L571.343 39.057C571.061 39.3405 570.678 39.5 570.279 39.5H547.805C546.471 39.5 545.801 37.8895 546.74 36.943L558.657 24.943C558.939 24.6595 559.322 24.5 559.721 24.5Z" stroke="white"/>
<path d="M314.279 356.5L291.805 356.5C290.471 356.5 289.801 354.889 290.74 353.943L302.657 341.943C302.939 341.659 303.322 341.5 303.721 341.5L326.195 341.5C327.529 341.5 328.199 343.111 327.26 344.057L315.343 356.057C315.061 356.341 314.678 356.5 314.279 356.5Z" stroke="white"/>
<path opacity="0.6" d="M25 71.2857C25 69.5874 26.9831 68.662 28.2847 69.7529L39.2847 78.9719C39.7381 79.3519 40 79.9132 40 80.5048V146.639C40 147.206 39.7587 147.747 39.3363 148.127L28.3363 158.004C27.0487 159.16 25 158.247 25 156.516V71.2857Z" fill="#D9D9D9"/>
<defs>
<filter id="filter0_d_9_38" x="0" y="0" width="709" height="383" filterUnits="userSpaceOnUse" color-interpolation-filters="sRGB">
<feFlood flood-opacity="0" result="BackgroundImageFix"/>
<feColorMatrix in="SourceAlpha" type="matrix" values="0 0 0 0 0 0 0 0 0 0 0 0 0 0 0 0 0 0 127 0" result="hardAlpha"/>
<feOffset dy="1"/>
<feGaussianBlur stdDeviation="12.5"/>
<feComposite in2="hardAlpha" operator="out"/>
<feColorMatrix type="matrix" values="0 0 0 0 0 0 0 0 0 0 0 0 0 0 0 0 0 0 0.85 0"/>
<feBlend mode="normal" in2="BackgroundImageFix" result="effect1_dropShadow_9_38"/>
<feBlend mode="normal" in="SourceGraphic" in2="effect1_dropShadow_9_38" result="shape"/>
</filter>
</defs>
</svg>
