<svg width="153" height="18" viewBox="0 0 153 18" fill="none" xmlns="http://www.w3.org/2000/svg">
<path d="M14.2466 0.5H143.868C147.424 0.5 149.575 4.42874 147.66 7.42407L142.545 15.4241C141.718 16.7174 140.288 17.5 138.753 17.5H9.13155C5.5763 17.5 3.42512 13.5713 5.34027 10.5759L10.4553 2.57593C11.2823 1.28257 12.7115 0.5 14.2466 0.5Z" fill="#D9D9D9" fill-opacity="0.45" stroke="white"/>
<path d="M63.7507 10.7673V11.5713H60.9727V7.41329H61.9087V10.7673H63.7507ZM65.0224 9.48929C65.0224 9.69329 65.0464 9.87729 65.0944 10.0413C65.1464 10.2053 65.2184 10.3473 65.3104 10.4673C65.4064 10.5833 65.5224 10.6733 65.6584 10.7373C65.7944 10.8013 65.9504 10.8333 66.1264 10.8333C66.2984 10.8333 66.4524 10.8013 66.5884 10.7373C66.7284 10.6733 66.8444 10.5833 66.9364 10.4673C67.0324 10.3473 67.1044 10.2053 67.1524 10.0413C67.2044 9.87729 67.2304 9.69329 67.2304 9.48929C67.2304 9.28529 67.2044 9.10129 67.1524 8.93729C67.1044 8.76929 67.0324 8.62729 66.9364 8.51129C66.8444 8.39129 66.7284 8.29929 66.5884 8.23529C66.4524 8.17129 66.2984 8.13929 66.1264 8.13929C65.9504 8.13929 65.7944 8.17329 65.6584 8.24129C65.5224 8.30529 65.4064 8.39729 65.3104 8.51729C65.2184 8.63329 65.1464 8.77529 65.0944 8.94329C65.0464 9.10729 65.0224 9.28929 65.0224 9.48929ZM68.1964 9.48929C68.1964 9.84529 68.1424 10.1593 68.0344 10.4313C67.9304 10.6993 67.7864 10.9253 67.6024 11.1093C67.4184 11.2893 67.1984 11.4253 66.9424 11.5173C66.6904 11.6093 66.4184 11.6553 66.1264 11.6553C65.8424 11.6553 65.5744 11.6093 65.3224 11.5173C65.0704 11.4253 64.8504 11.2893 64.6624 11.1093C64.4744 10.9253 64.3264 10.6993 64.2184 10.4313C64.1104 10.1593 64.0564 9.84529 64.0564 9.48929C64.0564 9.13329 64.1124 8.82129 64.2244 8.55329C64.3364 8.28129 64.4864 8.05329 64.6744 7.86929C64.8664 7.68529 65.0864 7.54729 65.3344 7.45529C65.5864 7.36329 65.8504 7.31729 66.1264 7.31729C66.4104 7.31729 66.6784 7.36329 66.9304 7.45529C67.1824 7.54729 67.4024 7.68529 67.5904 7.86929C67.7784 8.05329 67.9264 8.28129 68.0344 8.55329C68.1424 8.82129 68.1964 9.13329 68.1964 9.48929ZM71.0046 8.13329C70.5686 8.13329 70.2526 8.25529 70.0566 8.49929C69.8646 8.73929 69.7686 9.06929 69.7686 9.48929C69.7686 9.69329 69.7926 9.87929 69.8406 10.0473C69.8886 10.2113 69.9606 10.3533 70.0566 10.4733C70.1526 10.5933 70.2726 10.6873 70.4166 10.7553C70.5606 10.8193 70.7286 10.8513 70.9206 10.8513C71.0246 10.8513 71.1126 10.8493 71.1846 10.8453C71.2606 10.8413 71.3266 10.8333 71.3826 10.8213V9.37529H72.3186V11.4333C72.2066 11.4773 72.0266 11.5233 71.7786 11.5713C71.5306 11.6233 71.2246 11.6493 70.8606 11.6493C70.5486 11.6493 70.2646 11.6013 70.0086 11.5053C69.7566 11.4093 69.5406 11.2693 69.3606 11.0853C69.1806 10.9013 69.0406 10.6753 68.9406 10.4073C68.8446 10.1393 68.7966 9.83329 68.7966 9.48929C68.7966 9.14129 68.8506 8.83329 68.9586 8.56529C69.0666 8.29729 69.2146 8.07129 69.4026 7.88729C69.5906 7.69929 69.8106 7.55729 70.0626 7.46129C70.3186 7.36529 70.5906 7.31729 70.8786 7.31729C71.0746 7.31729 71.2506 7.33129 71.4066 7.35929C71.5666 7.38329 71.7026 7.41329 71.8146 7.44929C71.9306 7.48129 72.0246 7.51529 72.0966 7.55129C72.1726 7.58729 72.2266 7.61529 72.2586 7.63529L71.9886 8.38529C71.8606 8.31729 71.7126 8.25929 71.5446 8.21129C71.3806 8.15929 71.2006 8.13329 71.0046 8.13329ZM73.9755 9.48929C73.9755 9.69329 73.9995 9.87729 74.0475 10.0413C74.0995 10.2053 74.1715 10.3473 74.2635 10.4673C74.3595 10.5833 74.4755 10.6733 74.6115 10.7373C74.7475 10.8013 74.9035 10.8333 75.0795 10.8333C75.2515 10.8333 75.4055 10.8013 75.5415 10.7373C75.6815 10.6733 75.7975 10.5833 75.8895 10.4673C75.9855 10.3473 76.0575 10.2053 76.1055 10.0413C76.1575 9.87729 76.1835 9.69329 76.1835 9.48929C76.1835 9.28529 76.1575 9.10129 76.1055 8.93729C76.0575 8.76929 75.9855 8.62729 75.8895 8.51129C75.7975 8.39129 75.6815 8.29929 75.5415 8.23529C75.4055 8.17129 75.2515 8.13929 75.0795 8.13929C74.9035 8.13929 74.7475 8.17329 74.6115 8.24129C74.4755 8.30529 74.3595 8.39729 74.2635 8.51729C74.1715 8.63329 74.0995 8.77529 74.0475 8.94329C73.9995 9.10729 73.9755 9.28929 73.9755 9.48929ZM77.1495 9.48929C77.1495 9.84529 77.0955 10.1593 76.9875 10.4313C76.8835 10.6993 76.7395 10.9253 76.5555 11.1093C76.3715 11.2893 76.1515 11.4253 75.8955 11.5173C75.6435 11.6093 75.3715 11.6553 75.0795 11.6553C74.7955 11.6553 74.5275 11.6093 74.2755 11.5173C74.0235 11.4253 73.8035 11.2893 73.6155 11.1093C73.4275 10.9253 73.2795 10.6993 73.1715 10.4313C73.0635 10.1593 73.0095 9.84529 73.0095 9.48929C73.0095 9.13329 73.0655 8.82129 73.1775 8.55329C73.2895 8.28129 73.4395 8.05329 73.6275 7.86929C73.8195 7.68529 74.0395 7.54729 74.2875 7.45529C74.5395 7.36329 74.8035 7.31729 75.0795 7.31729C75.3635 7.31729 75.6315 7.36329 75.8835 7.45529C76.1355 7.54729 76.3555 7.68529 76.5435 7.86929C76.7315 8.05329 76.8795 8.28129 76.9875 8.55329C77.0955 8.82129 77.1495 9.13329 77.1495 9.48929ZM79.5557 11.6553C79.2637 11.6553 79.0117 11.6153 78.7997 11.5353C78.5877 11.4513 78.4117 11.3373 78.2717 11.1933C78.1357 11.0453 78.0337 10.8713 77.9657 10.6713C77.9017 10.4673 77.8697 10.2433 77.8697 9.99929V7.41329H78.8057V9.92129C78.8057 10.0893 78.8237 10.2333 78.8597 10.3533C78.8997 10.4693 78.9517 10.5653 79.0157 10.6413C79.0837 10.7133 79.1637 10.7653 79.2557 10.7973C79.3517 10.8293 79.4557 10.8453 79.5677 10.8453C79.7957 10.8453 79.9797 10.7753 80.1197 10.6353C80.2637 10.4953 80.3357 10.2573 80.3357 9.92129V7.41329H81.2717V9.99929C81.2717 10.2433 81.2377 10.4673 81.1697 10.6713C81.1017 10.8753 80.9977 11.0513 80.8577 11.1993C80.7177 11.3433 80.5397 11.4553 80.3237 11.5353C80.1077 11.6153 79.8517 11.6553 79.5557 11.6553ZM85.2559 7.41329V8.21129H84.0019V11.5713H83.0659V8.21129H81.8119V7.41329H85.2559Z" fill="white"/>
</svg>
