<svg width="1530" height="917" viewBox="0 0 1530 917" fill="none" xmlns="http://www.w3.org/2000/svg">
<path d="M1526.09 73.0141C1526.09 70.212 1524.92 67.5384 1522.85 65.6444L1454.15 2.63029C1452.3 0.93855 1449.89 0 1447.39 0H1072.94H769.893H671.773C669.113 0 666.563 1.05959 664.686 2.94442L623.382 44.4302C621.505 46.315 618.955 47.3746 616.295 47.3746H53.9535H11.8679C6.34507 47.3746 1.86792 51.8518 1.86792 57.3746V398.77C1.86792 401.876 3.3113 404.806 5.77409 406.699L29.2131 424.714C31.6759 426.606 33.1193 429.536 33.1193 432.642V546.179C33.1193 548.868 32.0362 551.444 30.1146 553.325L4.8726 578.035C2.95096 579.916 1.86792 582.492 1.86792 585.181V907C1.86792 912.523 6.34507 917 11.8679 917H846.6L885.428 916.266H1516.09C1521.62 916.266 1526.09 911.789 1526.09 906.266V581.313C1526.09 578.547 1524.95 575.903 1522.93 574.013L1500.85 553.348C1498.83 551.457 1497.68 548.814 1497.68 546.047V432.356C1497.68 429.413 1498.98 426.62 1501.23 424.72L1522.55 406.693C1524.8 404.793 1526.09 401.999 1526.09 399.056V73.0141Z" fill="#D9D9D9" fill-opacity="0.05"/>
<path d="M885.418 915.766H885.428H1516.09C1521.34 915.766 1525.59 911.513 1525.59 906.266V581.313C1525.59 578.685 1524.51 576.174 1522.59 574.378L1500.51 553.713C1498.39 551.727 1497.18 548.952 1497.18 546.047V432.356C1497.18 429.266 1498.55 426.333 1500.91 424.338L1522.23 406.311C1524.36 404.506 1525.59 401.852 1525.59 399.056V73.0141C1525.59 70.3521 1524.48 67.8122 1522.52 66.0129L1453.81 2.99878C1452.06 1.39162 1449.77 0.5 1447.39 0.5H1072.94H769.893H671.773C669.246 0.5 666.824 1.50661 665.041 3.2972L623.736 44.783C621.766 46.7621 619.088 47.8746 616.295 47.8746H53.9535H11.8679C6.62122 47.8746 2.36792 52.1279 2.36792 57.3746V398.77C2.36792 401.721 3.73914 404.504 6.07874 406.303L29.5178 424.317C32.1038 426.305 33.6193 429.381 33.6193 432.642V546.179C33.6193 549.003 32.4821 551.707 30.4644 553.683L5.22241 578.392C3.39685 580.179 2.36792 582.626 2.36792 585.181V907C2.36792 912.247 6.62122 916.5 11.8679 916.5L846.591 916.5L846.6 916.5L885.418 915.766Z" stroke="white" stroke-opacity="0.7"/>
<path d="M584.998 6.19448C585.374 5.81639 585.885 5.60376 586.417 5.60376H633.29C635.068 5.60376 635.962 7.75111 634.709 9.01304L609.002 34.8998C608.626 35.2779 608.115 35.4906 607.583 35.4906H560.71C558.932 35.4906 558.038 33.3432 559.291 32.0813L584.998 6.19448Z" fill="#D9D9D9"/>
<path d="M586.417 6.10376H633.29C634.623 6.10376 635.294 7.71427 634.354 8.66072L608.647 34.5475C608.365 34.8311 607.982 34.9906 607.583 34.9906H560.71C559.377 34.9906 558.706 33.38 559.646 32.4336L585.353 6.5468C585.635 6.26323 586.018 6.10376 586.417 6.10376Z" stroke="white" stroke-opacity="0.3"/>
<path d="M526.644 6.10376H573.516C574.85 6.10376 575.52 7.71427 574.58 8.66072L548.873 34.5475C548.592 34.8311 548.209 34.9906 547.809 34.9906H500.937C499.603 34.9906 498.933 33.38 499.872 32.4336L525.579 6.5468C525.861 6.26323 526.244 6.10376 526.644 6.10376Z" stroke="white" stroke-opacity="0.3"/>
<path d="M466.87 6.10376H513.742C515.076 6.10376 515.747 7.71427 514.807 8.66072L489.1 34.5475C488.818 34.8311 488.435 34.9906 488.035 34.9906H441.163C439.829 34.9906 439.159 33.38 440.099 32.4336L465.806 6.5468C466.088 6.26323 466.471 6.10376 466.87 6.10376Z" stroke="white" stroke-opacity="0.3"/>
<g opacity="0.2">
<path d="M0 414.286C0 412.587 1.98305 411.662 3.28467 412.753L27.3035 432.883C27.757 433.263 28.0189 433.824 28.0189 434.416V548.325C28.0189 548.893 27.7776 549.434 27.3551 549.814L3.33625 571.382C2.04869 572.538 0 571.624 0 569.893V414.286Z" fill="#D9D9D9"/>
<path d="M17.6169 500.501L10.0051 492.889C9.10615 491.99 9.10615 490.519 10.0051 489.62L17.6169 482.008" stroke="#292D32" stroke-width="1.5" stroke-miterlimit="10" stroke-linecap="round" stroke-linejoin="round"/>
</g>
<g opacity="0.2">
<path d="M1529.83 412.418C1529.83 410.719 1527.85 409.794 1526.55 410.885L1502.53 431.015C1502.07 431.395 1501.81 431.956 1501.81 432.548V546.457C1501.81 547.025 1502.05 547.566 1502.48 547.945L1526.49 569.513C1527.78 570.67 1529.83 569.756 1529.83 568.025V412.418Z" fill="#D9D9D9"/>
<path d="M1512.21 500.501L1519.83 492.889C1520.72 491.99 1520.72 490.519 1519.83 489.62L1512.21 482.008" stroke="#292D32" stroke-width="1.5" stroke-miterlimit="10" stroke-linecap="round" stroke-linejoin="round"/>
</g>
</svg>
