<svg width="230" height="45" viewBox="0 0 230 45" fill="none" xmlns="http://www.w3.org/2000/svg">
<path d="M58.9026 18.2763H60.7816V20.8691C61.5473 18.6308 62.7833 18.0726 66.9692 18.0726C70.487 18.0726 71.8356 18.7446 72.4737 20.8691C73.2943 18.689 74.8005 18.0726 79.2717 18.0726C83.9805 18.0726 85.3291 19.1917 85.3291 23.1629V31.4967H83.4501V23.2502C83.4501 20.4537 82.5243 19.7526 78.7688 19.7526C74.6955 19.7526 73.0566 20.9008 73.0566 23.7211V31.5047H71.1751V23.2502C71.1751 20.4537 70.2493 19.7526 66.4938 19.7526C62.393 19.7526 60.7816 20.8717 60.7816 23.7211V31.5047H58.9026V18.2763Z" fill="white"/>
<path d="M103.947 19.3954C105.03 20.4299 105.48 22.0252 105.48 24.9884C105.48 27.7584 105.003 29.3802 103.947 30.3855C102.891 31.3909 101.169 31.7084 97.3338 31.7084C93.4982 31.7084 91.8043 31.3724 90.7459 30.3855C89.6876 29.3987 89.2122 27.7584 89.2122 24.8773C89.2122 21.9961 89.6625 20.4008 90.7459 19.3954C91.7793 18.4165 93.5232 18.0726 97.3338 18.0726C101.144 18.0726 102.888 18.4165 103.947 19.3954ZM91.9644 20.9326C91.434 21.6337 91.1963 22.8904 91.1963 24.8773C91.1963 27.1155 91.4865 28.4013 92.1746 29.0706C92.8626 29.74 94.2112 30.0231 97.3588 30.0231C100.772 30.0231 102.04 29.7426 102.728 28.8484C103.229 28.15 103.496 26.8906 103.496 24.9619C103.496 22.6681 103.206 21.4088 102.518 20.7103C101.83 20.0119 100.481 19.7579 97.3863 19.7579C93.921 19.7579 92.6525 20.0383 91.9644 20.9326Z" fill="white"/>
<path d="M109.341 18.2763H111.218V20.9061C112.038 18.5012 113.362 17.9139 117.911 17.9139C120.608 17.9139 121.984 18.1917 122.99 19.0039C123.996 19.8161 124.391 20.9617 124.391 23.1708V31.5047H122.512V23.2819C122.512 20.4299 121.586 19.787 117.38 19.787C112.877 19.787 111.218 20.8453 111.218 23.729V31.5047H109.341V18.2763Z" fill="white"/>
<path d="M128.622 12.6834H130.498V23.5915H131.584L139.466 18.2763H142.613L133.488 24.4302L143.496 31.5047H140.381L131.574 25.2688H130.498V31.5047H128.622V12.6834Z" fill="white"/>
<path d="M146.449 18.2763L152.874 30.1289L159.302 18.271H161.419L154.225 31.4994H151.5L144.305 18.271L146.449 18.2763Z" fill="white"/>
<path d="M163.93 12.6834H165.807V15.1148H163.93V12.6834ZM163.93 18.2763H165.807V31.5047H163.93V18.2763Z" fill="white"/>
<path d="M182.893 21.7157C182.893 20.0939 182.048 19.7579 177.709 19.7579C172.577 19.7579 171.679 20.0939 171.679 21.9961C171.679 22.8639 171.944 23.3375 172.552 23.5835C173.053 23.8058 173.849 23.8349 177.366 23.8481C182.075 23.8772 182.816 23.9619 183.847 24.5201C184.825 25.0492 185.223 25.9197 185.223 27.6526C185.223 29.5548 184.722 30.5628 183.501 31.092C182.39 31.5682 181.149 31.6793 177.314 31.6793C173.108 31.6793 171.784 31.5126 170.834 30.8697C169.833 30.1686 169.51 29.359 169.51 27.3457V27.0097H171.442V27.3457C171.442 28.687 171.547 29.0495 172.102 29.3855C172.79 29.8617 174.139 30.0019 177.789 30.0019C182.631 30.0019 183.239 29.7374 183.239 27.7372C183.239 26.7583 183.053 26.2821 182.576 26.0017C181.89 25.6101 181.81 25.5837 177.261 25.5546C171.917 25.499 171.784 25.499 170.859 24.8826C170.065 24.3799 169.695 23.4301 169.695 21.9723C169.695 20.4061 170.173 19.3267 171.124 18.8399C172.207 18.2525 173.688 18.0462 177.076 18.0462C181.412 18.0462 182.736 18.2419 183.767 19.0251C184.482 19.5542 184.767 20.3955 184.767 21.766V21.9908H182.888L182.893 21.7157Z" fill="white"/>
<path d="M188.921 12.6834H190.8V15.1148H188.921V12.6834ZM188.921 18.2763H190.8V31.5047H188.921V18.2763Z" fill="white"/>
<path d="M209.423 19.3954C210.506 20.4299 210.956 22.0252 210.956 24.9884C210.956 27.7584 210.481 29.3802 209.423 30.3855C208.364 31.3909 206.645 31.7084 202.81 31.7084C198.974 31.7084 197.283 31.3724 196.224 30.3855C195.166 29.3987 194.691 27.7584 194.691 24.8773C194.691 21.9961 195.138 20.4008 196.224 19.3954C197.255 18.4165 199.002 18.0726 202.81 18.0726C206.618 18.0726 208.364 18.4165 209.423 19.3954ZM197.44 20.9326C196.912 21.6337 196.672 22.8904 196.672 24.8773C196.672 27.1155 196.965 28.4013 197.653 29.0706C198.341 29.74 199.69 30.0231 202.835 30.0231C206.247 30.0231 207.519 29.7426 208.204 28.8484C208.704 28.15 208.972 26.8906 208.972 24.9619C208.972 22.6681 208.682 21.4088 207.994 20.7103C207.306 20.0119 205.957 19.7579 202.862 19.7579C199.397 19.7579 198.128 20.0383 197.44 20.9326Z" fill="white"/>
<path d="M214.817 18.2763H216.693V20.9061C217.512 18.5012 218.835 17.9139 223.384 17.9139C226.081 17.9139 227.457 18.1917 228.463 19.0039C229.469 19.8161 229.864 20.9617 229.864 23.1708V31.5047H227.985V23.2819C227.985 20.4299 227.062 19.787 222.856 19.787C218.352 19.787 216.693 20.8453 216.693 23.729V31.5047H214.817V18.2763Z" fill="white"/>
<path d="M45.4887 23.4151C45.4756 23.3581 45.4625 23.301 45.4446 23.2422L45.42 23.1575C45.4118 23.1298 45.402 23.1004 45.3955 23.0814L45.3055 22.8306C45.0641 22.2012 44.7866 21.5879 44.4747 20.9941C44.1804 20.4182 43.8696 19.8648 43.5671 19.3184C43.2645 18.7719 42.9636 18.2341 42.6954 17.7066C42.5662 17.4438 42.437 17.1878 42.3389 16.9371L42.2669 16.7641L42.2129 16.6016C42.195 16.5477 42.1797 16.4929 42.1671 16.4373C42.1524 16.382 42.141 16.3197 42.1263 16.2644C42.0311 15.6991 41.9716 15.1277 41.948 14.5541C41.912 13.9384 41.8875 13.2969 41.8351 12.6311C41.7923 11.9181 41.6827 11.2114 41.5081 10.5213C41.3982 10.1072 41.233 9.7118 41.0174 9.34709L40.9716 9.27273L40.9487 9.23468L40.9308 9.20874L40.8604 9.10672L40.7198 8.90266L40.4369 8.49627L40.2962 8.29221C40.2488 8.22476 40.1948 8.16251 40.1457 8.09679L39.8399 7.7077L39.5341 7.32033L39.207 6.95025C38.7802 6.44875 38.3124 5.99048 37.8447 5.53394L37.1136 4.88199L37.0221 4.80071L36.9272 4.72462L36.7359 4.57417L36.3515 4.27153C34.2797 2.67761 31.9243 1.54348 29.4271 0.937404C28.1831 0.627555 26.9122 0.453709 25.6345 0.418607C21.7791 0.280698 17.9756 1.38887 14.7311 3.59537C13.7574 4.25764 12.8412 5.00996 11.9934 5.84349C11.9807 7.5701 11.3359 9.22436 10.1944 10.459L10.5296 11.2061C10.6877 10.9536 10.8513 10.7063 11.0203 10.4642C13.0319 7.57179 15.7949 5.35968 18.9734 4.09687C21.0778 3.27147 23.3146 2.8896 25.5577 2.97281C26.6754 3.00218 27.7873 3.15285 28.876 3.42244C29.9652 3.68905 31.0281 4.06427 32.0503 4.54304C33.067 5.03784 34.0387 5.63 34.9532 6.31213L35.2934 6.57499L35.4569 6.70469L35.542 6.7704L35.6221 6.83958L36.2763 7.40506C36.6901 7.80281 37.1087 8.19882 37.4865 8.63634L37.7793 8.95627L38.0524 9.30213L38.3255 9.64799C38.3697 9.70506 38.4187 9.75867 38.4596 9.82093L38.5855 9.99386L38.8423 10.3397L38.9699 10.5127L39.0336 10.6009L39.05 10.6233V10.6354L39.0647 10.6596C39.1126 10.7359 39.1542 10.8163 39.189 10.9C39.232 11.0033 39.2697 11.1089 39.3019 11.2165C39.4446 11.7475 39.5382 12.2919 39.5815 12.842C39.6404 13.4369 39.6764 14.0612 39.7271 14.708C39.7674 15.3995 39.857 16.0869 39.9953 16.7641C40.0182 16.8575 40.0411 16.9509 40.0672 17.046C40.0934 17.1411 40.1212 17.2397 40.1572 17.3348L40.2602 17.6184L40.3682 17.8709C40.5154 18.2064 40.6707 18.5021 40.8277 18.7961C41.1417 19.3754 41.4639 19.9167 41.7812 20.4545C42.0984 20.9923 42.4108 21.5215 42.7052 22.0455C42.9923 22.5478 43.2511 23.0675 43.4804 23.6019L43.5556 23.7921C43.5607 23.8033 43.5651 23.8149 43.5687 23.8267L43.5785 23.8561C43.5862 23.8751 43.5923 23.8947 43.5965 23.9149C43.6184 23.9932 43.6322 24.0738 43.6374 24.1553C43.6458 24.3184 43.6195 24.4815 43.5605 24.6326C43.5297 24.7067 43.4919 24.7774 43.4477 24.8435L43.4117 24.8954L43.3512 24.9681C43.3103 25.0165 43.2711 25.0649 43.2253 25.1133C43.0399 25.3188 42.8445 25.5139 42.6398 25.6978C42.2162 26.0869 41.7403 26.4708 41.2578 26.9083C41.0174 27.1262 40.7754 27.3562 40.5382 27.6174C40.4794 27.6796 40.4205 27.7488 40.3633 27.8162L40.2766 27.92C40.2406 27.965 40.203 28.0117 40.1703 28.0601C40.0343 28.2517 39.9242 28.4624 39.8432 28.6861C39.7593 28.9078 39.7043 29.1405 39.6796 29.3778C39.6796 29.4366 39.6698 29.4954 39.6682 29.5508C39.6682 29.5801 39.6682 29.6095 39.6682 29.6389V29.7185V29.9554L39.6911 30.9065L39.786 34.711V34.9998C39.786 35.031 39.7859 35.0604 39.7778 35.0915C39.7778 35.152 39.768 35.2143 39.7565 35.2748L39.7222 35.4477C39.6638 35.6902 39.5741 35.9229 39.4556 36.1395C39.3331 36.3552 39.1816 36.5509 39.0058 36.7205C38.9601 36.7603 38.9192 36.807 38.8701 36.8433L38.7262 36.9557C38.6258 37.0262 38.5209 37.0892 38.4122 37.1442C38.194 37.2592 37.96 37.3369 37.7188 37.3742L37.6272 37.3915L37.5209 37.4019L37.3083 37.4261C37.166 37.4365 37.0221 37.4486 36.8781 37.4572C36.3025 37.4901 35.7186 37.4831 35.1348 37.4572C32.7703 37.3213 30.4339 36.8483 28.1891 36.0513C27.0672 35.6431 25.9633 35.1434 24.9885 34.4015C25.4359 34.8294 25.9243 35.2067 26.4457 35.5273C26.9662 35.8526 27.5035 36.1471 28.055 36.4092C29.1649 36.9284 30.3109 37.3568 31.4828 37.6907C32.6568 38.036 33.8534 38.2886 35.0628 38.4464C35.6749 38.5271 36.2908 38.5721 36.9076 38.5813C37.0629 38.5813 37.2183 38.5813 37.3753 38.5813H37.6108H37.7286C37.7695 38.5813 37.8152 38.5726 37.8594 38.5692C38.2146 38.5377 38.5631 38.4491 38.893 38.3063C39.0618 38.2361 39.2258 38.1535 39.3836 38.059L39.6093 37.9034C39.6846 37.8532 39.7532 37.7892 39.8252 37.7304C40.1063 37.4896 40.3531 37.2071 40.5579 36.8917C40.7601 36.5707 40.9192 36.2215 41.0305 35.8541L41.1025 35.5722C41.1254 35.4789 41.1368 35.382 41.1532 35.2869C41.1532 35.2402 41.1679 35.1918 41.1744 35.1434L41.1842 34.9981L41.1941 34.8529V34.7802V34.7197L41.2873 30.9152L41.3102 29.9641V29.7271V29.6891C41.3094 29.6787 41.3094 29.6683 41.3102 29.658C41.3102 29.6372 41.3102 29.6165 41.3102 29.5957C41.3231 29.5158 41.3456 29.4379 41.3772 29.364C41.4071 29.293 41.4468 29.2272 41.495 29.1686C41.506 29.1533 41.5181 29.1389 41.531 29.1253L41.5964 29.0544C41.6405 29.006 41.6831 28.9593 41.7321 28.9126C41.9186 28.7241 42.1295 28.5391 42.352 28.3558C42.7968 27.9874 43.289 27.6243 43.7879 27.2075C44.0487 26.9909 44.2988 26.76 44.5369 26.5158C44.5974 26.4535 44.6595 26.3861 44.7201 26.3169L44.81 26.2149C44.8443 26.1751 44.882 26.1267 44.9163 26.0817C45.193 25.711 45.3862 25.2785 45.4814 24.8171C45.5766 24.3557 45.5713 23.8775 45.4658 23.4186L45.4887 23.4151Z" fill="white"/>
<path d="M14.6034 36.7067C14.4313 36.4098 14.2229 36.1382 13.9836 35.8991L13.318 35.2592L13.1544 35.1018L13.0007 34.9376L12.6916 34.6073L12.5379 34.4343L12.461 34.353L12.389 34.2649L12.0979 33.919C11.3308 32.9967 10.6479 31.9996 10.0585 30.9411L9.84594 30.5399L9.738 30.341C9.70529 30.2788 9.67258 30.2165 9.64314 30.1525C9.87329 30.7909 9.9908 31.4685 9.98985 32.1516C9.98899 32.3986 9.97315 32.6452 9.94243 32.89C10.4002 33.4968 10.8917 34.0743 11.4143 34.6194L11.7414 34.9652L11.8232 35.05L11.9099 35.1312L12.0832 35.2921L12.4283 35.612L12.6016 35.7711L12.7832 35.9215L13.4913 36.5061C13.7021 36.6823 13.8897 36.8876 14.049 37.1165C14.2116 37.3481 14.3452 37.6009 14.4464 37.8688C14.5479 38.14 14.6171 38.4234 14.6525 38.7127C14.6721 38.8579 14.677 39.0032 14.6852 39.1657L14.7048 39.6396L14.7441 40.5907L14.834 42.493L14.8782 43.4424L14.9272 44.3918L14.9779 43.4424L15.0221 42.493L15.112 40.5907L15.1513 39.6396L15.1709 39.1657C15.1709 39.0845 15.1709 39.0101 15.1709 38.9236C15.1709 38.8372 15.1709 38.7507 15.1709 38.6677C15.1463 37.973 14.9507 37.297 14.6034 36.7067Z" fill="white"/>
<path d="M27.5464 21.7532C26.6119 21.7537 25.6928 22.0052 24.8753 22.484C24.0577 22.9628 23.3686 23.6533 22.8724 24.4907L17.5899 22.3809C17.6464 21.656 17.5461 20.9269 17.2966 20.2491C17.0471 19.5712 16.6549 18.9623 16.1498 18.4685C15.6447 17.9747 15.0399 17.609 14.3812 17.3991C13.7226 17.1892 13.0274 17.1405 12.3483 17.2569L9.20667 10.2532C10.2405 9.33316 10.9175 8.04249 11.108 6.62793C11.2986 5.21337 10.9894 3.77417 10.2395 2.58549C9.48973 1.39682 8.35189 0.542068 7.04358 0.184665C5.73527 -0.172738 4.34827 -0.00772164 3.14778 0.64817C1.9473 1.30406 1.01754 2.40481 0.536279 3.73995C0.0550145 5.0751 0.0560091 6.55096 0.539074 7.88538C1.02214 9.2198 1.95338 10.3191 3.15475 10.9732C4.35612 11.6273 5.74333 11.7902 7.05116 11.4309L10.1454 18.3239C9.3083 19.0775 8.75799 20.1264 8.5965 21.2763C8.43501 22.4261 8.67329 23.5989 9.26718 24.5772L6.50165 27.7954C5.50361 27.3226 4.37735 27.2481 3.33136 27.5857C2.28537 27.9234 1.39047 28.6502 0.812298 29.6318C0.234127 30.6135 0.0118355 31.7833 0.186573 32.9249C0.36131 34.0664 0.92124 35.1024 1.76273 35.8411C2.60421 36.5797 3.67027 36.971 4.76358 36.9425C5.85689 36.914 6.90341 36.4676 7.70945 35.686C8.51549 34.9044 9.02645 33.8405 9.14777 32.6912C9.26909 31.5419 8.99254 30.3851 8.36932 29.4348L11.0776 26.2823C11.6921 26.6044 12.369 26.7708 13.0548 26.7682C13.4577 26.7661 13.8586 26.7079 14.2471 26.5953C15.2555 26.3152 16.1402 25.6726 16.7493 24.7778L22.0645 26.9031C21.9324 28.0789 22.1417 29.2695 22.6644 30.3166C23.1872 31.3638 23.9987 32.2182 24.9913 32.7663C25.9839 33.3145 27.1107 33.5305 28.2221 33.3858C29.3335 33.241 30.3771 32.7423 31.2142 31.9559C32.0514 31.1694 32.6426 30.1324 32.9094 28.9824C33.1762 27.8324 33.106 26.6238 32.7081 25.5169C32.3102 24.4101 31.6034 23.4573 30.6816 22.7851C29.7597 22.1129 28.6663 21.753 27.5464 21.7532ZM2.56843 5.77943C2.56811 5.13156 2.7495 4.49813 3.08967 3.95928C3.42983 3.42043 3.91348 3.00035 4.47945 2.75219C5.04541 2.50402 5.66827 2.4389 6.26924 2.56509C6.87021 2.69127 7.42228 3.00308 7.85564 3.46108C8.289 3.91907 8.58417 4.50268 8.70382 5.13808C8.82347 5.77348 8.76223 6.43213 8.52783 7.03072C8.29344 7.62931 7.89642 8.14095 7.387 8.50092C6.87759 8.8609 6.27865 9.05304 5.66595 9.05304C4.84552 9.0503 4.0594 8.70458 3.47911 8.0913C2.89882 7.47802 2.57145 6.64696 2.56843 5.77943ZM4.66179 34.3582C4.24859 34.3585 3.84459 34.2293 3.50089 33.9867C3.1572 33.7442 2.88926 33.3993 2.73099 32.9957C2.57272 32.5922 2.53122 32.148 2.61175 31.7195C2.69228 31.2909 2.89122 30.8973 3.1834 30.5883C3.47557 30.2794 3.84785 30.069 4.25312 29.9839C4.65839 29.8987 5.07845 29.9426 5.46013 30.1099C5.84181 30.2773 6.16796 30.5606 6.39732 30.924C6.62668 31.2875 6.74893 31.7147 6.74861 32.1516C6.74774 32.7365 6.5276 33.2973 6.13644 33.7109C5.74527 34.1245 5.21498 34.3573 4.66179 34.3582ZM15.1057 22.5573C15.0099 22.9342 14.8219 23.2778 14.5607 23.5536C14.2996 23.8293 13.9744 24.0276 13.6178 24.1284C13.2612 24.2292 12.8859 24.229 12.5294 24.1278C12.1729 24.0266 11.8479 23.828 11.587 23.5519C11.3261 23.2759 11.1385 22.9321 11.043 22.5551C10.9476 22.1781 10.9476 21.7812 11.0432 21.4042C11.1387 21.0272 11.3264 20.6835 11.5874 20.4075C11.8483 20.1315 12.1734 19.933 12.5299 19.8319C12.8866 19.7307 13.2623 19.7307 13.6191 19.8318C13.9759 19.9329 14.3012 20.1316 14.5623 20.4079C14.8234 20.6841 15.0111 21.0282 15.1065 21.4056C15.2019 21.7829 15.2016 22.1801 15.1057 22.5573ZM27.5448 30.8684C26.9321 30.8684 26.3332 30.6763 25.8237 30.3163C25.3143 29.9563 24.9173 29.4447 24.6829 28.8461C24.4485 28.2475 24.3873 27.5889 24.5069 26.9535C24.6266 26.3181 24.9218 25.7345 25.3551 25.2765C25.7885 24.8185 26.3405 24.5067 26.9415 24.3805C27.5425 24.2543 28.1653 24.3194 28.7313 24.5676C29.2973 24.8157 29.7809 25.2358 30.1211 25.7747C30.4613 26.3135 30.6426 26.9469 30.6423 27.5948C30.6414 28.4628 30.315 29.2949 29.7346 29.9086C29.1542 30.5223 28.3672 30.8675 27.5464 30.8684H27.5448Z" fill="white"/>
</svg>
