<svg width="298" height="99" viewBox="0 0 298 99" fill="none" xmlns="http://www.w3.org/2000/svg">
<g opacity="0.3">
<mask id="path-1-inside-1_57_172" fill="white">
<path fill-rule="evenodd" clip-rule="evenodd" d="M271.569 84.9942C284.283 77.4852 292.793 63.7752 292.793 48.1066C292.793 24.3721 273.267 5.13137 249.18 5.13137C225.689 5.13137 206.535 23.4333 205.603 46.3563C205.339 46.3789 205.073 46.39 204.805 46.3892L9.96972 45.7991C4.88912 45.7837 0.802869 49.974 0.946033 55.0526L1.00455 57.1285V76.0577L1.02299 76.7825C1.05968 78.2251 1.44269 79.6376 2.13973 80.9011L9.55779 94.3474C11.1412 97.2177 14.1601 99 17.4381 99H165.107H166.347H250.535C252.543 99 254.492 98.329 256.074 97.0936L271.569 84.9942Z"/>
</mask>
<path d="M271.569 84.9942L271.061 84.1331L271.005 84.1661L270.954 84.206L271.569 84.9942ZM205.603 46.3563L205.689 47.3526L206.567 47.2772L206.602 46.3969L205.603 46.3563ZM204.805 46.3892L204.802 47.3892L204.802 47.3892L204.805 46.3892ZM9.96972 45.7991L9.97275 44.7991L9.97275 44.7991L9.96972 45.7991ZM0.946033 55.0526L1.94564 55.0244L1.94564 55.0244L0.946033 55.0526ZM1.00455 57.1285H2.00455V57.1144L2.00415 57.1003L1.00455 57.1285ZM1.00455 76.0577H0.00455006V76.0704L0.0048734 76.0831L1.00455 76.0577ZM1.02299 76.7825L0.0233115 76.808L0.0233115 76.808L1.02299 76.7825ZM2.13973 80.9011L1.26413 81.3841L1.26413 81.3841L2.13973 80.9011ZM9.55779 94.3474L10.4334 93.8644L10.4334 93.8644L9.55779 94.3474ZM256.074 97.0936L256.69 97.8817L256.69 97.8817L256.074 97.0936ZM291.793 48.1066C291.793 63.4023 283.487 76.7941 271.061 84.1331L272.078 85.8552C285.079 78.1764 293.793 64.1481 293.793 48.1066H291.793ZM249.18 6.13137C272.728 6.13137 291.793 24.9382 291.793 48.1066H293.793C293.793 23.8059 273.805 4.13137 249.18 4.13137V6.13137ZM206.602 46.3969C207.512 24.0207 226.214 6.13137 249.18 6.13137V4.13137C225.163 4.13137 205.558 22.8458 204.604 46.3156L206.602 46.3969ZM204.802 47.3892C205.099 47.3901 205.395 47.3778 205.689 47.3526L205.518 45.3599C205.283 45.3801 205.046 45.39 204.808 45.3892L204.802 47.3892ZM9.96669 46.7991L204.802 47.3892L204.808 45.3892L9.97275 44.7991L9.96669 46.7991ZM1.94564 55.0244C1.81838 50.5101 5.45061 46.7854 9.96669 46.7991L9.97275 44.7991C4.32764 44.782 -0.212641 49.4379 -0.0535697 55.0808L1.94564 55.0244ZM2.00415 57.1003L1.94564 55.0244L-0.0535697 55.0808L0.00494715 57.1566L2.00415 57.1003ZM2.00455 76.0577V57.1285H0.00455006V76.0577H2.00455ZM2.02266 76.7571L2.00423 76.0322L0.0048734 76.0831L0.0233115 76.808L2.02266 76.7571ZM3.01532 80.418C2.39573 79.2949 2.05528 78.0393 2.02266 76.7571L0.0233115 76.808C0.0640816 78.4108 0.48965 79.9803 1.26413 81.3841L3.01532 80.418ZM10.4334 93.8644L3.01532 80.418L1.26413 81.3841L8.68219 94.8305L10.4334 93.8644ZM17.4381 98C14.5243 98 11.8409 96.4157 10.4334 93.8644L8.68219 94.8305C10.4416 98.0197 13.7958 100 17.4381 100V98ZM165.107 98H17.4381V100H165.107V98ZM166.347 98H165.107V100H166.347V98ZM250.535 98H166.347V100H250.535V98ZM255.459 96.3054C254.053 97.4035 252.32 98 250.535 98V100C252.766 100 254.932 99.2544 256.69 97.8817L255.459 96.3054ZM270.954 84.206L255.459 96.3054L256.69 97.8817L272.185 85.7823L270.954 84.206Z" fill="white" mask="url(#path-1-inside-1_57_172)"/>
</g>
<path d="M220.993 53.0726C221.826 56.8869 223.413 60.5026 225.665 63.7133C227.916 66.9239 230.787 69.6667 234.115 71.7847C237.442 73.9026 241.161 75.3542 245.059 76.0562C248.957 76.7583 252.957 76.6969 256.83 75.8757C260.704 75.0546 264.375 73.4897 267.634 71.2708C270.893 69.0519 273.676 66.2224 275.825 62.9444C277.974 59.6664 279.446 56.0038 280.158 52.1658C280.87 48.3278 280.808 44.3893 279.975 40.575C279.142 36.7606 277.555 33.1449 275.304 29.9343C273.052 26.7236 270.181 23.9808 266.853 21.8629C263.526 19.7449 259.807 18.2933 255.909 17.5913C252.012 16.8893 248.012 16.9506 244.138 17.7718C240.265 18.593 236.593 20.1579 233.334 22.3768C230.075 24.5957 227.292 27.4251 225.143 30.7031C222.995 33.9812 221.522 37.6438 220.81 41.4817C220.098 45.3197 220.161 49.2583 220.993 53.0726L220.993 53.0726Z" stroke="white"/>
<path opacity="0.8" d="M216.699 46.8238C216.146 46.8238 215.697 46.3759 215.714 45.8238C215.926 38.6319 218.432 31.6786 222.887 25.9571C227.549 19.9707 234.085 15.6674 241.481 13.7144C248.878 11.7615 256.722 12.2681 263.796 15.1557C270.555 17.9144 276.251 22.699 280.085 28.8189C280.381 29.2911 280.214 29.9104 279.729 30.186L277.735 31.3208C277.259 31.5914 276.655 31.4283 276.363 30.9654C273.005 25.6445 268.037 21.4842 262.147 19.0801C255.949 16.5503 249.077 16.1065 242.597 17.8174C236.117 19.5284 230.391 23.2984 226.307 28.5429C222.429 33.5226 220.238 39.5673 220.026 45.8239C220.008 46.3759 219.562 46.8238 219.009 46.8238H216.699Z" fill="#D9D9D9"/>
<path opacity="0.8" d="M284.255 46.8238C284.813 46.8238 285.269 47.2732 285.252 47.8245C285.039 55.0162 282.534 61.9692 278.079 67.6906C273.622 73.4139 267.452 77.599 260.455 79.6623C259.922 79.8194 259.367 79.5004 259.222 78.9678L258.63 76.7885C258.486 76.2587 258.802 75.7177 259.331 75.5595C265.415 73.7403 270.778 70.0881 274.659 65.1047C278.539 60.1219 280.731 54.0726 280.94 47.8118C280.958 47.2655 281.403 46.8238 281.956 46.8238L284.255 46.8238Z" fill="#D9D9D9"/>
<path opacity="0.8" d="M241.738 78.9814C241.594 79.5081 241.047 79.8207 240.516 79.6644C232.344 77.2566 225.353 71.972 220.875 64.818C220.582 64.3497 220.746 63.741 221.226 63.4679L223.221 62.333C223.701 62.0599 224.315 62.226 224.61 62.6931C228.511 68.8686 234.556 73.4399 241.618 75.5552C242.154 75.7155 242.477 76.2637 242.332 76.796L241.738 78.9814Z" fill="#D9D9D9"/>
<path d="M259.387 49.3766L258.085 47.2471C257.812 46.7725 257.564 45.8745 257.564 45.3485V42.1029C257.564 39.0882 255.768 36.4841 253.177 35.2654C252.5 34.0851 251.25 33.3539 249.818 33.3539C248.399 33.3539 247.123 34.1108 246.446 35.3038C243.908 36.5482 242.15 39.1267 242.15 42.1029V45.3485C242.15 45.8745 241.903 46.7725 241.629 47.2343L240.314 49.3766C239.794 50.2361 239.677 51.1855 240.002 52.0578C240.314 52.9173 241.057 53.5844 242.02 53.9051C244.546 54.7518 247.201 55.1623 249.857 55.1623C252.513 55.1623 255.169 54.7518 257.694 53.9179C258.606 53.6229 259.309 52.9429 259.647 52.0578C259.986 51.1726 259.895 50.1977 259.387 49.3766Z" fill="white"/>
<path d="M253.515 56.4579C252.969 57.946 251.524 59.0108 249.831 59.0108C248.803 59.0108 247.787 58.6003 247.071 57.8691C246.655 57.4842 246.342 56.9711 246.16 56.4451C246.329 56.4708 246.498 56.4836 246.681 56.5092C246.98 56.5477 247.293 56.5862 247.605 56.6119C248.347 56.676 249.102 56.7145 249.857 56.7145C250.599 56.7145 251.341 56.676 252.07 56.6119C252.344 56.5862 252.617 56.5734 252.878 56.5349C253.086 56.5092 253.294 56.4836 253.515 56.4579Z" fill="white"/>
<circle cx="254.574" cy="33.2882" r="5.5" fill="#FF2002"/>
<path d="M254.853 31.7002C254.645 31.9722 254.424 32.2682 254.189 32.5882C253.954 32.9082 253.757 33.2362 253.597 33.5722H254.853V31.7002ZM256.021 30.2442V33.5722H256.613V34.5482H256.021V35.7882H254.853V34.5482H252.461V33.6762C252.578 33.4416 252.725 33.1776 252.901 32.8842C253.077 32.5856 253.272 32.2816 253.485 31.9722C253.704 31.6576 253.933 31.3509 254.173 31.0522C254.413 30.7536 254.653 30.4842 254.893 30.2442H256.021Z" fill="white"/>
<path d="M29.2888 62.0765H201.57C205.139 62.0765 207.288 66.0321 205.345 69.0259L196.851 82.1171C196.021 83.3959 194.601 84.1677 193.076 84.1677H20.7945C17.2256 84.1677 15.0769 80.2121 17.0195 77.2182L25.5139 64.1271C26.3436 62.8483 27.7644 62.0765 29.2888 62.0765Z" fill="#D9D9D9" fill-opacity="0.45" stroke="white"/>
<path d="M86.6579 74.7236C86.3899 74.2476 86.0999 73.7776 85.7879 73.3136C85.4759 72.8496 85.1439 72.4116 84.7919 71.9996V74.7236H83.8679V70.5656H84.6299C84.7619 70.6976 84.9079 70.8596 85.0679 71.0516C85.2279 71.2436 85.3899 71.4496 85.5539 71.6696C85.7219 71.8856 85.8879 72.1116 86.0519 72.3476C86.2159 72.5796 86.3699 72.8036 86.5139 73.0196V70.5656H87.4439V74.7236H86.6579ZM89.1891 72.6416C89.1891 72.8456 89.2131 73.0296 89.2611 73.1936C89.3131 73.3576 89.3851 73.4996 89.4771 73.6196C89.5731 73.7356 89.6891 73.8256 89.8251 73.8896C89.9611 73.9536 90.1171 73.9856 90.2931 73.9856C90.4651 73.9856 90.6191 73.9536 90.7551 73.8896C90.8951 73.8256 91.0111 73.7356 91.1031 73.6196C91.1991 73.4996 91.2711 73.3576 91.3191 73.1936C91.3711 73.0296 91.3971 72.8456 91.3971 72.6416C91.3971 72.4376 91.3711 72.2536 91.3191 72.0896C91.2711 71.9216 91.1991 71.7796 91.1031 71.6636C91.0111 71.5436 90.8951 71.4516 90.7551 71.3876C90.6191 71.3236 90.4651 71.2916 90.2931 71.2916C90.1171 71.2916 89.9611 71.3256 89.8251 71.3936C89.6891 71.4576 89.5731 71.5496 89.4771 71.6696C89.3851 71.7856 89.3131 71.9276 89.2611 72.0956C89.2131 72.2596 89.1891 72.4416 89.1891 72.6416ZM92.3631 72.6416C92.3631 72.9976 92.3091 73.3116 92.2011 73.5836C92.0971 73.8516 91.9531 74.0776 91.7691 74.2616C91.5851 74.4416 91.3651 74.5776 91.1091 74.6696C90.8571 74.7616 90.5851 74.8076 90.2931 74.8076C90.0091 74.8076 89.7411 74.7616 89.4891 74.6696C89.2371 74.5776 89.0171 74.4416 88.8291 74.2616C88.6411 74.0776 88.4931 73.8516 88.3851 73.5836C88.2771 73.3116 88.2231 72.9976 88.2231 72.6416C88.2231 72.2856 88.2791 71.9736 88.3911 71.7056C88.5031 71.4336 88.6531 71.2056 88.8411 71.0216C89.0331 70.8376 89.2531 70.6996 89.5011 70.6076C89.7531 70.5156 90.0171 70.4696 90.2931 70.4696C90.5771 70.4696 90.8451 70.5156 91.0971 70.6076C91.3491 70.6996 91.5691 70.8376 91.7571 71.0216C91.9451 71.2056 92.0931 71.4336 92.2011 71.7056C92.3091 71.9736 92.3631 72.2856 92.3631 72.6416ZM96.0867 70.5656V71.3636H94.8327V74.7236H93.8967V71.3636H92.6427V70.5656H96.0867ZM96.6882 70.5656H97.6242V74.7236H96.6882V70.5656ZM98.5867 74.7236V70.5656H101.371V71.3516H99.5227V72.2216H101.167V73.0076H99.5227V74.7236H98.5867ZM102.032 70.5656H102.968V74.7236H102.032V70.5656ZM105.826 74.8076C105.15 74.8076 104.634 74.6196 104.278 74.2436C103.926 73.8676 103.75 73.3336 103.75 72.6416C103.75 72.2976 103.804 71.9916 103.912 71.7236C104.02 71.4516 104.168 71.2236 104.356 71.0396C104.544 70.8516 104.768 70.7096 105.028 70.6136C105.288 70.5176 105.57 70.4696 105.874 70.4696C106.05 70.4696 106.21 70.4836 106.354 70.5116C106.498 70.5356 106.624 70.5656 106.732 70.6016C106.84 70.6336 106.93 70.6676 107.002 70.7036C107.074 70.7396 107.126 70.7676 107.158 70.7876L106.888 71.5436C106.76 71.4756 106.61 71.4176 106.438 71.3696C106.27 71.3216 106.078 71.2976 105.862 71.2976C105.718 71.2976 105.576 71.3216 105.436 71.3696C105.3 71.4176 105.178 71.4956 105.07 71.6036C104.966 71.7076 104.882 71.8436 104.818 72.0116C104.754 72.1796 104.722 72.3836 104.722 72.6236C104.722 72.8156 104.742 72.9956 104.782 73.1636C104.826 73.3276 104.894 73.4696 104.986 73.5896C105.082 73.7096 105.206 73.8056 105.358 73.8776C105.51 73.9456 105.694 73.9796 105.91 73.9796C106.046 73.9796 106.168 73.9716 106.276 73.9556C106.384 73.9396 106.48 73.9216 106.564 73.9016C106.648 73.8776 106.722 73.8516 106.786 73.8236C106.85 73.7956 106.908 73.7696 106.96 73.7456L107.218 74.4956C107.086 74.5756 106.9 74.6476 106.66 74.7116C106.42 74.7756 106.142 74.8076 105.826 74.8076ZM110.775 74.7236C110.731 74.5796 110.681 74.4316 110.625 74.2796C110.573 74.1276 110.521 73.9756 110.469 73.8236H108.849C108.797 73.9756 108.743 74.1276 108.687 74.2796C108.635 74.4316 108.587 74.5796 108.543 74.7236H107.571C107.727 74.2756 107.875 73.8616 108.015 73.4816C108.155 73.1016 108.291 72.7436 108.423 72.4076C108.559 72.0716 108.691 71.7536 108.819 71.4536C108.951 71.1496 109.087 70.8536 109.227 70.5656H110.121C110.257 70.8536 110.391 71.1496 110.523 71.4536C110.655 71.7536 110.787 72.0716 110.919 72.4076C111.055 72.7436 111.193 73.1016 111.333 73.4816C111.473 73.8616 111.621 74.2756 111.777 74.7236H110.775ZM109.653 71.5076C109.633 71.5676 109.603 71.6496 109.563 71.7536C109.523 71.8576 109.477 71.9776 109.425 72.1136C109.373 72.2496 109.315 72.3996 109.251 72.5636C109.191 72.7276 109.129 72.8996 109.065 73.0796H110.247C110.183 72.8996 110.121 72.7276 110.061 72.5636C110.001 72.3996 109.943 72.2496 109.887 72.1136C109.835 71.9776 109.789 71.8576 109.749 71.7536C109.709 71.6496 109.677 71.5676 109.653 71.5076ZM114.907 70.5656V71.3636H113.653V74.7236H112.717V71.3636H111.463V70.5656H114.907ZM115.509 70.5656H116.445V74.7236H115.509V70.5656ZM118.193 72.6416C118.193 72.8456 118.217 73.0296 118.265 73.1936C118.317 73.3576 118.389 73.4996 118.481 73.6196C118.577 73.7356 118.693 73.8256 118.829 73.8896C118.965 73.9536 119.121 73.9856 119.297 73.9856C119.469 73.9856 119.623 73.9536 119.759 73.8896C119.899 73.8256 120.015 73.7356 120.107 73.6196C120.203 73.4996 120.275 73.3576 120.323 73.1936C120.375 73.0296 120.401 72.8456 120.401 72.6416C120.401 72.4376 120.375 72.2536 120.323 72.0896C120.275 71.9216 120.203 71.7796 120.107 71.6636C120.015 71.5436 119.899 71.4516 119.759 71.3876C119.623 71.3236 119.469 71.2916 119.297 71.2916C119.121 71.2916 118.965 71.3256 118.829 71.3936C118.693 71.4576 118.577 71.5496 118.481 71.6696C118.389 71.7856 118.317 71.9276 118.265 72.0956C118.217 72.2596 118.193 72.4416 118.193 72.6416ZM121.367 72.6416C121.367 72.9976 121.313 73.3116 121.205 73.5836C121.101 73.8516 120.957 74.0776 120.773 74.2616C120.589 74.4416 120.369 74.5776 120.113 74.6696C119.861 74.7616 119.589 74.8076 119.297 74.8076C119.013 74.8076 118.745 74.7616 118.493 74.6696C118.241 74.5776 118.021 74.4416 117.833 74.2616C117.645 74.0776 117.497 73.8516 117.389 73.5836C117.281 73.3116 117.227 72.9976 117.227 72.6416C117.227 72.2856 117.283 71.9736 117.395 71.7056C117.507 71.4336 117.657 71.2056 117.845 71.0216C118.037 70.8376 118.257 70.6996 118.505 70.6076C118.757 70.5156 119.021 70.4696 119.297 70.4696C119.581 70.4696 119.849 70.5156 120.101 70.6076C120.353 70.6996 120.573 70.8376 120.761 71.0216C120.949 71.2056 121.097 71.4336 121.205 71.7056C121.313 71.9736 121.367 72.2856 121.367 72.6416ZM124.937 74.7236C124.669 74.2476 124.379 73.7776 124.067 73.3136C123.755 72.8496 123.423 72.4116 123.071 71.9996V74.7236H122.147V70.5656H122.909C123.041 70.6976 123.187 70.8596 123.347 71.0516C123.507 71.2436 123.669 71.4496 123.833 71.6696C124.001 71.8856 124.167 72.1116 124.331 72.3476C124.495 72.5796 124.649 72.8036 124.793 73.0196V70.5656H125.723V74.7236H124.937ZM127.816 74.0096C127.948 74.0096 128.056 73.9996 128.14 73.9796C128.228 73.9556 128.298 73.9256 128.35 73.8896C128.402 73.8496 128.438 73.8036 128.458 73.7516C128.478 73.6996 128.488 73.6416 128.488 73.5776C128.488 73.4416 128.424 73.3296 128.296 73.2416C128.168 73.1496 127.948 73.0516 127.636 72.9476C127.5 72.8996 127.364 72.8456 127.228 72.7856C127.092 72.7216 126.97 72.6436 126.862 72.5516C126.754 72.4556 126.666 72.3416 126.598 72.2096C126.53 72.0736 126.496 71.9096 126.496 71.7176C126.496 71.5256 126.532 71.3536 126.604 71.2016C126.676 71.0456 126.778 70.9136 126.91 70.8056C127.042 70.6976 127.202 70.6156 127.39 70.5596C127.578 70.4996 127.79 70.4696 128.026 70.4696C128.306 70.4696 128.548 70.4996 128.752 70.5596C128.956 70.6196 129.124 70.6856 129.256 70.7576L128.986 71.4956C128.87 71.4356 128.74 71.3836 128.596 71.3396C128.456 71.2916 128.286 71.2676 128.086 71.2676C127.862 71.2676 127.7 71.2996 127.6 71.3636C127.504 71.4236 127.456 71.5176 127.456 71.6456C127.456 71.7216 127.474 71.7856 127.51 71.8376C127.546 71.8896 127.596 71.9376 127.66 71.9816C127.728 72.0216 127.804 72.0596 127.888 72.0956C127.976 72.1276 128.072 72.1616 128.176 72.1976C128.392 72.2776 128.58 72.3576 128.74 72.4376C128.9 72.5136 129.032 72.6036 129.136 72.7076C129.244 72.8116 129.324 72.9336 129.376 73.0736C129.428 73.2136 129.454 73.3836 129.454 73.5836C129.454 73.9716 129.318 74.2736 129.046 74.4896C128.774 74.7016 128.364 74.8076 127.816 74.8076C127.632 74.8076 127.466 74.7956 127.318 74.7716C127.17 74.7516 127.038 74.7256 126.922 74.6936C126.81 74.6616 126.712 74.6276 126.628 74.5916C126.548 74.5556 126.48 74.5216 126.424 74.4896L126.688 73.7456C126.812 73.8136 126.964 73.8756 127.144 73.9316C127.328 73.9836 127.552 74.0096 127.816 74.0096Z" fill="white"/>
</svg>
