<svg width="617" height="233" viewBox="0 0 617 233" fill="none" xmlns="http://www.w3.org/2000/svg">
<g filter="url(#filter0_d_102_70)">
<path d="M34.751 4.7063L34.751 4.70632H34.7551H122.729H210.704H355.816H398.543C400.972 4.70632 403.308 5.63662 405.072 7.30605L426.497 27.5801C428.447 29.4252 431.03 30.4534 433.714 30.4534H582.554H597.495C602.742 30.4534 606.995 34.7067 606.995 39.9534V77.5864C606.995 80.5131 605.646 83.2765 603.339 85.0767L596.072 90.7455C593.522 92.7352 592.031 95.7895 592.031 99.0243V149.188C592.031 152.24 593.358 155.14 595.667 157.135L603.705 164.077C605.794 165.882 606.995 168.506 606.995 171.267V191.283C606.995 196.53 602.742 200.783 597.495 200.783H207.292C204.411 200.783 201.657 201.966 199.674 204.056L186.997 217.418C185.203 219.308 182.711 220.379 180.105 220.379H19.814C14.5672 220.379 10.314 216.126 10.314 210.879V140.983C10.314 138.379 11.3828 135.889 13.2706 134.096L20.6504 127.084C22.7369 125.102 23.9182 122.35 23.9182 119.472V68.7384C23.9182 65.6753 22.5807 62.7649 20.2561 60.7701L13.6273 55.0817C11.5242 53.2769 10.314 50.6437 10.314 47.8723V14.0831C10.314 8.80566 14.6153 4.53974 19.8925 4.58339L34.751 4.7063Z" stroke="white" stroke-opacity="0.2"/>
<g opacity="0.2">
<path d="M7.99976 58.1681C7.99976 56.4698 9.98281 55.5444 11.2844 56.6353L20.8887 64.6846C21.3421 65.0646 21.604 65.6258 21.604 66.2174V120.586C21.604 121.154 21.3627 121.695 20.9403 122.074L11.336 130.698C10.0485 131.855 7.99976 130.941 7.99976 129.21V58.1681Z" fill="white"/>
</g>
<g opacity="0.4">
<path d="M608.402 89.168C608.402 87.4697 606.419 86.5443 605.117 87.6352L595.513 95.6845C595.06 96.0645 594.798 96.6257 594.798 97.2173V151.586C594.798 152.154 595.039 152.695 595.462 153.074L605.066 161.698C606.353 162.854 608.402 161.941 608.402 160.21V89.168Z" fill="#D9D9D9"/>
</g>
<path d="M264.288 205.99H284.146C285.48 205.99 286.15 207.6 285.21 208.547L274.772 219.058C274.491 219.342 274.107 219.501 273.708 219.501H253.85C252.516 219.501 251.845 217.89 252.785 216.944L263.224 206.433C263.505 206.149 263.888 205.99 264.288 205.99Z" stroke="white" stroke-opacity="0.2"/>
<path d="M235.265 205.99H255.124C256.457 205.99 257.128 207.6 256.188 208.547L245.75 219.058C245.468 219.342 245.085 219.501 244.685 219.501H224.827C223.493 219.501 222.823 217.89 223.763 216.944L234.201 206.433C234.483 206.149 234.866 205.99 235.265 205.99Z" stroke="white" stroke-opacity="0.2"/>
<path d="M204.824 206.08C205.199 205.702 205.71 205.49 206.243 205.49H226.101C227.88 205.49 228.773 207.637 227.52 208.899L217.082 219.41C216.707 219.788 216.196 220.001 215.663 220.001H195.805C194.026 220.001 193.132 217.854 194.386 216.592L204.824 206.08Z" fill="white"/>
<path d="M206.243 205.99H226.101C227.435 205.99 228.105 207.6 227.166 208.547L216.727 219.058C216.446 219.342 216.063 219.501 215.663 219.501H195.805C194.471 219.501 193.801 217.89 194.74 216.944L205.179 206.433C205.46 206.149 205.843 205.99 206.243 205.99Z" stroke="white" stroke-opacity="0.2"/>
</g>
<defs>
<filter id="filter0_d_102_70" x="-0.000244141" y="0.0830688" width="616.402" height="232.796" filterUnits="userSpaceOnUse" color-interpolation-filters="sRGB">
<feFlood flood-opacity="0" result="BackgroundImageFix"/>
<feColorMatrix in="SourceAlpha" type="matrix" values="0 0 0 0 0 0 0 0 0 0 0 0 0 0 0 0 0 0 127 0" result="hardAlpha"/>
<feOffset dy="4"/>
<feGaussianBlur stdDeviation="4"/>
<feComposite in2="hardAlpha" operator="out"/>
<feColorMatrix type="matrix" values="0 0 0 0 0 0 0 0 0 0 0 0 0 0 0 0 0 0 0.62 0"/>
<feBlend mode="normal" in2="BackgroundImageFix" result="effect1_dropShadow_102_70"/>
<feBlend mode="normal" in="SourceGraphic" in2="effect1_dropShadow_102_70" result="shape"/>
</filter>
</defs>
</svg>
