<svg width="26" height="27" viewBox="0 0 26 27" fill="none" xmlns="http://www.w3.org/2000/svg">
<path d="M19.4743 17.49L18.4743 15.83C18.2643 15.46 18.0743 14.76 18.0743 14.35V11.82C18.0743 9.47 16.6943 7.44 14.7043 6.49C14.1843 5.57 13.2243 5 12.1243 5C11.0343 5 10.0543 5.59 9.53428 6.52C7.58428 7.49 6.23428 9.5 6.23428 11.82V14.35C6.23428 14.76 6.04428 15.46 5.83428 15.82L4.82428 17.49C4.42428 18.16 4.33428 18.9 4.58428 19.58C4.82428 20.25 5.39428 20.77 6.13428 21.02C8.07428 21.68 10.1143 22 12.1543 22C14.1943 22 16.2343 21.68 18.1743 21.03C18.8743 20.8 19.4143 20.27 19.6743 19.58C19.9343 18.89 19.8643 18.13 19.4743 17.49Z" fill="white"/>
<path d="M14.9643 23.01C14.5443 24.17 13.4343 25 12.1343 25C11.3443 25 10.5643 24.68 10.0143 24.11C9.69427 23.81 9.45427 23.41 9.31427 23C9.44427 23.02 9.57427 23.03 9.71427 23.05C9.94427 23.08 10.1843 23.11 10.4243 23.13C10.9943 23.18 11.5743 23.21 12.1543 23.21C12.7243 23.21 13.2943 23.18 13.8543 23.13C14.0643 23.11 14.2743 23.1 14.4743 23.07C14.6343 23.05 14.7943 23.03 14.9643 23.01Z" fill="white"/>
</svg>
