<svg width="617" height="323" viewBox="0 0 617 323" fill="none" xmlns="http://www.w3.org/2000/svg">
<g filter="url(#filter0_d_59_68)">
<path d="M34.751 4.7063L34.751 4.70632H34.7551H122.729H210.704H355.816H398.543C400.972 4.70632 403.308 5.63662 405.072 7.30605L426.497 27.5801C428.447 29.4252 431.03 30.4534 433.714 30.4534H582.554H597.495C602.742 30.4534 606.995 34.7067 606.995 39.9534V167.586C606.995 170.513 605.646 173.277 603.339 175.077L596.072 180.746C593.522 182.735 592.031 185.79 592.031 189.024V239.188C592.031 242.24 593.358 245.14 595.667 247.135L603.705 254.077C605.794 255.882 606.995 258.506 606.995 261.267V281.283C606.995 286.53 602.742 290.783 597.495 290.783H207.292C204.411 290.783 201.657 291.966 199.674 294.056L186.997 307.418C185.203 309.308 182.711 310.379 180.105 310.379H19.814C14.5672 310.379 10.314 306.126 10.314 300.879V140.983C10.314 138.379 11.3828 135.889 13.2706 134.096L20.6504 127.084C22.7369 125.102 23.9182 122.35 23.9182 119.472V68.7384C23.9182 65.6753 22.5807 62.7649 20.2561 60.7701L13.6273 55.0817C11.5242 53.2769 10.314 50.6437 10.314 47.8723V14.0831C10.314 8.80566 14.6153 4.53974 19.8925 4.58339L34.751 4.7063Z" stroke="white" stroke-opacity="0.2"/>
<g opacity="0.2">
<path d="M7.99976 58.1681C7.99976 56.4698 9.98281 55.5444 11.2844 56.6353L20.8887 64.6846C21.3421 65.0646 21.604 65.6258 21.604 66.2174V120.586C21.604 121.154 21.3627 121.695 20.9403 122.074L11.336 130.698C10.0485 131.855 7.99976 130.941 7.99976 129.21V58.1681Z" fill="white"/>
</g>
<g opacity="0.4">
<path d="M608.402 179.168C608.402 177.47 606.419 176.544 605.117 177.635L595.513 185.684C595.06 186.064 594.798 186.626 594.798 187.217V241.586C594.798 242.154 595.039 242.695 595.462 243.074L605.066 251.698C606.353 252.854 608.402 251.941 608.402 250.21V179.168Z" fill="#D9D9D9"/>
</g>
<path d="M264.288 295.99H284.146C285.48 295.99 286.15 297.6 285.21 298.547L274.772 309.058C274.491 309.342 274.107 309.501 273.708 309.501H253.85C252.516 309.501 251.845 307.89 252.785 306.944L263.224 296.433C263.505 296.149 263.888 295.99 264.288 295.99Z" stroke="white" stroke-opacity="0.2"/>
<path d="M235.265 295.99H255.124C256.457 295.99 257.128 297.6 256.188 298.547L245.75 309.058C245.468 309.342 245.085 309.501 244.685 309.501H224.827C223.493 309.501 222.823 307.89 223.763 306.944L234.201 296.433C234.483 296.149 234.866 295.99 235.265 295.99Z" stroke="white" stroke-opacity="0.2"/>
<path d="M204.824 296.08C205.199 295.702 205.71 295.49 206.243 295.49H226.101C227.88 295.49 228.773 297.637 227.52 298.899L217.082 309.41C216.707 309.788 216.196 310.001 215.663 310.001H195.805C194.026 310.001 193.132 307.854 194.386 306.592L204.824 296.08Z" fill="white"/>
<path d="M206.243 295.99H226.101C227.435 295.99 228.105 297.6 227.166 298.547L216.727 309.058C216.446 309.342 216.063 309.501 215.663 309.501H195.805C194.471 309.501 193.801 307.89 194.74 306.944L205.179 296.433C205.46 296.149 205.843 295.99 206.243 295.99Z" stroke="white" stroke-opacity="0.2"/>
</g>
<defs>
<filter id="filter0_d_59_68" x="-0.000244141" y="0.0830688" width="616.402" height="322.796" filterUnits="userSpaceOnUse" color-interpolation-filters="sRGB">
<feFlood flood-opacity="0" result="BackgroundImageFix"/>
<feColorMatrix in="SourceAlpha" type="matrix" values="0 0 0 0 0 0 0 0 0 0 0 0 0 0 0 0 0 0 127 0" result="hardAlpha"/>
<feOffset dy="4"/>
<feGaussianBlur stdDeviation="4"/>
<feComposite in2="hardAlpha" operator="out"/>
<feColorMatrix type="matrix" values="0 0 0 0 0 0 0 0 0 0 0 0 0 0 0 0 0 0 0.62 0"/>
<feBlend mode="normal" in2="BackgroundImageFix" result="effect1_dropShadow_59_68"/>
<feBlend mode="normal" in="SourceGraphic" in2="effect1_dropShadow_59_68" result="shape"/>
</filter>
</defs>
</svg>
