<svg width="617" height="433" viewBox="0 0 617 433" fill="none" xmlns="http://www.w3.org/2000/svg">
<g filter="url(#filter0_d_30_80)">
<path d="M34.751 4.7063L34.751 4.70632H34.7551H122.729H210.704H355.816H398.543C400.972 4.70632 403.308 5.63662 405.072 7.30605L426.497 27.5801C428.447 29.4252 431.03 30.4534 433.714 30.4534H582.554H597.495C602.742 30.4534 606.995 34.7067 606.995 39.9534V277.586C606.995 280.513 605.646 283.277 603.339 285.077L596.072 290.746C593.522 292.735 592.031 295.789 592.031 299.024V349.188C592.031 352.24 593.358 355.14 595.667 357.135L603.705 364.077C605.794 365.882 606.995 368.506 606.995 371.267V391.283C606.995 396.53 602.742 400.783 597.495 400.783H207.292C204.411 400.783 201.657 401.966 199.674 404.056L186.997 417.418C185.203 419.308 182.711 420.379 180.105 420.379H19.814C14.5672 420.379 10.314 416.126 10.314 410.879V140.983C10.314 138.379 11.3828 135.889 13.2706 134.096L20.6504 127.084C22.7369 125.102 23.9182 122.35 23.9182 119.472V68.7384C23.9182 65.6753 22.5807 62.7649 20.2561 60.7701L13.6273 55.0817C11.5242 53.2769 10.314 50.6437 10.314 47.8723V14.0831C10.314 8.80566 14.6153 4.53974 19.8925 4.58339L34.751 4.7063Z" stroke="white" stroke-opacity="0.2"/>
<g opacity="0.2">
<path d="M7.99976 58.1681C7.99976 56.4698 9.98281 55.5444 11.2844 56.6353L20.8887 64.6846C21.3421 65.0646 21.604 65.6258 21.604 66.2174V120.586C21.604 121.154 21.3627 121.695 20.9403 122.074L11.336 130.698C10.0485 131.855 7.99976 130.941 7.99976 129.21V58.1681Z" fill="white"/>
</g>
<g opacity="0.4">
<path d="M608.402 289.168C608.402 287.47 606.419 286.544 605.117 287.635L595.513 295.685C595.06 296.065 594.798 296.626 594.798 297.217V351.586C594.798 352.154 595.039 352.695 595.462 353.074L605.066 361.698C606.353 362.854 608.402 361.941 608.402 360.21V289.168Z" fill="#D9D9D9"/>
</g>
<path d="M264.287 405.99H284.146C285.479 405.99 286.15 407.6 285.21 408.547L274.772 419.058C274.49 419.341 274.107 419.501 273.707 419.501H253.849C252.515 419.501 251.845 417.89 252.785 416.944L263.223 406.433C263.505 406.149 263.888 405.99 264.287 405.99Z" stroke="white" stroke-opacity="0.2"/>
<path d="M235.265 405.99H255.123C256.457 405.99 257.127 407.6 256.187 408.547L245.749 419.058C245.468 419.341 245.085 419.501 244.685 419.501H224.827C223.493 419.501 222.822 417.89 223.762 416.944L234.201 406.433C234.482 406.149 234.865 405.99 235.265 405.99Z" stroke="white" stroke-opacity="0.2"/>
<path d="M204.823 406.08C205.199 405.702 205.71 405.49 206.242 405.49H226.101C227.879 405.49 228.773 407.637 227.52 408.899L217.082 419.41C216.706 419.788 216.195 420.001 215.662 420.001H195.804C194.026 420.001 193.132 417.854 194.385 416.592L204.823 406.08Z" fill="white"/>
<path d="M206.242 405.99H226.101C227.435 405.99 228.105 407.6 227.165 408.547L216.727 419.058C216.445 419.341 216.062 419.501 215.662 419.501H195.804C194.47 419.501 193.8 417.89 194.74 416.944L205.178 406.433C205.46 406.149 205.843 405.99 206.242 405.99Z" stroke="white" stroke-opacity="0.2"/>
</g>
<defs>
<filter id="filter0_d_30_80" x="-0.000244141" y="0.0830688" width="616.402" height="432.796" filterUnits="userSpaceOnUse" color-interpolation-filters="sRGB">
<feFlood flood-opacity="0" result="BackgroundImageFix"/>
<feColorMatrix in="SourceAlpha" type="matrix" values="0 0 0 0 0 0 0 0 0 0 0 0 0 0 0 0 0 0 127 0" result="hardAlpha"/>
<feOffset dy="4"/>
<feGaussianBlur stdDeviation="4"/>
<feComposite in2="hardAlpha" operator="out"/>
<feColorMatrix type="matrix" values="0 0 0 0 0 0 0 0 0 0 0 0 0 0 0 0 0 0 0.62 0"/>
<feBlend mode="normal" in2="BackgroundImageFix" result="effect1_dropShadow_30_80"/>
<feBlend mode="normal" in="SourceGraphic" in2="effect1_dropShadow_30_80" result="shape"/>
</filter>
</defs>
</svg>
