<svg width="660" height="212" viewBox="0 0 660 212" fill="none" xmlns="http://www.w3.org/2000/svg">
<g filter="url(#filter0_d_37_24)">
<g opacity="0.3">
<mask id="path-1-inside-1_37_24" fill="white">
<path fill-rule="evenodd" clip-rule="evenodd" d="M568.396 147.699C599.793 147.699 625.246 122.247 625.246 90.8497C625.246 59.4525 599.793 34 568.396 34C550.394 34 534.346 42.3675 523.93 55.4254H410.459C407.793 55.4254 405.263 56.6079 403.553 58.654L383.178 83.0347C381.463 85.087 378.924 86.2701 376.249 86.2633L43.023 85.4162C37.9455 85.4033 33.8626 89.5906 34.0035 94.6661L34.1866 101.258V127.699L34.278 158.568C34.285 160.923 35.215 163.182 36.8684 164.859L46.8492 174.985C48.5406 176.701 50.8494 177.667 53.2588 177.667H261.775H410.069H527.627C530.343 177.667 532.914 176.44 534.622 174.329L557.086 146.574C560.741 147.312 564.523 147.699 568.396 147.699Z"/>
</mask>
<path d="M523.93 55.4254V56.4254H524.411L524.712 56.049L523.93 55.4254ZM403.553 58.654L402.786 58.0127L402.786 58.0127L403.553 58.654ZM383.178 83.0347L382.411 82.3934L382.411 82.3934L383.178 83.0347ZM376.249 86.2633L376.252 85.2633L376.252 85.2633L376.249 86.2633ZM43.023 85.4162L43.0255 84.4162L43.0255 84.4162L43.023 85.4162ZM34.0035 94.6661L33.0039 94.6939L34.0035 94.6661ZM34.1866 101.258H35.1866V101.244L35.1863 101.23L34.1866 101.258ZM34.1866 127.699L33.1866 127.699L33.1866 127.702L34.1866 127.699ZM34.278 158.568L35.278 158.565L34.278 158.568ZM36.8684 164.859L37.5806 164.157L37.5806 164.157L36.8684 164.859ZM46.8492 174.985L47.5614 174.283L47.5614 174.283L46.8492 174.985ZM534.622 174.329L533.845 173.7L533.845 173.7L534.622 174.329ZM557.086 146.574L557.284 145.594L556.69 145.474L556.309 145.945L557.086 146.574ZM624.246 90.8497C624.246 121.695 599.241 146.699 568.396 146.699V148.699C600.346 148.699 626.246 122.799 626.246 90.8497H624.246ZM568.396 35C599.241 35 624.246 60.0048 624.246 90.8497H626.246C626.246 58.9002 600.346 33 568.396 33V35ZM524.712 56.049C534.947 43.2187 550.711 35 568.396 35V33C550.077 33 533.746 41.5162 523.148 54.8018L524.712 56.049ZM410.459 56.4254H523.93V54.4254H410.459V56.4254ZM404.321 59.2953C405.841 57.4765 408.089 56.4254 410.459 56.4254V54.4254C407.496 54.4254 404.686 55.7393 402.786 58.0127L404.321 59.2953ZM383.945 83.6759L404.321 59.2953L402.786 58.0127L382.411 82.3934L383.945 83.6759ZM376.247 87.2633C379.219 87.2709 382.04 85.9563 383.945 83.6759L382.411 82.3934C380.886 84.2177 378.629 85.2693 376.252 85.2633L376.247 87.2633ZM43.0204 86.4162L376.247 87.2633L376.252 85.2633L43.0255 84.4162L43.0204 86.4162ZM35.0032 94.6383C34.8778 90.1268 38.5071 86.4047 43.0204 86.4162L43.0255 84.4162C37.3839 84.4019 32.8473 89.0544 33.0039 94.6939L35.0032 94.6383ZM35.1863 101.23L35.0032 94.6383L33.0039 94.6939L33.187 101.285L35.1863 101.23ZM35.1866 127.699V101.258H33.1866V127.699H35.1866ZM35.278 158.565L35.1866 127.696L33.1866 127.702L33.278 158.571L35.278 158.565ZM37.5806 164.157C36.1109 162.666 35.2842 160.658 35.278 158.565L33.278 158.571C33.2858 161.188 34.3191 163.697 36.1562 165.561L37.5806 164.157ZM47.5614 174.283L37.5806 164.157L36.1562 165.561L46.137 175.687L47.5614 174.283ZM53.2588 176.667C51.1171 176.667 49.0648 175.808 47.5614 174.283L46.137 175.687C48.0164 177.593 50.5817 178.667 53.2588 178.667V176.667ZM261.775 176.667H53.2588V178.667H261.775V176.667ZM410.069 176.667H261.775V178.667H410.069V176.667ZM527.627 176.667H410.069V178.667H527.627V176.667ZM533.845 173.7C532.326 175.576 530.041 176.667 527.627 176.667V178.667C530.645 178.667 533.501 177.304 535.4 174.958L533.845 173.7ZM556.309 145.945L533.845 173.7L535.4 174.958L557.863 147.203L556.309 145.945ZM568.396 146.699C564.59 146.699 560.874 146.319 557.284 145.594L556.888 147.554C560.608 148.305 564.457 148.699 568.396 148.699V146.699Z" fill="white" mask="url(#path-1-inside-1_37_24)"/>
</g>
</g>
<defs>
<filter id="filter0_d_37_24" x="0" y="0" width="659.246" height="211.667" filterUnits="userSpaceOnUse" color-interpolation-filters="sRGB">
<feFlood flood-opacity="0" result="BackgroundImageFix"/>
<feColorMatrix in="SourceAlpha" type="matrix" values="0 0 0 0 0 0 0 0 0 0 0 0 0 0 0 0 0 0 127 0" result="hardAlpha"/>
<feOffset/>
<feGaussianBlur stdDeviation="17"/>
<feComposite in2="hardAlpha" operator="out"/>
<feColorMatrix type="matrix" values="0 0 0 0 0 0 0 0 0 0 0 0 0 0 0 0 0 0 0.3 0"/>
<feBlend mode="normal" in2="BackgroundImageFix" result="effect1_dropShadow_37_24"/>
<feBlend mode="normal" in="SourceGraphic" in2="effect1_dropShadow_37_24" result="shape"/>
</filter>
</defs>
</svg>
