<svg width="21" height="21" viewBox="0 0 21 21" fill="none" xmlns="http://www.w3.org/2000/svg">
<path d="M20.0811 19.29L16.3077 15.61C17.7724 13.8144 18.4817 11.5353 18.2898 9.24133C18.0979 6.94733 17.0193 4.81281 15.2759 3.27667C13.5324 1.74053 11.2566 0.919537 8.9164 0.982497C6.57619 1.04546 4.34944 1.98759 2.69404 3.61517C1.03864 5.24275 0.0804047 7.43207 0.016368 9.73295C-0.0476686 12.0338 0.787362 14.2714 2.34976 15.9855C3.91216 17.6997 6.08316 18.7601 8.41637 18.9488C10.7496 19.1375 13.0677 18.4401 14.8939 17L18.6369 20.68C18.7314 20.7738 18.8439 20.8481 18.9678 20.8989C19.0918 20.9497 19.2247 20.9758 19.359 20.9758C19.4933 20.9758 19.6262 20.9497 19.7501 20.8989C19.8741 20.8481 19.9866 20.7738 20.0811 20.68C20.2644 20.4936 20.3669 20.2444 20.3669 19.985C20.3669 19.7257 20.2644 19.4765 20.0811 19.29V19.29ZM9.18804 17C7.77991 17 6.4034 16.5895 5.23257 15.8203C4.06175 15.0511 3.14921 13.9579 2.61034 12.6788C2.07147 11.3997 1.93047 9.99226 2.20519 8.63439C2.4799 7.27653 3.15798 6.02925 4.15369 5.05028C5.14939 4.07131 6.41799 3.40463 7.79907 3.13453C9.18015 2.86443 10.6117 3.00306 11.9126 3.53287C13.2136 4.06268 14.3255 4.95989 15.1078 6.11103C15.8901 7.26218 16.3077 8.61556 16.3077 10C16.3077 11.8565 15.5576 13.637 14.2224 14.9498C12.8872 16.2625 11.0763 17 9.18804 17V17Z" fill="white"/>
</svg>
