<svg width="21" height="21" viewBox="0 0 21 21" fill="none" xmlns="http://www.w3.org/2000/svg">
<path d="M20.0811 19.2899L16.3077 15.6099C17.7724 13.8143 18.4817 11.5352 18.2898 9.2412C18.0979 6.94721 17.0193 4.81269 15.2759 3.27655C13.5324 1.74041 11.2566 0.919414 8.9164 0.982375C6.57619 1.04534 4.34944 1.98747 2.69404 3.61505C1.03864 5.24263 0.0804047 7.43194 0.016368 9.73283C-0.0476686 12.0337 0.787362 14.2713 2.34976 15.9854C3.91216 17.6996 6.08316 18.76 8.41637 18.9487C10.7496 19.1374 13.0677 18.44 14.8939 16.9999L18.6369 20.6799C18.7314 20.7736 18.8439 20.848 18.9678 20.8988C19.0918 20.9496 19.2247 20.9757 19.359 20.9757C19.4933 20.9757 19.6262 20.9496 19.7501 20.8988C19.8741 20.848 19.9866 20.7736 20.0811 20.6799C20.2644 20.4934 20.3669 20.2442 20.3669 19.9849C20.3669 19.7256 20.2644 19.4764 20.0811 19.2899V19.2899ZM9.18804 16.9999C7.77991 16.9999 6.4034 16.5894 5.23257 15.8202C4.06175 15.051 3.14921 13.9578 2.61034 12.6787C2.07147 11.3996 1.93047 9.99214 2.20519 8.63427C2.4799 7.27641 3.15798 6.02912 4.15369 5.05016C5.14939 4.07119 6.41799 3.4045 7.79907 3.13441C9.18015 2.86431 10.6117 3.00293 11.9126 3.53275C13.2136 4.06256 14.3255 4.95977 15.1078 6.11091C15.8901 7.26206 16.3077 8.61544 16.3077 9.9999C16.3077 11.8564 15.5576 13.6369 14.2224 14.9497C12.8872 16.2624 11.0763 16.9999 9.18804 16.9999V16.9999Z" fill="white"/>
</svg>
