<svg width="412" height="437" viewBox="0 0 412 437" fill="none" xmlns="http://www.w3.org/2000/svg">
<path d="M342.871 257.262C331.184 257.269 319.69 260.243 309.467 265.905C299.244 271.568 290.625 279.733 284.42 289.637L218.361 264.686C219.068 256.112 217.814 247.49 214.694 239.474C211.573 231.457 206.669 224.256 200.352 218.416C194.036 212.576 186.472 208.251 178.236 205.768C169.999 203.286 161.305 202.711 152.814 204.088L113.526 121.258C126.455 110.378 134.92 95.1138 137.303 78.3846C139.686 61.6554 135.819 44.6348 126.443 30.5771C117.066 16.5193 102.837 6.41072 86.476 2.18393C70.1151 -2.04287 52.7703 -0.0913192 37.7578 7.66552C22.7453 15.4224 11.1184 28.4403 5.10005 44.2302C-0.918316 60.0202 -0.905878 77.4743 5.135 93.2557C11.1759 109.037 22.8214 122.038 37.8449 129.774C52.8685 137.509 70.216 139.436 86.5708 135.186L125.265 216.706C114.797 225.618 107.915 238.023 105.896 251.622C103.876 265.221 106.856 279.09 114.283 290.659L79.699 328.72C67.2181 323.128 53.134 322.247 40.0535 326.24C26.973 330.233 15.782 338.829 8.55177 350.438C1.32154 362.047 -1.45828 375.882 0.726862 389.383C2.91201 402.884 9.91412 415.136 20.4372 423.871C30.9602 432.606 44.2917 437.234 57.9639 436.897C71.636 436.56 84.7232 431.281 94.8029 422.037C104.883 412.794 111.272 400.212 112.79 386.62C114.307 373.028 110.848 359.347 103.055 348.108L136.923 310.825C144.607 314.635 153.072 316.602 161.649 316.572C166.687 316.546 171.699 315.859 176.558 314.527C189.169 311.214 200.232 303.614 207.849 293.032L274.317 318.167C272.666 332.073 275.283 346.152 281.82 358.537C288.357 370.921 298.505 381.025 310.918 387.508C323.331 393.991 337.422 396.546 351.32 394.834C365.219 393.122 378.269 387.224 388.738 377.923C399.207 368.622 406.6 356.358 409.937 342.758C413.273 329.157 412.395 314.863 407.42 301.774C402.444 288.684 393.605 277.416 382.077 269.466C370.548 261.516 356.875 257.26 342.871 257.262ZM30.5128 68.3499C30.5088 60.6879 32.7771 53.1968 37.031 46.8241C41.2848 40.4514 47.333 35.4834 54.4107 32.5485C61.4883 29.6135 69.2774 28.8435 76.7926 30.3358C84.3079 31.8281 91.2118 35.5157 96.6311 40.9321C102.05 46.3485 105.742 53.2505 107.238 60.765C108.734 68.2795 107.968 76.069 105.037 83.1482C102.106 90.2273 97.1411 96.2782 90.7706 100.535C84.4002 104.793 76.9103 107.065 69.2483 107.065C58.9885 107.033 49.1578 102.944 41.9011 95.691C34.6444 88.4381 30.5506 78.6097 30.5128 68.3499ZM56.6909 406.334C51.5238 406.338 46.4716 404.809 42.1735 401.941C37.8755 399.073 34.5249 394.994 32.5456 390.221C30.5664 385.448 30.0475 380.195 31.0545 375.127C32.0616 370.059 34.5494 365.404 38.2031 361.75C41.8568 358.096 46.5123 355.608 51.5804 354.601C56.6485 353.594 61.9014 354.113 66.6744 356.092C71.4475 358.072 75.5261 361.422 78.3943 365.72C81.2625 370.018 82.7913 375.071 82.7873 380.238C82.7764 387.156 80.0235 393.787 75.1319 398.679C70.2402 403.57 63.6088 406.323 56.6909 406.334ZM187.295 266.772C186.097 271.229 183.747 275.293 180.481 278.554C177.215 281.815 173.148 284.16 168.689 285.352C164.23 286.544 159.536 286.542 155.078 285.345C150.62 284.148 146.556 281.8 143.293 278.535C140.03 275.27 137.684 271.204 136.49 266.746C135.297 262.287 135.297 257.593 136.492 253.135C137.687 248.677 140.034 244.611 143.297 241.347C146.561 238.083 150.626 235.736 155.084 234.54C159.545 233.344 164.243 233.343 168.705 234.539C173.166 235.735 177.235 238.085 180.5 241.352C183.765 244.619 186.112 248.688 187.305 253.151C188.498 257.613 188.494 262.311 187.295 266.772ZM342.85 365.063C335.188 365.063 327.699 362.79 321.328 358.533C314.958 354.276 309.993 348.225 307.062 341.146C304.131 334.067 303.365 326.277 304.861 318.763C306.357 311.248 310.048 304.346 315.468 298.93C320.887 293.513 327.791 289.826 335.306 288.334C342.822 286.841 350.61 287.611 357.688 290.546C364.766 293.481 370.814 298.449 375.068 304.822C379.322 311.194 381.59 318.686 381.586 326.348C381.575 336.612 377.493 346.453 370.235 353.711C362.977 360.969 353.135 365.052 342.871 365.063H342.85Z" fill="white"/>
</svg>
