<svg width="25" height="24" viewBox="0 0 25 24" fill="none" xmlns="http://www.w3.org/2000/svg">
<path d="M4.03428 9.22006C5.84428 9.22006 6.58428 7.94006 5.68428 6.37006C5.16428 5.46006 5.47428 4.30006 6.38428 3.78006L8.11428 2.79006C8.90428 2.32006 9.92428 2.60006 10.3943 3.39006L10.5043 3.58006C11.4043 5.15006 12.8843 5.15006 13.7943 3.58006L13.9043 3.39006C14.3543 2.60006 15.3743 2.32006 16.1643 2.79006L17.8943 3.78006C18.8043 4.30006 19.1143 5.47006 18.5943 6.38006C17.6843 7.94006 18.4243 9.22006 20.2343 9.22006C21.2743 9.22006 22.1343 10.0701 22.1343 11.1201V12.8801C22.1343 13.9201 21.2843 14.7801 20.2343 14.7801C18.4243 14.7801 17.6843 16.0601 18.5943 17.6301C19.1143 18.5401 18.8043 19.7001 17.8943 20.2201L16.1643 21.2101C15.3743 21.6801 14.3543 21.4001 13.8843 20.6101L13.7743 20.4201C12.8743 18.8501 11.3943 18.8501 10.4843 20.4201L10.3743 20.6101C9.90428 21.4001 8.88428 21.6801 8.09428 21.2101L6.36428 20.2201C5.45428 19.7001 5.14428 18.5301 5.66428 17.6301C6.57428 16.0601 5.83428 14.7801 4.02428 14.7801C2.98428 14.7801 2.12428 13.9301 2.12428 12.8801V11.1201C2.13428 10.0801 2.98428 9.22006 4.03428 9.22006ZM12.1343 15.2501C13.9243 15.2501 15.3843 13.7901 15.3843 12.0001C15.3843 10.2101 13.9243 8.75006 12.1343 8.75006C10.3443 8.75006 8.88428 10.2101 8.88428 12.0001C8.88428 13.7901 10.3443 15.2501 12.1343 15.2501Z" fill="white"/>
</svg>
