<svg width="25" height="24" viewBox="0 0 25 24" fill="none" xmlns="http://www.w3.org/2000/svg">
<path d="M5.59429 4.17001L11.0943 2.11001C11.6643 1.90001 12.5943 1.90001 13.1643 2.11001L18.6643 4.17001C19.7243 4.57001 20.5843 5.81001 20.5843 6.94001V15.04C20.5843 15.85 20.0543 16.92 19.4043 17.4L13.9043 21.51C12.9343 22.24 11.3443 22.24 10.3743 21.51L4.87429 17.4C4.22429 16.91 3.69429 15.85 3.69429 15.04V6.94001C3.68429 5.81001 4.54429 4.57001 5.59429 4.17001ZM11.3843 12.87V15.5C11.3843 15.91 11.7243 16.25 12.1343 16.25C12.5443 16.25 12.8843 15.91 12.8843 15.5V12.87C13.8943 12.55 14.6343 11.61 14.6343 10.5C14.6343 9.12001 13.5143 8.00001 12.1343 8.00001C10.7543 8.00001 9.63429 9.12001 9.63429 10.5C9.63429 11.62 10.3743 12.55 11.3843 12.87Z" fill="white"/>
</svg>
