<svg width="72" height="26" viewBox="0 0 72 26" fill="none" xmlns="http://www.w3.org/2000/svg">
<path d="M43.9289 0.5H12.0711C8.062 0.5 6.05424 5.34714 8.88909 8.18198L24.8891 24.182C25.733 25.0259 26.8776 25.5 28.0711 25.5H59.9289C63.938 25.5 65.9458 20.6529 63.1109 17.818L47.1109 1.81802C46.267 0.974107 45.1224 0.5 43.9289 0.5Z" stroke="white"/>
<path d="M34 19.4211L27.5789 13L34 6.57895L35.4211 8L30.4211 13L35.4211 18L34 19.4211ZM40 19.4211L33.5789 13L40 6.57895L41.4211 8L36.4211 13L41.4211 18L40 19.4211Z" fill="white"/>
</svg>
