<svg width="24" height="20" viewBox="0 0 24 20" fill="none" xmlns="http://www.w3.org/2000/svg">
<path d="M18.0765 7.20001L8.65796 2.76801C8.14832 2.52653 7.56986 2.40004 6.98135 2.40136C6.39283 2.40269 5.81523 2.53179 5.30721 2.77556C4.79919 3.01932 4.37884 3.36907 4.08887 3.78927C3.79889 4.20947 3.64962 4.68515 3.65622 5.16801V14.064C3.65622 14.7896 4.00753 15.4856 4.63287 15.9987C5.25821 16.5118 6.10635 16.8 6.99072 16.8C7.57614 16.7992 8.15105 16.6723 8.65796 16.432L18.0765 12C18.5825 11.7597 19.0027 11.4144 19.2948 10.9988C19.5869 10.5831 19.7407 10.1118 19.7407 9.63201C19.7407 9.15223 19.5869 8.68088 19.2948 8.26526C19.0027 7.84963 18.5825 7.50433 18.0765 7.26401V7.20001ZM17.1015 10.552L7.68297 15.048C7.47186 15.1462 7.23336 15.1978 6.99072 15.1978C6.74807 15.1978 6.50957 15.1462 6.29847 15.048C6.08796 14.9483 5.91316 14.8048 5.79164 14.6321C5.67013 14.4594 5.60617 14.2634 5.60622 14.064V5.13601C5.60617 4.93656 5.67013 4.74063 5.79164 4.5679C5.91316 4.39516 6.08796 4.25173 6.29847 4.15201C6.51044 4.05533 6.74823 4.00312 6.99072 4.00001C7.23303 4.00409 7.47055 4.05624 7.68297 4.15201L17.1015 8.61601C17.312 8.71569 17.4869 8.8591 17.6085 9.03184C17.7301 9.20457 17.7941 9.40053 17.7941 9.60001C17.7941 9.79948 17.7301 9.99544 17.6085 10.1682C17.4869 10.3409 17.312 10.4843 17.1015 10.584V10.552Z" fill="white"/>
</svg>
