<svg width="468" height="36" viewBox="0 0 468 36" fill="none" xmlns="http://www.w3.org/2000/svg">
<rect opacity="0.4" x="0.5" y="0.5" width="467" height="32.6" rx="4.5" fill="white" stroke="white"/>
<path d="M209.158 21.334C209.466 21.334 209.718 21.3107 209.914 21.264C210.119 21.208 210.282 21.138 210.404 21.054C210.525 20.9607 210.609 20.8533 210.656 20.732C210.702 20.6107 210.726 20.4753 210.726 20.326C210.726 20.0087 210.576 19.7473 210.278 19.542C209.979 19.3273 209.466 19.0987 208.738 18.856C208.42 18.744 208.103 18.618 207.786 18.478C207.468 18.3287 207.184 18.1467 206.932 17.932C206.68 17.708 206.474 17.442 206.316 17.134C206.157 16.8167 206.078 16.434 206.078 15.986C206.078 15.538 206.162 15.1367 206.33 14.782C206.498 14.418 206.736 14.11 207.044 13.858C207.352 13.606 207.725 13.4147 208.164 13.284C208.602 13.144 209.097 13.074 209.648 13.074C210.301 13.074 210.866 13.144 211.342 13.284C211.818 13.424 212.21 13.578 212.518 13.746L211.888 15.468C211.617 15.328 211.314 15.2067 210.978 15.104C210.651 14.992 210.254 14.936 209.788 14.936C209.265 14.936 208.887 15.0107 208.654 15.16C208.43 15.3 208.318 15.5193 208.318 15.818C208.318 15.9953 208.36 16.1447 208.444 16.266C208.528 16.3873 208.644 16.4993 208.794 16.602C208.952 16.6953 209.13 16.784 209.326 16.868C209.531 16.9427 209.755 17.022 209.998 17.106C210.502 17.2927 210.94 17.4793 211.314 17.666C211.687 17.8433 211.995 18.0533 212.238 18.296C212.49 18.5387 212.676 18.8233 212.798 19.15C212.919 19.4767 212.98 19.8733 212.98 20.34C212.98 21.2453 212.662 21.95 212.028 22.454C211.393 22.9487 210.436 23.196 209.158 23.196C208.728 23.196 208.341 23.168 207.996 23.112C207.65 23.0653 207.342 23.0047 207.072 22.93C206.81 22.8553 206.582 22.776 206.386 22.692C206.199 22.608 206.04 22.5287 205.91 22.454L206.526 20.718C206.815 20.8767 207.17 21.0213 207.59 21.152C208.019 21.2733 208.542 21.334 209.158 21.334ZM221.583 13.298V15.16H218.657V23H216.473V15.16H213.547V13.298H221.583ZM228.334 23C228.231 22.664 228.114 22.3187 227.984 21.964C227.862 21.6093 227.741 21.2547 227.62 20.9H223.84C223.718 21.2547 223.592 21.6093 223.462 21.964C223.34 22.3187 223.228 22.664 223.126 23H220.858C221.222 21.9547 221.567 20.9887 221.894 20.102C222.22 19.2153 222.538 18.38 222.846 17.596C223.163 16.812 223.471 16.07 223.77 15.37C224.078 14.6607 224.395 13.97 224.722 13.298H226.808C227.125 13.97 227.438 14.6607 227.746 15.37C228.054 16.07 228.362 16.812 228.67 17.596C228.987 18.38 229.309 19.2153 229.636 20.102C229.962 20.9887 230.308 21.9547 230.672 23H228.334ZM225.716 15.496C225.669 15.636 225.599 15.8273 225.506 16.07C225.412 16.3127 225.305 16.5927 225.184 16.91C225.062 17.2273 224.927 17.5773 224.778 17.96C224.638 18.3427 224.493 18.744 224.344 19.164H227.102C226.952 18.744 226.808 18.3427 226.668 17.96C226.528 17.5773 226.392 17.2273 226.262 16.91C226.14 16.5927 226.033 16.3127 225.94 16.07C225.846 15.8273 225.772 15.636 225.716 15.496ZM234.77 13.186C236.226 13.186 237.341 13.4473 238.116 13.97C238.89 14.4833 239.278 15.286 239.278 16.378C239.278 17.0593 239.119 17.6147 238.802 18.044C238.494 18.464 238.046 18.7953 237.458 19.038C237.654 19.2807 237.859 19.5607 238.074 19.878C238.288 20.186 238.498 20.5127 238.704 20.858C238.918 21.194 239.124 21.5487 239.32 21.922C239.516 22.286 239.698 22.6453 239.866 23H237.416C237.238 22.6827 237.056 22.3607 236.87 22.034C236.692 21.7073 236.506 21.39 236.31 21.082C236.123 20.774 235.936 20.4847 235.75 20.214C235.563 19.934 235.376 19.682 235.19 19.458H234.112V23H231.928V13.438C232.404 13.3447 232.894 13.2793 233.398 13.242C233.911 13.2047 234.368 13.186 234.77 13.186ZM234.896 15.048C234.737 15.048 234.592 15.0527 234.462 15.062C234.34 15.0713 234.224 15.0807 234.112 15.09V17.722H234.728C235.549 17.722 236.137 17.6193 236.492 17.414C236.846 17.2087 237.024 16.8587 237.024 16.364C237.024 15.888 236.842 15.552 236.478 15.356C236.123 15.1507 235.596 15.048 234.896 15.048ZM248.325 13.298V15.16H245.399V23H243.215V15.16H240.289V13.298H248.325Z" fill="white"/>
<path d="M274.401 15.4L264.983 10.968C264.473 10.7265 263.895 10.6 263.306 10.6014C262.718 10.6027 262.14 10.7318 261.632 10.9756C261.124 11.2193 260.704 11.5691 260.414 11.9893C260.124 12.4095 259.975 12.8851 259.981 13.368V22.264C259.981 22.9896 260.332 23.6855 260.958 24.1986C261.583 24.7117 262.431 25 263.316 25C263.901 24.9992 264.476 24.8723 264.983 24.632L274.401 20.2C274.907 19.9597 275.328 19.6144 275.62 19.1988C275.912 18.7831 276.066 18.3118 276.066 17.832C276.066 17.3522 275.912 16.8809 275.62 16.4653C275.328 16.0496 274.907 15.7043 274.401 15.464V15.4ZM273.426 18.752L264.008 23.248C263.797 23.3462 263.558 23.3978 263.316 23.3978C263.073 23.3978 262.835 23.3462 262.623 23.248C262.413 23.1483 262.238 23.0048 262.117 22.8321C261.995 22.6594 261.931 22.4634 261.931 22.264V13.336C261.931 13.1366 261.995 12.9406 262.117 12.7679C262.238 12.5952 262.413 12.4517 262.623 12.352C262.835 12.2553 263.073 12.2031 263.316 12.2C263.558 12.2041 263.795 12.2562 264.008 12.352L273.426 16.816C273.637 16.9157 273.812 17.0591 273.933 17.2318C274.055 17.4046 274.119 17.6005 274.119 17.8C274.119 17.9995 274.055 18.1954 273.933 18.3682C273.812 18.5409 273.637 18.6843 273.426 18.784V18.752Z" fill="white"/>
</svg>
