<svg width="617" height="203" viewBox="0 0 617 203" fill="none" xmlns="http://www.w3.org/2000/svg">
<g filter="url(#filter0_d_101_62)">
<path d="M34.751 4.7063L34.751 4.70632H34.7551H122.729H210.704H355.816H398.543C400.972 4.70632 403.308 5.63662 405.072 7.30605L426.497 27.5801C428.447 29.4252 431.03 30.4534 433.714 30.4534H582.554H597.495C602.742 30.4534 606.995 34.7067 606.995 39.9534V47.5864C606.995 50.5131 605.646 53.2765 603.339 55.0767L596.072 60.7455C593.522 62.7352 592.031 65.7895 592.031 69.0243V119.188C592.031 122.24 593.358 125.14 595.667 127.135L603.705 134.077C605.794 135.882 606.995 138.506 606.995 141.267V161.283C606.995 166.53 602.742 170.783 597.495 170.783H207.292C204.411 170.783 201.657 171.966 199.674 174.056L186.997 187.418C185.203 189.308 182.711 190.379 180.105 190.379H19.814C14.5672 190.379 10.314 186.126 10.314 180.879V140.983C10.314 138.379 11.3828 135.889 13.2706 134.096L20.6504 127.084C22.7369 125.102 23.9182 122.35 23.9182 119.472V68.7384C23.9182 65.6753 22.5807 62.7649 20.2561 60.7701L13.6273 55.0817C11.5242 53.2769 10.314 50.6437 10.314 47.8723V14.0831C10.314 8.80566 14.6153 4.53974 19.8925 4.58339L34.751 4.7063Z" stroke="white" stroke-opacity="0.2"/>
<g opacity="0.2">
<path d="M7.99976 58.1681C7.99976 56.4698 9.98281 55.5444 11.2844 56.6353L20.8887 64.6846C21.3421 65.0646 21.604 65.6258 21.604 66.2174V120.586C21.604 121.154 21.3627 121.695 20.9403 122.074L11.336 130.698C10.0485 131.855 7.99976 130.941 7.99976 129.21V58.1681Z" fill="white"/>
</g>
<g opacity="0.4">
<path d="M608.402 59.168C608.402 57.4697 606.419 56.5443 605.117 57.6352L595.513 65.6845C595.06 66.0645 594.798 66.6257 594.798 67.2173V121.586C594.798 122.154 595.039 122.695 595.462 123.074L605.066 131.698C606.353 132.854 608.402 131.941 608.402 130.21V59.168Z" fill="#D9D9D9"/>
</g>
<path d="M264.288 175.99H284.146C285.48 175.99 286.15 177.6 285.21 178.547L274.772 189.058C274.491 189.341 274.107 189.501 273.708 189.501H253.85C252.516 189.501 251.845 187.89 252.785 186.944L263.224 176.433C263.505 176.149 263.888 175.99 264.288 175.99Z" stroke="white" stroke-opacity="0.2"/>
<path d="M235.265 175.99H255.124C256.457 175.99 257.128 177.6 256.188 178.547L245.75 189.058C245.468 189.341 245.085 189.501 244.685 189.501H224.827C223.493 189.501 222.823 187.89 223.763 186.944L234.201 176.433C234.483 176.149 234.866 175.99 235.265 175.99Z" stroke="white" stroke-opacity="0.2"/>
<path d="M204.824 176.08C205.199 175.702 205.71 175.49 206.243 175.49H226.101C227.88 175.49 228.773 177.637 227.52 178.899L217.082 189.41C216.707 189.788 216.196 190.001 215.663 190.001H195.805C194.026 190.001 193.132 187.854 194.386 186.592L204.824 176.08Z" fill="white"/>
<path d="M206.243 175.99H226.101C227.435 175.99 228.105 177.6 227.166 178.547L216.727 189.058C216.446 189.341 216.063 189.501 215.663 189.501H195.805C194.471 189.501 193.801 187.89 194.74 186.944L205.179 176.433C205.46 176.149 205.843 175.99 206.243 175.99Z" stroke="white" stroke-opacity="0.2"/>
</g>
<defs>
<filter id="filter0_d_101_62" x="-0.000244141" y="0.0830688" width="616.402" height="202.796" filterUnits="userSpaceOnUse" color-interpolation-filters="sRGB">
<feFlood flood-opacity="0" result="BackgroundImageFix"/>
<feColorMatrix in="SourceAlpha" type="matrix" values="0 0 0 0 0 0 0 0 0 0 0 0 0 0 0 0 0 0 127 0" result="hardAlpha"/>
<feOffset dy="4"/>
<feGaussianBlur stdDeviation="4"/>
<feComposite in2="hardAlpha" operator="out"/>
<feColorMatrix type="matrix" values="0 0 0 0 0 0 0 0 0 0 0 0 0 0 0 0 0 0 0.62 0"/>
<feBlend mode="normal" in2="BackgroundImageFix" result="effect1_dropShadow_101_62"/>
<feBlend mode="normal" in="SourceGraphic" in2="effect1_dropShadow_101_62" result="shape"/>
</filter>
</defs>
</svg>
