<svg width="229" height="78" viewBox="0 0 229 78" fill="none" xmlns="http://www.w3.org/2000/svg">
<g opacity="0.3">
<mask id="path-1-inside-1_57_250" fill="white">
<path fill-rule="evenodd" clip-rule="evenodd" d="M207.832 66.2548C217.598 60.4015 224.134 49.7141 224.134 37.5C224.134 18.9985 209.136 4 190.634 4C172.63 4 157.944 18.2024 157.167 36.0148C156.634 36.1111 156.089 36.1598 155.538 36.1582L8.61423 35.7065C3.76758 35.6916 -0.131195 39.6879 0.00338221 44.5327V59.2883L0.00610708 59.3971C0.0418199 60.8219 0.415409 62.2178 1.09612 63.47L5.98911 72.4708C7.5643 75.3684 10.5982 77.1723 13.8963 77.1723H126.056H127.008H190.921C192.95 77.1723 194.92 76.4865 196.511 75.2261L207.832 66.2548Z"/>
</mask>
<path d="M207.832 66.2548L207.318 65.3971L207.262 65.4306L207.211 65.4711L207.832 66.2548ZM157.167 36.0148L157.344 36.9988L158.131 36.8567L158.166 36.0584L157.167 36.0148ZM155.538 36.1582L155.535 37.1581L155.535 37.1581L155.538 36.1582ZM8.61423 35.7065L8.6173 34.7065L8.6173 34.7065L8.61423 35.7065ZM0.00338221 44.5327H1.00338V44.5188L1.003 44.5049L0.00338221 44.5327ZM0.00338221 59.2883H-0.996618V59.3009L-0.996304 59.3134L0.00338221 59.2883ZM0.00610708 59.3971L1.00579 59.372L1.00579 59.372L0.00610708 59.3971ZM1.09612 63.47L0.217551 63.9476L0.217551 63.9476L1.09612 63.47ZM5.98911 72.4708L5.11054 72.9484L5.11054 72.9484L5.98911 72.4708ZM196.511 75.2261L197.132 76.0098L197.132 76.0098L196.511 75.2261ZM223.134 37.5C223.134 49.3483 216.795 59.717 207.318 65.3971L208.346 67.1126C218.401 61.0861 225.134 50.0799 225.134 37.5H223.134ZM190.634 5C208.584 5 223.134 19.5507 223.134 37.5H225.134C225.134 18.4462 209.688 3 190.634 3V5ZM158.166 36.0584C158.92 18.7785 173.168 5 190.634 5V3C172.093 3 156.968 17.6264 156.168 35.9712L158.166 36.0584ZM155.535 37.1581C156.147 37.16 156.752 37.1059 157.344 36.9988L156.989 35.0307C156.515 35.1164 156.031 35.1597 155.541 35.1582L155.535 37.1581ZM8.61115 36.7065L155.535 37.1581L155.541 35.1582L8.6173 34.7065L8.61115 36.7065ZM1.003 44.5049C0.88409 40.2243 4.32888 36.6933 8.61115 36.7065L8.6173 34.7065C3.20629 34.6899 -1.14648 39.1515 -0.996232 44.5604L1.003 44.5049ZM1.00338 59.2883V44.5327H-0.996618V59.2883H1.00338ZM1.00579 59.372L1.00307 59.2633L-0.996304 59.3134L-0.993579 59.4221L1.00579 59.372ZM1.9747 62.9924C1.36962 61.8793 1.03754 60.6385 1.00579 59.372L-0.993579 59.4221C-0.953898 61.0052 -0.538799 62.5563 0.217551 63.9476L1.9747 62.9924ZM6.86769 71.9932L1.9747 62.9924L0.217551 63.9476L5.11054 72.9484L6.86769 71.9932ZM13.8963 76.1723C10.9647 76.1723 8.26785 74.5688 6.86769 71.9932L5.11054 72.9484C6.86074 76.1679 10.2318 78.1723 13.8963 78.1723V76.1723ZM126.056 76.1723H13.8963V78.1723H126.056V76.1723ZM127.008 76.1723H126.056V78.1723H127.008V76.1723ZM190.921 76.1723H127.008V78.1723H190.921V76.1723ZM195.89 74.4423C194.476 75.5627 192.725 76.1723 190.921 76.1723V78.1723C193.176 78.1723 195.364 77.4103 197.132 76.0098L195.89 74.4423ZM207.211 65.4711L195.89 74.4423L197.132 76.0098L208.453 67.0386L207.211 65.4711Z" fill="white" mask="url(#path-1-inside-1_57_250)"/>
</g>
<path d="M169.097 41.349C169.734 44.3089 170.947 47.1143 172.668 49.6052C174.389 52.0961 176.584 54.2236 179.127 55.8663C181.67 57.5089 184.512 58.6346 187.491 59.179C190.469 59.7233 193.525 59.6758 196.485 59.039C199.445 58.4022 202.25 57.1887 204.741 55.4677C207.232 53.7467 209.36 51.5519 211.002 49.0087C212.645 46.4655 213.771 43.6236 214.315 40.6454C214.859 37.6671 214.812 34.6108 214.175 31.651C213.538 28.6911 212.325 25.8856 210.604 23.3948C208.883 20.9039 206.688 18.7764 204.145 17.1337C201.601 15.491 198.76 14.3654 195.781 13.821C192.803 13.2766 189.747 13.3242 186.787 13.961C183.827 14.5978 181.022 15.8113 178.531 17.5323C176.04 19.2533 173.912 21.4481 172.27 23.9913C170.627 26.5345 169.501 29.3764 168.957 32.3546C168.413 35.3328 168.46 38.3892 169.097 41.349L169.097 41.349Z" stroke="white"/>
<path opacity="0.8" d="M165.916 36.5C165.364 36.5 164.914 36.0521 164.935 35.5002C165.142 29.9724 167.06 24.6356 170.438 20.234C174.019 15.5676 179.039 12.213 184.721 10.6906C190.402 9.16828 196.427 9.56319 201.861 11.8141C206.987 13.9373 211.317 17.5998 214.26 22.2836C214.554 22.7512 214.388 23.364 213.91 23.6401L212.775 24.2957C212.296 24.5718 211.687 24.4067 211.39 23.9406C208.813 19.8874 205.047 16.7175 200.594 14.8733C195.833 12.9013 190.555 12.5553 185.578 13.889C180.6 15.2227 176.202 18.1616 173.065 22.2497C170.131 26.073 168.454 30.7017 168.249 35.5003C168.225 36.0521 167.78 36.5 167.227 36.5H165.916Z" fill="#D9D9D9"/>
<path opacity="0.8" d="M217.354 36.5C217.906 36.5 218.356 36.948 218.335 37.4999C218.128 43.0277 216.21 48.3645 212.832 52.766C209.455 57.1676 204.797 60.402 199.511 62.0326C198.983 62.1954 198.434 61.877 198.291 61.3435L197.952 60.077C197.809 59.5435 198.126 58.9973 198.653 58.8317C203.235 57.3916 207.272 54.5736 210.205 50.7503C213.139 46.927 214.816 42.2984 215.021 37.4998C215.045 36.948 215.491 36.5 216.043 36.5L217.354 36.5Z" fill="#D9D9D9"/>
<path opacity="0.8" d="M184.977 61.3434C184.835 61.8769 184.285 62.1953 183.758 62.0325C177.647 60.1475 172.413 56.1315 169.01 50.7165C168.717 50.2489 168.882 49.636 169.36 49.3599L170.496 48.7043C170.974 48.4281 171.584 48.5934 171.88 49.0595C174.84 53.7156 179.352 57.1774 184.615 58.8316C185.142 58.9972 185.46 59.5434 185.317 60.0769L184.977 61.3434Z" fill="#D9D9D9"/>
<path d="M183.034 33.22C184.844 33.22 185.584 31.94 184.684 30.37C184.164 29.46 184.474 28.3 185.384 27.78L187.114 26.79C187.904 26.32 188.924 26.6 189.394 27.39L189.504 27.58C190.404 29.15 191.884 29.15 192.794 27.58L192.904 27.39C193.354 26.6 194.374 26.32 195.164 26.79L196.894 27.78C197.804 28.3 198.114 29.47 197.594 30.38C196.684 31.94 197.424 33.22 199.234 33.22C200.274 33.22 201.134 34.07 201.134 35.12V36.88C201.134 37.92 200.284 38.78 199.234 38.78C197.424 38.78 196.684 40.06 197.594 41.63C198.114 42.54 197.804 43.7 196.894 44.22L195.164 45.21C194.374 45.68 193.354 45.4 192.884 44.61L192.774 44.42C191.874 42.85 190.394 42.85 189.484 44.42L189.374 44.61C188.904 45.4 187.884 45.68 187.094 45.21L185.364 44.22C184.454 43.7 184.144 42.53 184.664 41.63C185.574 40.06 184.834 38.78 183.024 38.78C181.984 38.78 181.124 37.93 181.124 36.88V35.12C181.134 34.08 181.984 33.22 183.034 33.22ZM191.134 39.25C192.924 39.25 194.384 37.79 194.384 36C194.384 34.21 192.924 32.75 191.134 32.75C189.344 32.75 187.884 34.21 187.884 36C187.884 37.79 189.344 39.25 191.134 39.25Z" fill="white"/>
<path d="M22.3809 48.5H152.003C155.558 48.5 157.709 52.4287 155.794 55.4241L150.679 63.4241C149.852 64.7174 148.423 65.5 146.888 65.5H17.2658C13.7106 65.5 11.5594 61.5713 13.4745 58.5759L18.5896 50.5759C19.4165 49.2826 20.8458 48.5 22.3809 48.5Z" fill="#D9D9D9" fill-opacity="0.45" stroke="white"/>
<path d="M55.8503 58.8573C55.9823 58.8573 56.0903 58.8473 56.1743 58.8273C56.2623 58.8033 56.3323 58.7733 56.3843 58.7373C56.4363 58.6973 56.4723 58.6513 56.4923 58.5993C56.5123 58.5473 56.5223 58.4893 56.5223 58.4253C56.5223 58.2893 56.4583 58.1773 56.3303 58.0893C56.2023 57.9973 55.9823 57.8993 55.6703 57.7953C55.5343 57.7473 55.3983 57.6933 55.2623 57.6333C55.1263 57.5693 55.0043 57.4913 54.8963 57.3993C54.7883 57.3033 54.7003 57.1893 54.6323 57.0573C54.5643 56.9213 54.5303 56.7573 54.5303 56.5653C54.5303 56.3733 54.5663 56.2013 54.6383 56.0493C54.7103 55.8933 54.8123 55.7613 54.9443 55.6533C55.0763 55.5453 55.2363 55.4633 55.4243 55.4073C55.6123 55.3473 55.8243 55.3173 56.0603 55.3173C56.3403 55.3173 56.5823 55.3473 56.7863 55.4073C56.9903 55.4673 57.1583 55.5333 57.2903 55.6053L57.0203 56.3433C56.9043 56.2833 56.7743 56.2313 56.6303 56.1873C56.4903 56.1393 56.3203 56.1153 56.1203 56.1153C55.8963 56.1153 55.7343 56.1473 55.6343 56.2113C55.5383 56.2713 55.4903 56.3653 55.4903 56.4933C55.4903 56.5693 55.5083 56.6333 55.5443 56.6853C55.5803 56.7373 55.6303 56.7853 55.6943 56.8293C55.7623 56.8693 55.8383 56.9073 55.9223 56.9433C56.0103 56.9753 56.1063 57.0093 56.2103 57.0453C56.4263 57.1253 56.6143 57.2053 56.7743 57.2853C56.9343 57.3613 57.0663 57.4513 57.1703 57.5553C57.2783 57.6593 57.3583 57.7813 57.4103 57.9213C57.4623 58.0613 57.4883 58.2313 57.4883 58.4313C57.4883 58.8193 57.3523 59.1213 57.0803 59.3373C56.8083 59.5493 56.3983 59.6553 55.8503 59.6553C55.6663 59.6553 55.5003 59.6433 55.3523 59.6193C55.2043 59.5993 55.0723 59.5733 54.9563 59.5413C54.8443 59.5093 54.7463 59.4753 54.6623 59.4393C54.5823 59.4033 54.5143 59.3693 54.4583 59.3373L54.7223 58.5933C54.8463 58.6613 54.9983 58.7233 55.1783 58.7793C55.3623 58.8313 55.5863 58.8573 55.8503 58.8573ZM59.6739 57.1233C59.8419 56.8393 60.0019 56.5553 60.1539 56.2713C60.3059 55.9873 60.4459 55.7013 60.5739 55.4133H61.6059C61.3779 55.8613 61.1419 56.2953 60.8979 56.7153C60.6539 57.1353 60.3959 57.5573 60.1239 57.9813V59.5713H59.1879V57.9933C58.9159 57.5693 58.6559 57.1453 58.4079 56.7213C58.1639 56.2973 57.9279 55.8613 57.6999 55.4133H58.7859C58.9139 55.7013 59.0519 55.9873 59.1999 56.2713C59.3479 56.5553 59.5059 56.8393 59.6739 57.1233ZM63.1921 58.8573C63.3241 58.8573 63.4321 58.8473 63.5161 58.8273C63.6041 58.8033 63.6741 58.7733 63.7261 58.7373C63.7781 58.6973 63.8141 58.6513 63.8341 58.5993C63.8541 58.5473 63.8641 58.4893 63.8641 58.4253C63.8641 58.2893 63.8001 58.1773 63.6721 58.0893C63.5441 57.9973 63.3241 57.8993 63.0121 57.7953C62.8761 57.7473 62.7401 57.6933 62.6041 57.6333C62.4681 57.5693 62.3461 57.4913 62.2381 57.3993C62.1301 57.3033 62.0421 57.1893 61.9741 57.0573C61.9061 56.9213 61.8721 56.7573 61.8721 56.5653C61.8721 56.3733 61.9081 56.2013 61.9801 56.0493C62.0521 55.8933 62.1541 55.7613 62.2861 55.6533C62.4181 55.5453 62.5781 55.4633 62.7661 55.4073C62.9541 55.3473 63.1661 55.3173 63.4021 55.3173C63.6821 55.3173 63.9241 55.3473 64.1281 55.4073C64.3321 55.4673 64.5001 55.5333 64.6321 55.6053L64.3621 56.3433C64.2461 56.2833 64.1161 56.2313 63.9721 56.1873C63.8321 56.1393 63.6621 56.1153 63.4621 56.1153C63.2381 56.1153 63.0761 56.1473 62.9761 56.2113C62.8801 56.2713 62.8321 56.3653 62.8321 56.4933C62.8321 56.5693 62.8501 56.6333 62.8861 56.6853C62.9221 56.7373 62.9721 56.7853 63.0361 56.8293C63.1041 56.8693 63.1801 56.9073 63.2641 56.9433C63.3521 56.9753 63.4481 57.0093 63.5521 57.0453C63.7681 57.1253 63.9561 57.2053 64.1161 57.2853C64.2761 57.3613 64.4081 57.4513 64.5121 57.5553C64.6201 57.6593 64.7001 57.7813 64.7521 57.9213C64.8041 58.0613 64.8301 58.2313 64.8301 58.4313C64.8301 58.8193 64.6941 59.1213 64.4221 59.3373C64.1501 59.5493 63.7401 59.6553 63.1921 59.6553C63.0081 59.6553 62.8421 59.6433 62.6941 59.6193C62.5461 59.5993 62.4141 59.5733 62.2981 59.5413C62.1861 59.5093 62.0881 59.4753 62.0041 59.4393C61.9241 59.4033 61.8561 59.3693 61.8001 59.3373L62.0641 58.5933C62.1881 58.6613 62.3401 58.7233 62.5201 58.7793C62.7041 58.8313 62.9281 58.8573 63.1921 58.8573ZM68.5171 55.4133V56.2113H67.2631V59.5713H66.3271V56.2113H65.0731V55.4133H68.5171ZM69.1187 59.5713V55.4133H71.9267V56.1993H70.0547V57.0153H71.7167V57.7833H70.0547V58.7853H72.0647V59.5713H69.1187ZM73.8614 55.4133C73.9334 55.5453 74.0154 55.7093 74.1074 55.9053C74.2034 56.0973 74.3014 56.3073 74.4014 56.5353C74.5054 56.7593 74.6074 56.9893 74.7074 57.2253C74.8074 57.4613 74.9014 57.6833 74.9894 57.8913C75.0774 57.6833 75.1714 57.4613 75.2714 57.2253C75.3714 56.9893 75.4714 56.7593 75.5714 56.5353C75.6754 56.3073 75.7734 56.0973 75.8654 55.9053C75.9614 55.7093 76.0454 55.5453 76.1174 55.4133H76.9694C77.0094 55.6893 77.0454 55.9993 77.0774 56.3433C77.1134 56.6833 77.1434 57.0393 77.1674 57.4113C77.1954 57.7793 77.2194 58.1493 77.2394 58.5213C77.2634 58.8933 77.2834 59.2433 77.2994 59.5713H76.3874C76.3754 59.1673 76.3594 58.7273 76.3394 58.2513C76.3194 57.7753 76.2894 57.2953 76.2494 56.8113C76.1774 56.9793 76.0974 57.1653 76.0094 57.3693C75.9214 57.5733 75.8334 57.7773 75.7454 57.9813C75.6614 58.1853 75.5794 58.3813 75.4994 58.5693C75.4194 58.7533 75.3514 58.9113 75.2954 59.0433H74.6414C74.5854 58.9113 74.5174 58.7533 74.4374 58.5693C74.3574 58.3813 74.2734 58.1853 74.1854 57.9813C74.1014 57.7773 74.0154 57.5733 73.9274 57.3693C73.8394 57.1653 73.7594 56.9793 73.6874 56.8113C73.6474 57.2953 73.6174 57.7753 73.5974 58.2513C73.5774 58.7273 73.5614 59.1673 73.5494 59.5713H72.6374C72.6534 59.2433 72.6714 58.8933 72.6914 58.5213C72.7154 58.1493 72.7394 57.7793 72.7634 57.4113C72.7914 57.0393 72.8214 56.6833 72.8534 56.3433C72.8894 55.9993 72.9274 55.6893 72.9674 55.4133H73.8614ZM80.7175 58.8573C80.8495 58.8573 80.9575 58.8473 81.0415 58.8273C81.1295 58.8033 81.1995 58.7733 81.2515 58.7373C81.3035 58.6973 81.3395 58.6513 81.3595 58.5993C81.3795 58.5473 81.3895 58.4893 81.3895 58.4253C81.3895 58.2893 81.3255 58.1773 81.1975 58.0893C81.0695 57.9973 80.8495 57.8993 80.5375 57.7953C80.4015 57.7473 80.2655 57.6933 80.1295 57.6333C79.9935 57.5693 79.8715 57.4913 79.7635 57.3993C79.6555 57.3033 79.5675 57.1893 79.4995 57.0573C79.4315 56.9213 79.3975 56.7573 79.3975 56.5653C79.3975 56.3733 79.4335 56.2013 79.5055 56.0493C79.5775 55.8933 79.6795 55.7613 79.8115 55.6533C79.9435 55.5453 80.1035 55.4633 80.2915 55.4073C80.4795 55.3473 80.6915 55.3173 80.9275 55.3173C81.2075 55.3173 81.4495 55.3473 81.6535 55.4073C81.8575 55.4673 82.0255 55.5333 82.1575 55.6053L81.8875 56.3433C81.7715 56.2833 81.6415 56.2313 81.4975 56.1873C81.3575 56.1393 81.1875 56.1153 80.9875 56.1153C80.7635 56.1153 80.6015 56.1473 80.5015 56.2113C80.4055 56.2713 80.3575 56.3653 80.3575 56.4933C80.3575 56.5693 80.3755 56.6333 80.4115 56.6853C80.4475 56.7373 80.4975 56.7853 80.5615 56.8293C80.6295 56.8693 80.7055 56.9073 80.7895 56.9433C80.8775 56.9753 80.9735 57.0093 81.0775 57.0453C81.2935 57.1253 81.4815 57.2053 81.6415 57.2853C81.8015 57.3613 81.9335 57.4513 82.0375 57.5553C82.1455 57.6593 82.2255 57.7813 82.2775 57.9213C82.3295 58.0613 82.3555 58.2313 82.3555 58.4313C82.3555 58.8193 82.2195 59.1213 81.9475 59.3373C81.6755 59.5493 81.2655 59.6553 80.7175 59.6553C80.5335 59.6553 80.3675 59.6433 80.2195 59.6193C80.0715 59.5993 79.9395 59.5733 79.8235 59.5413C79.7115 59.5093 79.6135 59.4753 79.5295 59.4393C79.4495 59.4033 79.3815 59.3693 79.3255 59.3373L79.5895 58.5933C79.7135 58.6613 79.8655 58.7233 80.0455 58.7793C80.2295 58.8313 80.4535 58.8573 80.7175 58.8573ZM83.0757 59.5713V55.4133H85.8837V56.1993H84.0117V57.0153H85.6737V57.7833H84.0117V58.7853H86.0217V59.5713H83.0757ZM89.7984 55.4133V56.2113H88.5444V59.5713H87.6084V56.2113H86.3544V55.4133H89.7984ZM93.6421 55.4133V56.2113H92.3881V59.5713H91.4521V56.2113H90.1981V55.4133H93.6421ZM94.2437 55.4133H95.1797V59.5713H94.2437V55.4133ZM98.9321 59.5713C98.6641 59.0953 98.3741 58.6253 98.0621 58.1613C97.7501 57.6973 97.4181 57.2593 97.0661 56.8473V59.5713H96.1421V55.4133H96.9041C97.0361 55.5453 97.1821 55.7073 97.3421 55.8993C97.5021 56.0913 97.6641 56.2973 97.8281 56.5173C97.9961 56.7333 98.1621 56.9593 98.3261 57.1953C98.4901 57.4273 98.6441 57.6513 98.7881 57.8673V55.4133H99.7181V59.5713H98.9321ZM102.705 56.1333C102.269 56.1333 101.953 56.2553 101.757 56.4993C101.565 56.7393 101.469 57.0693 101.469 57.4893C101.469 57.6933 101.493 57.8793 101.541 58.0473C101.589 58.2113 101.661 58.3533 101.757 58.4733C101.853 58.5933 101.973 58.6873 102.117 58.7553C102.261 58.8193 102.429 58.8513 102.621 58.8513C102.725 58.8513 102.813 58.8493 102.885 58.8453C102.961 58.8413 103.027 58.8333 103.083 58.8213V57.3753H104.019V59.4333C103.907 59.4773 103.727 59.5233 103.479 59.5713C103.231 59.6233 102.925 59.6493 102.561 59.6493C102.249 59.6493 101.965 59.6013 101.709 59.5053C101.457 59.4093 101.241 59.2693 101.061 59.0853C100.881 58.9013 100.741 58.6753 100.641 58.4073C100.545 58.1393 100.497 57.8333 100.497 57.4893C100.497 57.1413 100.551 56.8333 100.659 56.5653C100.767 56.2973 100.915 56.0713 101.103 55.8873C101.291 55.6993 101.511 55.5573 101.763 55.4613C102.019 55.3653 102.291 55.3173 102.579 55.3173C102.775 55.3173 102.951 55.3313 103.107 55.3593C103.267 55.3833 103.403 55.4133 103.515 55.4493C103.631 55.4813 103.725 55.5153 103.797 55.5513C103.873 55.5873 103.927 55.6153 103.959 55.6353L103.689 56.3853C103.561 56.3173 103.413 56.2593 103.245 56.2113C103.081 56.1593 102.901 56.1333 102.705 56.1333ZM106.024 58.8573C106.156 58.8573 106.264 58.8473 106.348 58.8273C106.436 58.8033 106.506 58.7733 106.558 58.7373C106.61 58.6973 106.646 58.6513 106.666 58.5993C106.686 58.5473 106.696 58.4893 106.696 58.4253C106.696 58.2893 106.632 58.1773 106.504 58.0893C106.376 57.9973 106.156 57.8993 105.844 57.7953C105.708 57.7473 105.572 57.6933 105.436 57.6333C105.3 57.5693 105.178 57.4913 105.07 57.3993C104.962 57.3033 104.874 57.1893 104.806 57.0573C104.738 56.9213 104.704 56.7573 104.704 56.5653C104.704 56.3733 104.74 56.2013 104.812 56.0493C104.884 55.8933 104.986 55.7613 105.118 55.6533C105.25 55.5453 105.41 55.4633 105.598 55.4073C105.786 55.3473 105.998 55.3173 106.234 55.3173C106.514 55.3173 106.756 55.3473 106.96 55.4073C107.164 55.4673 107.332 55.5333 107.464 55.6053L107.194 56.3433C107.078 56.2833 106.948 56.2313 106.804 56.1873C106.664 56.1393 106.494 56.1153 106.294 56.1153C106.07 56.1153 105.908 56.1473 105.808 56.2113C105.712 56.2713 105.664 56.3653 105.664 56.4933C105.664 56.5693 105.682 56.6333 105.718 56.6853C105.754 56.7373 105.804 56.7853 105.868 56.8293C105.936 56.8693 106.012 56.9073 106.096 56.9433C106.184 56.9753 106.28 57.0093 106.384 57.0453C106.6 57.1253 106.788 57.2053 106.948 57.2853C107.108 57.3613 107.24 57.4513 107.344 57.5553C107.452 57.6593 107.532 57.7813 107.584 57.9213C107.636 58.0613 107.662 58.2313 107.662 58.4313C107.662 58.8193 107.526 59.1213 107.254 59.3373C106.982 59.5493 106.572 59.6553 106.024 59.6553C105.84 59.6553 105.674 59.6433 105.526 59.6193C105.378 59.5993 105.246 59.5733 105.13 59.5413C105.018 59.5093 104.92 59.4753 104.836 59.4393C104.756 59.4033 104.688 59.3693 104.632 59.3373L104.896 58.5933C105.02 58.6613 105.172 58.7233 105.352 58.7793C105.536 58.8313 105.76 58.8573 106.024 58.8573Z" fill="white"/>
</svg>
