<svg width="741" height="29" viewBox="0 0 741 29" fill="none" xmlns="http://www.w3.org/2000/svg">
<line y1="1.35358" x2="714" y2="1.35358" stroke="white" stroke-width="2"/>
<path d="M0 2.35358H201L195.909 9.30713C194.968 10.5934 193.469 11.3536 191.875 11.3536H9.12503C7.53089 11.3536 6.03228 10.5934 5.0906 9.30712L0 2.35358Z" fill="white"/>
<path d="M731.582 19.2288C729.499 21.3116 729.499 24.6884 731.582 26.7712C733.665 28.854 737.042 28.854 739.125 26.7712C741.208 24.6884 741.208 21.3116 739.125 19.2288C737.042 17.146 733.665 17.146 731.582 19.2288ZM712.646 1.70711L734.646 23.7071L736.061 22.2929L714.061 0.292893L712.646 1.70711Z" fill="white"/>
</svg>
