<svg width="660" height="200" viewBox="0 0 660 200" fill="none" xmlns="http://www.w3.org/2000/svg">
<g filter="url(#filter0_d_16_132)">
<path d="M608.189 86.6146C607.125 91.5635 605.096 96.2542 602.218 100.419C599.341 104.584 595.671 108.141 591.419 110.887C587.167 113.634 582.415 115.516 577.435 116.426C572.456 117.336 567.346 117.257 562.397 116.192C557.448 115.127 552.757 113.098 548.593 110.221C544.428 107.343 540.871 103.674 538.124 99.4216C535.378 95.1693 533.495 90.4178 532.585 85.4382C531.675 80.4586 531.755 75.3484 532.819 70.3996C533.884 65.4507 535.913 60.76 538.791 56.5953C541.668 52.4305 545.338 48.8734 549.59 46.1268C553.842 43.3803 558.594 41.4982 563.573 40.588C568.553 39.6778 573.663 39.7573 578.612 40.822C583.561 41.8867 588.251 43.9158 592.416 46.7933C596.581 49.6708 600.138 53.3404 602.885 57.5926C605.631 61.8449 607.513 66.5964 608.423 71.576C609.334 76.5557 609.254 81.6658 608.189 86.6146L608.189 86.6146Z" stroke="white"/>
<path opacity="0.8" d="M613.798 78.507C614.35 78.507 614.799 78.0591 614.787 77.507C614.575 68.1097 611.378 59.0134 605.645 51.5424C599.709 43.8066 591.387 38.2457 581.968 35.7221C572.55 33.1984 562.562 33.853 553.553 37.5845C544.853 41.1882 537.536 47.4672 532.654 55.4995C532.367 55.9714 532.532 56.5837 533.01 56.8599L536.032 58.6044C536.51 58.8806 537.12 58.7158 537.409 58.2448C541.686 51.2586 548.07 45.797 555.654 42.6557C563.546 39.3867 572.296 38.8132 580.547 41.0241C588.799 43.235 596.09 48.1068 601.29 54.8839C606.287 61.3962 609.085 69.3182 609.296 77.507C609.31 78.0591 609.757 78.507 610.309 78.507H613.798Z" fill="#D9D9D9"/>
<path opacity="0.8" d="M527.213 78.5071C526.66 78.5071 526.212 78.9549 526.224 79.5071C526.436 88.9044 529.633 98.0007 535.366 105.472C541.099 112.943 549.058 118.385 558.08 121.022C558.61 121.177 559.159 120.86 559.302 120.326L560.205 116.956C560.348 116.422 560.03 115.875 559.501 115.719C551.646 113.395 544.718 108.642 539.721 102.13C534.724 95.6178 531.926 87.6959 531.715 79.5071C531.7 78.955 531.254 78.5071 530.702 78.5071L527.213 78.5071Z" fill="#D9D9D9"/>
<path opacity="0.8" d="M581.712 120.326C581.855 120.86 582.404 121.177 582.934 121.022C593.546 117.921 602.615 110.962 608.357 101.515C608.644 101.043 608.479 100.43 608.001 100.154L604.979 98.4097C604.501 98.1336 603.891 98.2982 603.602 98.7693C598.59 106.957 590.719 112.996 581.513 115.719C580.984 115.875 580.667 116.422 580.809 116.956L581.712 120.326Z" fill="#D9D9D9"/>
<g opacity="0.3">
<mask id="path-5-inside-1_16_132" fill="white">
<path fill-rule="evenodd" clip-rule="evenodd" d="M568.396 135.699C599.793 135.699 625.246 110.247 625.246 78.8497C625.246 47.4525 599.793 22 568.396 22C550.394 22 534.346 30.3675 523.93 43.4254H410.459C407.793 43.4254 405.263 44.6079 403.553 46.654L383.178 71.0347C381.463 73.087 378.924 74.2701 376.249 74.2633L43.023 73.4162C37.9455 73.4033 33.8626 77.5906 34.0035 82.6661L34.1866 89.2577V115.699L34.278 146.568C34.285 148.923 35.215 151.182 36.8684 152.859L46.8492 162.985C48.5406 164.701 50.8494 165.667 53.2588 165.667H261.775H410.069H527.627C530.343 165.667 532.914 164.44 534.622 162.329L557.086 134.574C560.741 135.312 564.523 135.699 568.396 135.699Z"/>
</mask>
<path d="M523.93 43.4254V44.4254H524.411L524.712 44.049L523.93 43.4254ZM403.553 46.654L402.786 46.0127L402.786 46.0127L403.553 46.654ZM383.178 71.0347L382.411 70.3934L382.411 70.3934L383.178 71.0347ZM376.249 74.2633L376.252 73.2633L376.252 73.2633L376.249 74.2633ZM43.023 73.4162L43.0255 72.4162L43.0255 72.4162L43.023 73.4162ZM34.0035 82.6661L33.0039 82.6939L34.0035 82.6661ZM34.1866 89.2577H35.1866V89.2438L35.1863 89.2299L34.1866 89.2577ZM34.1866 115.699L33.1866 115.699L33.1866 115.702L34.1866 115.699ZM34.278 146.568L35.278 146.565L34.278 146.568ZM36.8684 152.859L37.5806 152.157L37.5806 152.157L36.8684 152.859ZM46.8492 162.985L47.5614 162.283L47.5614 162.283L46.8492 162.985ZM534.622 162.329L533.845 161.7L533.845 161.7L534.622 162.329ZM557.086 134.574L557.284 133.594L556.69 133.474L556.309 133.945L557.086 134.574ZM624.246 78.8497C624.246 109.695 599.241 134.699 568.396 134.699V136.699C600.346 136.699 626.246 110.799 626.246 78.8497H624.246ZM568.396 23C599.241 23 624.246 48.0048 624.246 78.8497H626.246C626.246 46.9002 600.346 21 568.396 21V23ZM524.712 44.049C534.947 31.2187 550.711 23 568.396 23V21C550.077 21 533.746 29.5162 523.148 42.8018L524.712 44.049ZM410.459 44.4254H523.93V42.4254H410.459V44.4254ZM404.321 47.2953C405.841 45.4765 408.089 44.4254 410.459 44.4254V42.4254C407.496 42.4254 404.686 43.7393 402.786 46.0127L404.321 47.2953ZM383.945 71.6759L404.321 47.2953L402.786 46.0127L382.411 70.3934L383.945 71.6759ZM376.247 75.2633C379.219 75.2709 382.04 73.9563 383.945 71.6759L382.411 70.3934C380.886 72.2177 378.629 73.2693 376.252 73.2633L376.247 75.2633ZM43.0204 74.4162L376.247 75.2633L376.252 73.2633L43.0255 72.4162L43.0204 74.4162ZM35.0032 82.6383C34.8778 78.1268 38.5071 74.4047 43.0204 74.4162L43.0255 72.4162C37.3839 72.4019 32.8473 77.0544 33.0039 82.6939L35.0032 82.6383ZM35.1863 89.2299L35.0032 82.6383L33.0039 82.6939L33.187 89.2854L35.1863 89.2299ZM35.1866 115.699V89.2577H33.1866V115.699H35.1866ZM35.278 146.565L35.1866 115.696L33.1866 115.702L33.278 146.571L35.278 146.565ZM37.5806 152.157C36.1109 150.666 35.2842 148.658 35.278 146.565L33.278 146.571C33.2858 149.188 34.3191 151.697 36.1562 153.561L37.5806 152.157ZM47.5614 162.283L37.5806 152.157L36.1562 153.561L46.137 163.687L47.5614 162.283ZM53.2588 164.667C51.1171 164.667 49.0648 163.808 47.5614 162.283L46.137 163.687C48.0164 165.593 50.5817 166.667 53.2588 166.667V164.667ZM261.775 164.667H53.2588V166.667H261.775V164.667ZM410.069 164.667H261.775V166.667H410.069V164.667ZM527.627 164.667H410.069V166.667H527.627V164.667ZM533.845 161.7C532.326 163.576 530.041 164.667 527.627 164.667V166.667C530.645 166.667 533.501 165.304 535.4 162.958L533.845 161.7ZM556.309 133.945L533.845 161.7L535.4 162.958L557.863 135.203L556.309 133.945ZM568.396 134.699C564.59 134.699 560.874 134.319 557.284 133.594L556.888 135.554C560.608 136.305 564.457 136.699 568.396 136.699V134.699Z" fill="white" mask="url(#path-5-inside-1_16_132)"/>
</g>
<path d="M511.51 138.25C512.01 138.25 512.41 137.85 512.41 137.35V132.7C512.41 132.2 512.01 131.8 511.51 131.8C511.01 131.8 510.61 132.2 510.61 132.7V137.35C510.61 137.84 511.02 138.25 511.51 138.25Z" fill="white"/>
<path d="M505 145.75C504.5 145.75 504.1 146.15 504.1 146.65V151.3C504.1 151.8 504.5 152.2 505 152.2C505.5 152.2 505.9 151.8 505.9 151.3V146.65C505.9 146.16 505.5 145.75 505 145.75Z" fill="white"/>
<path d="M498.49 138.25C498.99 138.25 499.39 137.85 499.39 137.35V132.7C499.39 132.2 498.99 131.8 498.49 131.8C497.99 131.8 497.59 132.2 497.59 132.7V137.35C497.59 137.84 497.99 138.25 498.49 138.25Z" fill="white"/>
<path d="M500.35 140.17H496.63C496.13 140.17 495.73 140.57 495.73 141.07C495.73 141.57 496.13 141.97 496.63 141.97H497.59V151.3C497.59 151.8 497.99 152.2 498.49 152.2C498.99 152.2 499.39 151.8 499.39 151.3V141.97H500.35C500.85 141.97 501.25 141.57 501.25 141.07C501.25 140.57 500.84 140.17 500.35 140.17Z" fill="white"/>
<path d="M513.37 140.17H509.65C509.15 140.17 508.75 140.57 508.75 141.07C508.75 141.57 509.15 141.97 509.65 141.97H510.61V151.3C510.61 151.8 511.01 152.2 511.51 152.2C512.01 152.2 512.41 151.8 512.41 151.3V141.97H513.37C513.87 141.97 514.27 141.57 514.27 141.07C514.27 140.57 513.87 140.17 513.37 140.17Z" fill="white"/>
<path d="M506.86 142.03H505.9V132.7C505.9 132.2 505.5 131.8 505 131.8C504.5 131.8 504.1 132.2 504.1 132.7V142.03H503.14C502.64 142.03 502.24 142.43 502.24 142.93C502.24 143.43 502.64 143.83 503.14 143.83H506.86C507.36 143.83 507.76 143.43 507.76 142.93C507.76 142.43 507.36 142.03 506.86 142.03Z" fill="white"/>
</g>
<defs>
<filter id="filter0_d_16_132" x="0" y="-12" width="659.246" height="211.667" filterUnits="userSpaceOnUse" color-interpolation-filters="sRGB">
<feFlood flood-opacity="0" result="BackgroundImageFix"/>
<feColorMatrix in="SourceAlpha" type="matrix" values="0 0 0 0 0 0 0 0 0 0 0 0 0 0 0 0 0 0 127 0" result="hardAlpha"/>
<feOffset/>
<feGaussianBlur stdDeviation="17"/>
<feComposite in2="hardAlpha" operator="out"/>
<feColorMatrix type="matrix" values="0 0 0 0 0 0 0 0 0 0 0 0 0 0 0 0 0 0 0.3 0"/>
<feBlend mode="normal" in2="BackgroundImageFix" result="effect1_dropShadow_16_132"/>
<feBlend mode="normal" in="SourceGraphic" in2="effect1_dropShadow_16_132" result="shape"/>
</filter>
</defs>
</svg>
