<svg width="427" height="42" viewBox="0 0 427 42" fill="none" xmlns="http://www.w3.org/2000/svg">
<path d="M31.0157 2.26638C31.8671 1.15305 33.1887 0.5 34.5902 0.5H416.882C420.609 0.5 422.721 4.77259 420.456 7.73362L395.984 39.7336C395.133 40.8469 393.811 41.5 392.41 41.5H10.1183C6.39061 41.5 4.27929 37.2274 6.54374 34.2664L31.0157 2.26638Z" fill="#D9D9D9" fill-opacity="0.45" stroke="white"/>
<path d="M181.012 26.196C180.331 26.196 179.743 26.1027 179.248 25.916C178.754 25.72 178.343 25.454 178.016 25.118C177.699 24.7727 177.461 24.3667 177.302 23.9C177.153 23.424 177.078 22.9013 177.078 22.332V16.298H179.262V22.15C179.262 22.542 179.304 22.878 179.388 23.158C179.482 23.4287 179.603 23.6527 179.752 23.83C179.911 23.998 180.098 24.1193 180.312 24.194C180.536 24.2687 180.779 24.306 181.04 24.306C181.572 24.306 182.002 24.1427 182.328 23.816C182.664 23.4893 182.832 22.934 182.832 22.15V16.298H185.016V22.332C185.016 22.9013 184.937 23.424 184.778 23.9C184.62 24.376 184.377 24.7867 184.05 25.132C183.724 25.468 183.308 25.7293 182.804 25.916C182.3 26.1027 181.703 26.196 181.012 26.196ZM190.029 16.186C191.475 16.186 192.586 16.4427 193.361 16.956C194.135 17.46 194.523 18.2907 194.523 19.448C194.523 20.6147 194.131 21.4593 193.347 21.982C192.563 22.4953 191.443 22.752 189.987 22.752H189.301V26H187.117V16.438C187.593 16.3447 188.097 16.2793 188.629 16.242C189.161 16.2047 189.627 16.186 190.029 16.186ZM190.169 18.048C190.01 18.048 189.851 18.0527 189.693 18.062C189.543 18.0713 189.413 18.0807 189.301 18.09V20.89H189.987C190.743 20.89 191.312 20.7873 191.695 20.582C192.077 20.3767 192.269 19.994 192.269 19.434C192.269 19.1633 192.217 18.9393 192.115 18.762C192.021 18.5847 191.881 18.4447 191.695 18.342C191.517 18.23 191.298 18.1553 191.037 18.118C190.775 18.0713 190.486 18.048 190.169 18.048ZM198.311 24.222C198.413 24.2313 198.53 24.2407 198.661 24.25C198.801 24.25 198.964 24.25 199.151 24.25C200.243 24.25 201.05 23.9747 201.573 23.424C202.105 22.8733 202.371 22.1127 202.371 21.142C202.371 20.1247 202.119 19.3547 201.615 18.832C201.111 18.3093 200.313 18.048 199.221 18.048C199.071 18.048 198.917 18.0527 198.759 18.062C198.6 18.062 198.451 18.0713 198.311 18.09V24.222ZM204.625 21.142C204.625 21.982 204.494 22.7147 204.233 23.34C203.971 23.9653 203.598 24.4833 203.113 24.894C202.637 25.3047 202.053 25.6127 201.363 25.818C200.672 26.0233 199.897 26.126 199.039 26.126C198.647 26.126 198.189 26.1073 197.667 26.07C197.144 26.042 196.631 25.9767 196.127 25.874V16.424C196.631 16.3307 197.153 16.27 197.695 16.242C198.245 16.2047 198.717 16.186 199.109 16.186C199.939 16.186 200.691 16.2793 201.363 16.466C202.044 16.6527 202.627 16.9467 203.113 17.348C203.598 17.7493 203.971 18.2627 204.233 18.888C204.494 19.5133 204.625 20.2647 204.625 21.142ZM212.589 26C212.487 25.664 212.37 25.3187 212.239 24.964C212.118 24.6093 211.997 24.2547 211.875 23.9H208.095C207.974 24.2547 207.848 24.6093 207.717 24.964C207.596 25.3187 207.484 25.664 207.381 26H205.113C205.477 24.9547 205.823 23.9887 206.149 23.102C206.476 22.2153 206.793 21.38 207.101 20.596C207.419 19.812 207.727 19.07 208.025 18.37C208.333 17.6607 208.651 16.97 208.977 16.298H211.063C211.381 16.97 211.693 17.6607 212.001 18.37C212.309 19.07 212.617 19.812 212.925 20.596C213.243 21.38 213.565 22.2153 213.891 23.102C214.218 23.9887 214.563 24.9547 214.927 26H212.589ZM209.971 18.496C209.925 18.636 209.855 18.8273 209.761 19.07C209.668 19.3127 209.561 19.5927 209.439 19.91C209.318 20.2273 209.183 20.5773 209.033 20.96C208.893 21.3427 208.749 21.744 208.599 22.164H211.357C211.208 21.744 211.063 21.3427 210.923 20.96C210.783 20.5773 210.648 20.2273 210.517 19.91C210.396 19.5927 210.289 19.3127 210.195 19.07C210.102 18.8273 210.027 18.636 209.971 18.496ZM222.231 16.298V18.16H219.305V26H217.121V18.16H214.195V16.298H222.231ZM223.634 26V16.298H230.186V18.132H225.818V20.036H229.696V21.828H225.818V24.166H230.508V26H223.634Z" fill="white"/>
</svg>
