<svg width="27" height="27" viewBox="0 0 27 27" fill="none" xmlns="http://www.w3.org/2000/svg">
<path fill-rule="evenodd" clip-rule="evenodd" d="M2.61035 12.2688C2.61035 6.86468 6.99125 2.4838 12.3954 2.4838H14.2721C19.6762 2.4838 24.0571 6.86469 24.0571 12.2688V14.1456C24.0571 19.5497 19.6762 23.9306 14.2721 23.9306H12.3953C6.99124 23.9306 2.61035 19.5497 2.61035 14.1456V12.2688ZM13.3393 17.3004C12.8853 17.3004 12.5173 16.9324 12.5173 16.4785V13.0812C12.5173 12.6273 12.8853 12.2593 13.3393 12.2593C13.7932 12.2593 14.1612 12.6273 14.1612 13.0812V16.5004C14.1437 16.9433 13.7825 17.2949 13.3393 17.3004ZM12.5173 10.429C12.5173 10.883 12.8853 11.251 13.3393 11.251C13.7825 11.2455 14.1437 10.8939 14.1612 10.451V10.0455C14.1612 9.59154 13.7932 9.22355 13.3393 9.22355C12.8853 9.22355 12.5173 9.59154 12.5173 10.0455V10.429Z" fill="white"/>
</svg>
